<svg xmlns="http://www.w3.org/2000/svg" ><title>fragments</title><g id="Layer_2" data-name="Layer 2"><g id="fragments"><path d="M455,0h7a40.77,40.77,0,0,0,2.21,5c2.33,3.79,4.51,7.78,7.41,11.1,1.86,2.13,4.77,3.56,7.47,4.66s3.47.19,3.2-2.69c-.13-1.32-.13-2.67-.37-4C481,9.15,481,4.36,484,0h3c-4,4.2-4.85,9.09-3.28,14.56a8.9,8.9,0,0,1,.29,3,5.75,5.75,0,0,0,3.86,6.17,31.1,31.1,0,0,1,6.52,3.54c2.12,1.6,3.79,1.14,5.61-.22v5l-15.2-7.68c.27,6.38.78,12.3.7,18.21-.07,5.51,2.94,8.59,7.41,10.6,2.2,1,4.72,1.27,7.09,1.87v1c-4.54,1.08-8.05-1.29-11.42-3.67-1.79-1.25-3.14-1.6-4.75,0-.57.58-1.39.93-1.94,1.53-2.87,3.12-5.69,6.29-8.53,9.43a36.83,36.83,0,0,0,10.25,9.29c2.13,1.4,3.78,1.11,5.76-.36,3.44-2.56,7.07-4.85,10.63-7.26v2l-10.54,7.51L500,83v3c-2.89-2.92-5.18-6.48-9.2-8.14-6.68-2.77-12.87-6.28-17.55-12-1-1.26-2-1-2.8.17-.6.8-1.15,1.63-1.67,2.48-6.38,10.51-3.18,20.76,3.28,30.3.33.48,1.72.6,2.43.36a17.12,17.12,0,0,0,4-2c4.6-3,9.7-4.13,15.14-4.27A53.25,53.25,0,0,0,500,92v3c-3.25.63-6.47,1.62-9.74,1.79a28.74,28.74,0,0,0-13.92,4.76c-4.58,2.84-4.72,4.2-.14,7.37a15.55,15.55,0,0,0,4,1.83c4.85,1.62,7,4.56,6.85,9.53-.1,2.94.05,3.21,2.65,2.37a12.08,12.08,0,0,0,4-2.59c2.17-1.93,4.19-4,6.27-6.06v2c-1.81,2.13-3.68,4.21-5.38,6.42a4.17,4.17,0,0,0-1,2.66c.35,3.28.9,6.54,1.49,9.79.3,1.67,1.36,2.1,2.95,1.42A7.56,7.56,0,0,1,500,136v2c-4.33.57-4.11.61-4.93,4.44a52.15,52.15,0,0,1-3,8.86c-1,2.43-2.36,4.71-3.81,7.53L500,160v3c-3.4-.56-6.79-1.17-10.21-1.62-.35,0-1.28,1.06-1.18,1.44,1.51,5.72,2.87,11.51,4.85,17.07,1,2.88,3.05,5.49,6.54,6.11v6l-6.61,8.7L500,205v2a13.83,13.83,0,0,1-2.2-.93c-5.45-3.45-10.88-6.93-16.61-10.59-.39,1.45-.78,2.69-1.06,4-1.44,6.47-2.38,13-5.43,19.1a13.94,13.94,0,0,0-1.13,9.72c1,4,.92,4,4.76,2.08a50.93,50.93,0,0,0,4.87-2.52c5.21-3.38,11-3.33,16.8-2.81v2c-6.88.06-13.52,1-19.33,5.14a14.06,14.06,0,0,1-1.76.93c-4.14,2.15-4.62,3.49-2.94,7.78a9.14,9.14,0,0,0,5.32,5.6c5.8,2.17,9.6,6.39,12.3,11.71A8.31,8.31,0,0,0,500,263v2a6.74,6.74,0,0,1-1.43-.16c-1.95-.65-3.79-3.51-5.94-.46a23.6,23.6,0,0,0-3.38,5.86c-.49,1.44.12,3.25.24,4.89L490,282h-1c-.35-1.77-.67-3.54-1.06-5.3-1.11-5.06-.63-9.75,2.94-13.85a3.53,3.53,0,0,0,.72-4.13c-1.79-3.62-3.93-6.93-7.58-9-2.3-1.29-4.56-2.64-6.91-3.83a2.64,2.64,0,0,0-2.16-.1c-4.44,2.67-7.91,12.64-6.28,17.77A44.18,44.18,0,0,0,480,282h-4l-10.8-17.39-23.85,11.62c1.28,2,2.46,3.9,3.65,5.77H434l2.28-5.42c-4.51-1.66-9-3.25-13.47-5-1.92-.76-3.47-.69-4.86,1-2.62,3.16-5.3,6.29-7.95,9.43h-3a17.21,17.21,0,0,1,1.45-2.47c2.14-2.54,4.26-5.11,6.59-7.47,1.8-1.82,1.95-3.51.85-5.74-1.31-2.68-2.33-5.5-3.41-8.29a2.24,2.24,0,0,0-3.09-1.56A52.52,52.52,0,0,0,394,263.35c-2,1.33-1.72,2.37-.32,3.86,1.71,1.81,3.32,3.71,4.9,5.63,2.5,3,4.94,6.11,7.41,9.16h-3l-12.2-14c-1.53,5.09-1.41,10.16-4.8,14h-3a35.66,35.66,0,0,0,4.4-11.88c.71-3.24.58-3.39-2.8-2.34s-6.93,2.21-10.39,3.32c-7.5,2.4-7.5,2.4-8.25,10.41a2,2,0,0,0,0,.49h-2a14.36,14.36,0,0,1,.18-2.95c1.57-5.9.31-11.55-1.36-17.19-.56-1.89-1.37-2.73-3.6-2.07s-4.32,1.57-5.61,3.76c-1.49,2.53-4.32,4.22-4.6,7.52-.31,3.64-.67,7.29-1,10.93h-2l1.21-10.59c-6.5,1.26-12.25,2.55-18.07,3.43-5.35.81-4.94.43-5.23,6.18a6.61,6.61,0,0,0,.09,1h-3c.17-3.45.39-6.9.49-10.36.06-1.95.65-4.34-.23-5.79a104.1,104.1,0,0,0-9.64-12.53c-1.5,7.84-2.84,15-4.23,22.13-.91,4.68-.95,4.67,3.81,6,.3.08.54.38.8.57H254c-5.78-3.58-11.49-7.25-17.34-10.7-5.31-3.13-5.57-2.93-8.91,2.11a5.79,5.79,0,0,0-1,5.14A15.72,15.72,0,0,1,227,282h-2c-.15-3.77-.83-7.41,1.74-11,3.55-4.94,3.37-6.1-.46-10.83a29,29,0,0,0-6.05-5.05c-1.75-1.24-3.84-2-5.6-3.21a2.06,2.06,0,0,0-3,.23c-4.78,4.2-7.24,13.73-4.75,19.61,1.49,3.51,3.41,6.83,5.14,10.24h-3c-.34-.75-.62-1.52-1-2.24-1.67-3-3.37-6-5.07-9-3.28,1.46-6.61,2.8-9.82,4.4-4.41,2.18-8.73,4.56-13.09,6.85h-9c-3.5-1.43-7.05-2.77-10.49-4.33-2.38-1.08-4.17-.63-5.63,1.44-.66.94-1.25,1.93-1.88,2.89h-4c1.33-1.68,2.61-3.4,4-5a3.28,3.28,0,0,0,.61-3.68c-1.27-3.07-2.53-6.14-3.67-9.26-.6-1.62-1.56-1.82-3.1-1.47a41.3,41.3,0,0,0-15,6.62c-2.35,1.67-2.32,1.85-.49,4.26,2.18,2.87,4.4,5.71,6.61,8.57h-3l-6.51-8.07c-1,3.1-1.72,5.58-2.49,8.07h-3c.73-2.81,1.47-5.62,2.39-9.14-6.75,2.05-12.57,3.86-18.42,5.59a4.05,4.05,0,0,0-3,3.55h-2a31.2,31.2,0,0,0-1.72-14.24c-.32-.87-1.58-2.16-2.16-2-2.2.45-4.61.49-6.27,2.6C88.66,272.38,85.2,276.26,86,282H84c.06-.66.14-1.31.19-2,.15-1.82-.18-2.7-2.46-2.17C75.19,279.38,68.58,280.64,62,282H59c1.87-8.63-2.75-14.7-8.07-20.49-.52-.57-1-1.2-2-2.49-1.39,8.15-2.66,15.56-3.93,23H42c1.25-7.32,2.55-14.64,3.74-22,.31-1.93-.31-2.22-2.32-1.32-4.73,2.09-7.35,6.11-9.16,10.63C32.61,273.47,31.4,277.77,30,282H28c.49-2.26.85-4.55,1.49-6.76,1.89-6.49,1.93-6.48-2.8-11.12-.59-.58-1.25-1.09-1.82-1.69-1.5-1.59-2.27-1.07-3.19.71-3.5,6.78-9.64,9.72-16.78,11.05-1.63.3-3.27.54-4.9.81v-2c1.79-.36,3.58-.68,5.36-1.09A23.3,23.3,0,0,0,20,261.56c.91-1.39,1.07-2.46-.58-3.18-3.32-1.46-6.57-3.49-10-4.07-4-.67-7.15-1.95-9.39-5.31v-5c2.63-.37,5.25-.91,7.9-1.06,4.71-.25,8.18-2,10-6.65.9-2.3,2.53-4.3,3.58-6.56,2.57-5.52,5.06-11.09,5.74-17.28C16.53,211.49,7.87,213.6,0,219v-3a49.39,49.39,0,0,1,19.31-5.86c2.46-.2,4.92-.33,7.71-.52-2.45-11-9-18.61-17.62-24.72a3.64,3.64,0,0,0-3.06.17C4.14,186.21,2.1,187.67,0,189V178c1.85.68,3.68,1.42,5.56,2a11.24,11.24,0,0,0,4.28.91c5.5-.59,11-1.44,17.45-2.34-6-5.27-11.23-9.83-16.4-14.47-1.25-1.13-2-.62-2.81.42-1.46,1.81-2.92,3.63-4.51,5.33A44.64,44.64,0,0,1,0,173v-4a10.2,10.2,0,0,0,1.85-1.52c1.78-2.32,3.46-4.7,5.18-7.06-1.71-2-3.39-4-5.14-5.95A12.92,12.92,0,0,0,0,153v-4l9.34,9.66c3.23-3.67,6.28-7.16,9.37-10.61a2.84,2.84,0,0,0,.56-3.55c-1.32-2.85-2.46-5.79-3.51-8.76-.63-1.78-1.68-2.35-3.36-1.69C8.25,135.67,4.13,137.35,0,139v-2c3.62-1.64,7.11-3.85,10.91-4.74a9.87,9.87,0,0,0,6.59-4.74,58.32,58.32,0,0,0,7-18.27L0,115v-3c11.62-1.87,22.85-5.16,35-9.27-2.83-1.28-4.6-2.14-6.43-2.88-4-1.6-8.12-2.95-12-4.73C9.1,91.76,2.66,87.28,0,79V75c4.09.31,7.86-.89,11.61-2.36a3.9,3.9,0,0,0,2.87-3.57c.37-4.13.78-8.26,1.32-12.38.3-2.31-.49-3.11-2.83-3.52C8.6,52.39,4.32,51.08,0,50V48c4.15,1.07,8.27,2.25,12.44,3.19,5.86,1.33,8.13.08,10.36-5.52,2.45-6.13,2.42-12.64,2.83-19.08.13-2-.85-2.6-2.68-2.57-4.31.08-8.63.07-12.94.08a6,6,0,0,0-5.66,3.28C3.06,29.68,1.46,31.8,0,34V22c6.42-.11,12.84-.25,19.26-.3,1.52,0,2-.88,2.28-2.08.44-1.94.45-4.1,1.36-5.77,3-5.57,1.51-10-2.9-13.85H31a64.22,64.22,0,0,0-7.08,19.55c-.32,1.66-.15,2.47,1.68,2.61,2.65.21,5.29.52,7.92.81,1.72.18,2.26-.68,2.48-2.29.93-6.9,2-13.79,3-20.68h3c-.51,2.43-1.08,4.85-1.52,7.29-.84,4.57-1.59,9.15-2.4,13.72-.33,1.83.28,2.71,2.25,2.94a88,88,0,0,1,8.81,1.49c2,.42,2.75-.19,2.88-2.15.26-3.8.5-7.61,1-11.39a6.82,6.82,0,0,0-1.76-5.43C49.67,4.44,48.4,2.17,47,0H59c-2.76,4-3.63,8.49-3.81,13.24-.07,1.89.58,2.2,2.33,1.95,6.1-.85,12.24-1.43,18.32-2.38a6.27,6.27,0,0,0,3.51-2.32C82,7.09,84.47,3.51,87,0H97c-1.51,4.34.18,8.45,1,12.6a2.54,2.54,0,0,0,2.19,1.14C106.05,12,111.85,10,117.66,8.09c1.26-.41,1.36-1.13.83-2.26C117.59,3.92,116.82,2,116,0h3a17.93,17.93,0,0,0,.9,2.74c2,3.89,2.1,3.92,5.68,1.61C127.75,3,129.86,1.45,132,0h5c-.83.47-1.65,1-2.49,1.4-3.07,1.63-6.14,3.27-9.23,4.87-1.75.9-2,1.88-.58,3.41,3.88,4.32,7.67,8.72,11.45,13.13,1,1.18,1.76,1.11,2.75,0,2.37-2.77,4.73-5.57,7.3-8.16,1.83-1.84,1.81-3.51.82-5.77C145.78,6,145,3,144,0h2c1,2.8,2,5.58,3,8.4.65,2,1.46,1.76,2.74.5,3.06-3,6.2-5.94,9.3-8.9h8A15.73,15.73,0,0,1,166,1.34c-6.24,1.26-9.23,6.23-13.23,10.82,5.26,1.85,10,3.39,14.58,5.19,1.85.72,3.16.08,4.66-.68C178.3,13.42,184.68,10.22,191,7c1.29-.66,2.54-1.41,4.07-2.26L185,0h15c-.21,1.75-1,3.69-.52,5.23A44,44,0,0,0,207.6,21a17.1,17.1,0,0,0,8.46,5.79c2.83.8,3.47.23,3.28-2.66-.08-1.32-.12-2.65-.28-4-.66-5.31-.89-10.52,3.23-14.78C224.11,3.5,223,1.75,222,0h2a11.3,11.3,0,0,0,5.44,5.41c5.26,2.75,10.35,5.83,15.52,8.76,1.09.61,2.25,1.11,3.49,1.73C250,10.41,252.16,5.3,249,0h3c.56,2.13,1.84,3.57,4.14,3.46,4.21-.2,8.49-.33,11.86-3.46h5c-4.78,4.07-10.54,5.37-16.59,5.72-1.94.11-3.08.55-3.31,2.72a32.37,32.37,0,0,1-1.29,6.32c-.73,2.28.22,2.48,2.12,2.37q13.89-.78,27.78-1.37c1.77-.08,2.06-1,2.44-2.42C285.32,8.87,286.7,4.44,288,0h2c-.66,2.53-1.4,5-2,7.58-2.38,10.43-3.56,7.88,6.41,9.26,3.52.49,3.69.1,4.32-3.65.74-4.4,1.5-8.79,2.25-13.19h2c-.76,5.06-1.4,10.15-2.34,15.17-.32,1.7-.2,2.45,1.61,2.69,3.28.45,6.56,1,9.82,1.56,1.73.31,2.46-.29,2.55-2a55.06,55.06,0,0,1,.74-8.92A11.32,11.32,0,0,0,314,0h5c-.31,2.43-.65,4.86-.9,7.3-.18,1.66.39,2.3,2.29,2a101.61,101.61,0,0,1,13.75-1.68C339.66,7.47,343,4.8,345,0h2c-4.24,4.92-4.6,11-5.07,17,0,.33-.09.66-.14,1-.4,2.41-1.91,5.55-.92,7,1.22,1.85,4.51,2.34,6.91,3.41.45.2,1,.29,1.39.53,1.08.62,1.77.23,2.46-.7C358,19.74,361,10.54,357,0h2l1.14,5.84c.37,1.88,1.44,2.44,3.24,1.85C369,5.82,374.71,4,380.32,2.06,381,1.82,381.45.71,382,0h6c-1.22,1.15-2.33,2.12-.61,3.94,4,4.22,7.77,8.6,11.59,13,1.15,1.3,1.91.74,2.78-.25a58.51,58.51,0,0,1,5-5.55c3.46-3.06,4.89-6.36,2.24-10.62-.07-.11,0-.32,0-.49h11l-4.81,6.08c5.38,1.91,10.45,3.77,15.57,5.47a4,4,0,0,0,2.77-.38C440.71,7.5,447.85,3.74,455,0ZM449,56c.49.44.92,1.16,1.48,1.28,6.27,1.36,12.57,2.63,19.83,4.12-2.24-3.53-3.88-6.15-5.54-8.75-4-6.32-5.32-6.47-11-1.18-1.08,1-2,2.25-3,3.3a12.53,12.53,0,0,1-1.92,1.36c1.59-5.58,6.58-8,10.63-11.51-7.22-10.28-16-19.14-24.3-28.42-1.69-1.89-3.06-1.73-4.06.77a73.09,73.09,0,0,0-2.94,10c-1.09,4.52-2,9.06-6.2,12.68,3,1.5,5.32,3.39,8,3.92,7,1.38,12.15,5.09,16.28,10.68C446.81,55.09,448,55.44,449,56ZM241,216.07c-.95-.6-1.91-1.19-2.84-1.81-6.46-4.29-12.92-8.6-19.45-12.95a11.63,11.63,0,0,0-.56,1.36c-1.71,7.56-2.48,15.36-6.2,22.4a14.16,14.16,0,0,0-1.15,5.79c-.33,7,.61,7.63,6.68,4.44.74-.39,1.49-.75,2.19-1.18a22.88,22.88,0,0,1,11.79-3.35c4.8-.09,9.6-.65,14.39-1,1.45-.11,2.26-.55,1.33-2.15-.75-1.29-1.44-2.61-2.14-3.93-1.4-2.59-2.78-5.18-4.18-7.78a16,16,0,0,1,2.78,2.52c2,3,3.92,6.06,6.08,9.46,2.22-3.58,4.39-6.9,6.34-10.34a5.38,5.38,0,0,0,.51-3.31c-.8-4.74-1.8-9.44-2.69-14.16-.25-1.33-.82-2.12-2.3-2-4.87.51-9.48-.61-14.2-2.52-.48,4.89-3.1,8.1-7.4,10.3,3.08,2.32,5.81,4.2,8.3,6.35C239.47,213.24,240.15,214.78,241,216.07Zm-135-129c-5.54-3.6-11.07-7.22-16.64-10.79-5.94-3.82-5.91-3.79-7.27,3.09-1.09,5.51-2,11-4.7,16.17C76.14,98,76,101.31,76,104.23c0,5,.84,5.37,5.46,3,1-.53,2.13-1,3.1-1.6A24.82,24.82,0,0,1,97.35,102c5.13-.22,10.24-.79,16-1.25-1.54-2.86-2.85-5.31-4.17-7.75q-1.62-3-3.26-6a27.9,27.9,0,0,1,3.31,3.4c1.89,2.71,3.55,5.57,5.62,8.86,2.36-3.75,4.59-7.21,6.69-10.75a3.79,3.79,0,0,0,.33-2.4C121,81,120,75.9,118.94,70.86c-.12-.6-1.14-1.58-1.49-1.48-5.18,1.43-9.79-.91-14.87-2.11-.58,4.56-3.21,7.78-7.25,10.1A75.34,75.34,0,0,1,101.61,82,52.77,52.77,0,0,1,106.05,87.07Zm276.84,57.49c1.91-6.1,3.92-11.69-.58-17.51-3.66-4.74-4.51-10.52-4.53-16.47,0-3.63-.69-7.26-.89-10.9-.11-1.83-.8-2.09-2.5-1.9-3.13.36-6.3.29-9.44.56-3.63.31-7.42.23-10.8,1.35-4,1.34-7.74,3.78-11.59,5.72a3,3,0,0,0-1.77,3.22c.25,4.21,2.18,7.56,6,9.06,6,2.36,9.67,6.77,12.63,12.13a7.67,7.67,0,0,0,2.51,3C368.76,136.74,375.7,140.55,382.89,144.56Zm-137.95,87.7a53.64,53.64,0,0,1-6.8.67,39.48,39.48,0,0,0-21.75,6c-4.35,2.62-5.17,3.7-2.85,8.13a11.61,11.61,0,0,0,5.07,5.18c5.9,2.5,9.6,6.9,12.56,12.26a7.73,7.73,0,0,0,2.48,3c6.29,3.7,12.7,7.22,19,10.83,1.32.75,2,.61,2.47-1,1.59-5.18,2.93-10.24-1-15.1a17.92,17.92,0,0,1-2.49-4.87,25.68,25.68,0,0,1-1.77-6.11c-.56-5.28-.81-10.59-1.22-15.89C248.45,232.19,248.35,232.12,244.94,232.26ZM78,114c.49,5,2.43,8.26,6.32,9.73,5.68,2.15,9.14,6.34,12,11.41a9.75,9.75,0,0,0,3.16,3.67c6.12,3.67,12.38,7.1,18.58,10.63,1.41.81,2.27.89,2.87-1,2.41-7.72,2.42-8.29-1.32-15.46-.54-1-1-2.1-1.66-3.07a14.89,14.89,0,0,1-2.34-7.47c-.31-5.63-1-11.24-1.45-16.86-.14-1.73-.78-2.11-2.55-1.91-5.76.65-11.57,1-17.35,1.55a9.85,9.85,0,0,0-3.32.8c-3.6,1.71-7.2,3.45-10.65,5.41C79.17,112,78.51,113.39,78,114Zm387.4,146c1-6.29,3.1-11.39,7.45-15.44a4.51,4.51,0,0,0,.85-3.06c0-1.12-.81-2.25-.76-3.36.13-3-1.47-4.11-4.19-4.32-6.27-.47-11.23-3.62-15.66-7.82a23.85,23.85,0,0,0-2.73-2.17c-2.12-1.51-4.27-3-6.41-4.44-1.78,1.95-3.52,3.95-5.36,5.84a3.74,3.74,0,0,0-1.07,4c1.85,6.58,4.06,13,7.71,18.82a17.58,17.58,0,0,0,8.53,7.36ZM47.17,96.17c-.54.5-.92.81-1.24,1.17A63.54,63.54,0,0,0,41.08,103a4.85,4.85,0,0,0-.68,3.62c1.91,6.9,4.12,13.77,8.6,19.48a25.1,25.1,0,0,0,7.06,6.08c3.14,1.8,6.75,2.75,10.12,4.17,1.63.69,2.37.42,2.68-1.46.68-4.15,2-8.19,5-11.18,2.37-2.32,3.27-4.34,2.1-7.74-1.39-4.07-1-4.31-5.22-5a21.48,21.48,0,0,1-11.55-5.31c-3.2-2.9-6.72-5.44-10.1-8.13C48.51,97.08,47.84,96.64,47.17,96.17ZM310,90.25a14.16,14.16,0,0,0-1.49,1.3C307.15,93,306,94.65,304.55,96a5,5,0,0,0-1.27,5.45,67.87,67.87,0,0,0,7.27,17.38c1.95,3.13,4.28,5.95,7.82,7.41,3.37,1.4,6.81,2.6,10.15,4.06,2,.88,2.72,0,3-1.74a21.11,21.11,0,0,1,7-12.85,2.41,2.41,0,0,0,.63-3.45,4.12,4.12,0,0,1-.5-1.91c0-4-2.34-5.32-5.91-5.58-4.48-.33-8.12-2.44-11.43-5.42-3.07-2.77-6.4-5.26-9.63-7.87C311.18,91.12,310.64,90.75,310,90.25ZM202.63,265.75c1.21-6.07,3.07-11.51,7.73-15.58a3.43,3.43,0,0,0,.64-2.59c-.22-1.8-.85-3.55-1.07-5.35a2.25,2.25,0,0,0-2.2-2.2c-1.48-.24-2.92-.7-4.4-.93a17,17,0,0,1-8.91-4.06c-3.49-3.08-7.25-5.85-10.86-8.79-1.18-1-2.15-1.44-3.31.08-1.51,2-3.27,3.77-4.75,5.78a3.67,3.67,0,0,0-.65,2.66c1.81,7.48,4.38,14.67,9.12,20.86S195.84,263.1,202.63,265.75ZM169.13,231c-4-1.58-8.08-3-12-4.79-4.94-2.31-9.8-4.83-14.56-7.52a12.64,12.64,0,0,1-6.31-8.06c-.84-3.82-3-4.62-6.33-4.51a35.91,35.91,0,0,1-3.9-.29c.75,3.86,1.41,7.28,2.1,10.68a7.18,7.18,0,0,1-1.21,6c-2.15,3-4,6.12-6,9.15-.7,1-.69,1.75.41,2.44,3.38,2.1,6.68,4.36,10.17,6.28a6.37,6.37,0,0,0,3.84.3A164.62,164.62,0,0,0,169.13,231Zm262.39-6c-4-1.6-8-3.07-12-4.83q-6.36-2.82-12.51-6.1a16.9,16.9,0,0,1-8.75-11c-.57-2.28-1.72-2.93-3.83-2.82A24,24,0,0,1,391,200c-1.67-.17-2,.79-1.78,2.14a71.85,71.85,0,0,0,1.48,7.32A8.05,8.05,0,0,1,389.2,217c-1.94,2.69-3.6,5.59-5.47,8.34-.79,1.19-.88,2.06.46,2.87,3.25,2,6.42,4.17,9.76,6a6.21,6.21,0,0,0,3.78.58A154.1,154.1,0,0,0,431.52,225ZM296.43,97.31l.2-1.11c-3.55-1.38-7.18-2.58-10.63-4.19a135,135,0,0,1-15.47-7.94A14.72,14.72,0,0,1,264.65,77c-1.4-4.26-3.78-5.76-7.85-5.57a4.28,4.28,0,0,1-1-.17c-1.36-.25-1.83.38-1.57,1.65.54,2.77,1.08,5.55,1.68,8.31a8.05,8.05,0,0,1-1.39,7c-2,2.65-3.6,5.6-5.52,8.32-1,1.42-.92,2.28.58,3.18,3,1.79,5.86,3.84,9,5.44a8.14,8.14,0,0,0,4.71.75C274.58,104.08,285.55,100.86,296.43,97.31ZM148.71,77.87c-1.74.19-4.08.3-6.36.72a43.54,43.54,0,0,0-6.73,1.76c-4.14,1.47-7.86,3.68-10.33,7.46s-4.85,7.94-7.41,11.82c-1,1.5-.74,2.31.68,3.18,3.12,1.9,6.16,3.94,9.3,5.82,2.34,1.41,13.76-.39,15.54-2.37a8.65,8.65,0,0,0,.83-1.24c4-6.53,7.72-13.2,9.78-20.64C156.22,76.43,156.43,78,148.71,77.87ZM284.49,206.12l0-.16c-3,.41-5.94.7-8.86,1.28a37.2,37.2,0,0,0-6.18,1.85,20,20,0,0,0-10.12,7.74c-2.41,3.78-4.68,7.64-7.14,11.4-.8,1.23-.84,2,.46,2.78,3.26,2,6.43,4.13,9.72,6.07,2.15,1.27,13.53-.43,15.21-2.16a8.5,8.5,0,0,0,1.14-1.63c4.27-7.14,8.08-14.48,10.22-22.59,1.22-4.63,1.26-4.62-3.43-4.58ZM411.93,71.71c-3.27.49-6.59.77-9.8,1.52-7.06,1.66-12.86,5.15-16.39,11.85a58.62,58.62,0,0,1-5,8c-1.56,2.08-1,3.19,1,4.18a11.14,11.14,0,0,1,1.26.8c9,5.88,9,5.82,19.68,3.82a5.85,5.85,0,0,0,4.27-3,89.88,89.88,0,0,0,9.83-21.13C418.65,71.59,418.59,71.53,411.93,71.71ZM172,19.31c6.21,6.6,12.13,12.89,18,19.19,1.28,1.36,2.54,2.61,4.67,2.29a38.62,38.62,0,0,0,22.64-11.43c-7.82-1.52-12.28-6.42-15.55-12.72-1.31-2.5-2.79-4.93-3.9-7.51-.85-2-1.72-1.85-3.38-1-5.48,2.79-11.06,5.39-16.58,8.09C176.05,17.15,174.19,18.18,172,19.31ZM89.27,163.74a20.22,20.22,0,0,1-14.71-11.25c-1.3-2.51-2.92-4.86-4.1-7.41-1.67-3.58-1.8-3.51-5.09-1.88-4,2-8.07,3.91-12.11,5.88-3,1.49-6.1,3-9.46,4.66,6.22,6.68,12.05,12.81,17.73,19.08a6.3,6.3,0,0,0,6.25,2.07A38.79,38.79,0,0,0,89.27,163.74ZM459.47,1.15,434.75,13.23c6.44,6.86,12.58,13.33,18.61,19.89,1.59,1.73,3.39,1.9,5.42,1.47a42,42,0,0,0,18.34-8.49c.91-.76,1.68-1.69,2.81-2.83C467.54,20.81,464.75,10.22,459.47,1.15ZM351.84,158c-7.81-1.69-12.23-6.39-15.42-12.53-1.15-2.2-2.39-4.36-3.55-6.56-1.7-3.23-1.7-3.27-5.15-1.6q-9,4.34-17.88,8.73c-3.31,1.64-3.36,1.73-1,4.29,5,5.36,10.1,10.55,14.9,16.05,2.32,2.67,4.85,3.07,8,2.35A42.08,42.08,0,0,0,351.84,158Zm70.25,74.86-1-.85c-2.07.5-4.13,1-6.21,1.48-5.68,1.28-11.37,2.5-17,3.83A7,7,0,0,1,391.8,236c-2.88-2-6-3.76-9.47-5.94.5,5.7,1.31,10.5,1.26,15.29-.06,6.06,3.07,10.77,5.65,15.74,1.29,2.47,1.9,2.52,4.22.82,4.2-3.07,8.57-6,13.72-6.85,4.77-.76,7.44-3.6,9.19-7.48C418.53,242.77,420.21,237.74,422.09,232.81ZM248,101.39c.39,4.68,1.11,8.48.92,12.25-.36,7.26,2.82,13.18,6.19,19.16,1.15,2,2.18,1.62,3.9.59C263,131,267,128,271.32,127c6.67-1.49,9.8-5.59,11.87-11.36,1-2.82,2.14-5.59,3.08-8.43a23.29,23.29,0,0,0,.62-3.72c-7.91,1.73-15.4,3.26-22.82,5.06a7.61,7.61,0,0,1-6.55-1.28C254.66,105.34,251.66,103.63,248,101.39ZM120.25,236.31c0,2.9-.1,5.36,0,7.81.38,7.84,1.32,15.52,6,22.26,2.12,3.07,2.07,3.27,5.28,1.06,4.13-2.84,8.35-5.72,13.37-6.45a9.13,9.13,0,0,0,7.33-5.29c2.24-4.61,4-9.47,5.86-14.25a20.77,20.77,0,0,0,.67-3.47l-3.39.77c-6.32,1.45-12.64,2.91-19,4.34a9.33,9.33,0,0,1-8.4-1.83A85.75,85.75,0,0,0,120.25,236.31ZM78.76,204.06c-6.66-1.44-12.66-2.7-18.65-4-1.9-.42-3.13.08-3.93,2a77.9,77.9,0,0,0-5.2,20.2c-.31,2.32.62,3.75,2.37,5.05a82,82,0,0,1,9,7.12c4.59,4.59,10.47,5.15,17.14,6.65-3.5-6.22-5.82-12-6.5-18.31A23.68,23.68,0,0,1,78.76,204.06ZM470.24,100.52c-1.26-2.6-2.32-4.62-3.23-6.71-4.25-9.65-5.35-19.19,1.23-28.36,1-1.41.62-2-.94-2.35-5.36-1.12-10.74-2.15-16-3.49-2.25-.56-3.29,0-4.23,2a61.54,61.54,0,0,0-4.95,20.19c-.21,2.33.74,3.72,2.44,5a107.13,107.13,0,0,1,8.93,7.19C458.07,98.45,463.88,99.25,470.24,100.52ZM124.67,85.26a18.25,18.25,0,0,0,1.79-1.41,25.41,25.41,0,0,1,14.57-7c3.6-.54,7.24-.86,10.88-1.14,3.27-.25,3.66-.55,2.67-3.45a42.54,42.54,0,0,0-16.42-21.4c-1.69-1.19-3-.84-4.51.19-4.14,2.79-8.28,5.58-12.53,8.19-1.8,1.1-1.81,2.25-1.37,4.1C121.49,70.55,123,77.84,124.67,85.26ZM341.08,198c-6.65-1.4-13.08-2.79-19.54-4.11-1.71-.35-2.26,1-2.81,2.25a58.56,58.56,0,0,0-4.91,20.71,4.55,4.55,0,0,0,2.1,4.19c3.42,2.63,7,5.11,10.15,8,4.44,4.13,10,4.57,15.67,5.69C332.88,217.29,333.51,209.24,341.08,198Zm-133.76-91.8c-.87-1.8-1.39-2.83-1.87-3.87-4.87-10.4-7.09-20.78.19-31.1.83-1.17.27-1.8-1-2.07-5.66-1.25-11.34-2.44-17-3.79-2-.48-2.62.7-3.27,2.13-2.9,6.42-4.09,13.27-5.13,20.16a4.48,4.48,0,0,0,1.93,4.71c3.61,2.66,7.23,5.34,10.55,8.33C196,104.54,201.15,105.22,207.32,106.23Zm82.33,97.53c-2-8.94-8.38-18.28-16.63-24.23-1.7-1.23-3-1.58-4.83-.22-2.94,2.17-6.15,4-9.14,6.05-5.73,4-5.84,2.16-4,9.81,1.46,6.08,2.77,12.21,4.24,18.72C267.67,205,278.5,204.23,289.65,203.76ZM387.59,79.63c5.2-6.17,11.77-8.3,18.77-9.36,2.77-.42,5.61-.48,8.42-.66,3.47-.23,3.52-.24,2.42-3.37-3.06-8.74-8.77-15.5-15.92-21.18-1.49-1.18-2.79-1.44-4.47-.29-4.24,2.91-8.52,5.76-12.9,8.46-1.76,1.09-2,2.34-1.55,4.16C384.07,64.47,385.7,71.56,387.59,79.63ZM498,189.22a7,7,0,0,0-1.53-2.15c-3.29-2.41-4.77-5.92-6-9.54-.92-2.65-1.6-5.4-2.34-8.12-2.48-9.1-2.48-9.07-11.32-12.19-1.66-.59-2.64-.63-3.45,1.24-2,4.58-4.07,9.11-6.23,13.6a4.15,4.15,0,0,0,.16,4.2c5,8.92,11.58,16.21,20.84,20.82a5.92,5.92,0,0,0,3.25.66C494.76,197.24,497.86,193.44,498,189.22ZM363.13,60.75a7.51,7.51,0,0,0-1.58-2.48c-3.15-2.51-4.72-5.93-5.93-9.58-.93-2.83-2.17-5.68-2.43-8.59-.62-6.86-4.66-10-10.83-11.56-2.16-.55-3.31-.64-4.24,1.64-1.81,4.45-3.83,8.82-5.83,13.19a4.23,4.23,0,0,0,.09,4.19A50.76,50.76,0,0,0,353.16,68.4a4.89,4.89,0,0,0,4.73.13C360.81,67.15,362.49,64.83,363.13,60.75ZM100.58,66a5.52,5.52,0,0,0-1.17-1.46c-2.9-2-4.5-4.86-5.62-8s-2.13-6.62-3.09-10c-2.65-9.21-2.65-9.15-11.52-12.08-2.1-.7-3-.07-3.79,1.75C73.65,40.3,72,44.46,70,48.47c-1.19,2.41-.79,4.26.54,6.44,5,8.1,11.21,14.81,19.74,19.14a6.71,6.71,0,0,0,4.15.66C97.71,74,100.61,69.84,100.58,66Zm245.9.75c-.5,1.66-.94,2.89-1.23,4.16-1.47,6.46-2.17,13.09-5.44,19.1a15.43,15.43,0,0,0-1.42,7.26c0,5.85,1.08,6.4,6.17,3.8,1.19-.6,2.41-1.16,3.54-1.85A21.63,21.63,0,0,1,359,96c5.57-.17,11.12-.81,17.17-1.29-3.22-5.92-5.51-11.82-10.67-15.53C359.41,74.87,353,71,346.48,66.7ZM235.2,195.37a7.43,7.43,0,0,0-1.57-2.52c-2.89-2.29-4.35-5.45-5.58-8.7-1.11-3-2.39-6-2.66-9.05-.62-7.07-4.73-10.42-11.11-11.86a1.52,1.52,0,0,1-.47-.15c-1.5-.82-2.39-.41-3.07,1.18-2,4.73-4.29,9.37-6.18,14.15a5.56,5.56,0,0,0,.36,4.15,49.22,49.22,0,0,0,20.44,20.53,4.7,4.7,0,0,0,4.7.09C233,201.74,234.62,199.43,235.2,195.37Zm102,19.66a34.53,34.53,0,0,0,5.47,16.68c1.79,2.91,2,3.1,5.09,1.21A34.42,34.42,0,0,1,366,227.3c1.65,0,3.31-.32,5-.41s1.8-.77,1.44-2.27a17.88,17.88,0,0,0-10.87-12.81c-6.36-2.72-12.25-6-16.72-11.44-1-1.25-1.74-1.14-2.65.08A24.31,24.31,0,0,0,337.17,215ZM81,205a21.32,21.32,0,0,0-5.79,12.16c-.93,7.23,1,13.85,4.53,20.08,1.88,3.33,2,3.51,5.29,1.59,5.39-3.15,10.91-5.59,17.33-5.44a36.18,36.18,0,0,0,5-.47c2.7-.29,2.94-.58,2.36-3.06-1.25-5.39-4.37-9.48-9.43-11.56C92.88,215.28,86.33,211.27,81,205Zm213-31.32c2.87,2.33,5.61,4,9,4.57,5.5.94,9.76,4,13.26,8.26,1.1,1.33,2.19,2.67,2.91,3.56,3.59-3.33,6.87-6.6,10.41-9.55,1.48-1.24,1.26-2,.22-3.16q-11.79-13.53-23.54-27.1c-1.33-1.54-2.51-.88-3,.55a108.47,108.47,0,0,0-3.11,10.47C299.07,165.81,298.06,170.32,294,173.68ZM184.91,61.77c3.4-3.27,6.46-6.51,9.85-9.34,1.62-1.35,2.05-2.08.58-3.75q-11.49-13.09-22.86-26.29c-2.1-2.42-3.32-1.53-4.19,1a116.08,116.08,0,0,0-3.07,11.51c-.77,3.28-1.63,6.49-4.2,8.84-1.53,1.41-.81,2.38.52,3a38,38,0,0,0,7.25,3.07,24.15,24.15,0,0,1,13.56,8.67C183.25,59.68,184.16,60.83,184.91,61.77Zm18.22,24.39a29.76,29.76,0,0,0,3.69,14.41c3,5.76,3.08,6,8.5,2.76a31.29,31.29,0,0,1,16.05-4.5c1.49,0,3-.22,4.46-.37,1.89-.2,2.48-1.17,2-3a17.28,17.28,0,0,0-10.43-11.93c-6.34-2.71-12.19-6-16.74-11.33-1.26-1.46-2.1-1.16-3.06.2A21.69,21.69,0,0,0,203.13,86.16ZM31.24,179.71c3.25,2.43,6.06,3.94,9.46,4.54a20.88,20.88,0,0,1,12.86,7.89c.62.77,1.25,1.55,1.8,2.38,1.08,1.61,1.89,1.78,3.32.12a49.05,49.05,0,0,1,7.7-7.68c2.06-1.54,2.18-2.42.62-4.18-7.7-8.69-15.34-17.43-23-26.16-.11-.12-.23-.23-.34-.36-1.31-1.57-2.32-.82-3,.52a16.23,16.23,0,0,0-1.45,3.66c-.81,3-1.47,6.12-2.24,9.17C36,173.34,35,177,31.24,179.71Zm175.44-69.88c-3.59-.84-6.13-1.65-8.73-2-3.86-.52-6.74-2.49-9.38-5.19-3.13-3.2-6.48-6.2-9.87-9.42-2.69,3.11-5,6.15-7.72,8.77-1.26,1.22-1.32,2-.68,3.37,2.44,5.1,4.49,10.43,7.38,15.26,2.53,4.23,5.91,8,9.09,11.78,1,1.19,2.42,1.77,3.38-.5A55.6,55.6,0,0,1,206.68,109.83ZM77.34,244c-2.77-.66-5.63-1.45-8.54-2a15.09,15.09,0,0,1-8.2-4.28c-2.68-2.72-5.46-5.35-8.26-8-2.29-2.13-2.32-2.09-4.47.47a53.76,53.76,0,0,1-5.2,6c-1.55,1.38-1.76,2.34-.84,4.15,2.42,4.73,4.29,9.76,7,14.31a76.75,76.75,0,0,0,8.58,11.52c2.22,2.52,3,2.11,4.56-.82,1.69-3.23,3.2-6.62,5.35-9.53C70.31,251.82,73.85,248.11,77.34,244Zm392-140.24c-4.11-1-7.31-1.93-10.57-2.48a10.86,10.86,0,0,1-6-3.28c-3.68-3.62-7.46-7.12-11.34-10.8-2.88,3.16-5.73,6.16-8.4,9.31a3,3,0,0,0,0,2.58c2.71,5.9,5.22,11.92,8.46,17.52,2.13,3.68,5.28,6.8,8.16,10,1.29,1.42,2.53,1.06,3.29-.93C456.2,117.14,461.69,110.13,469.33,103.79Zm-334.94,100c4.19.46,8.41-.92,12.59-2.68a3.07,3.07,0,0,0,2.21-2.87c.45-4.63,1-9.25,1.56-13.86.24-1.85-.74-2-2.24-2.36-5.17-1.18-10.57-1.95-15.32-4.13s-8.52-1.59-12.83.13c-1.65.66-1.84,1.32-1.35,2.93,1.69,5.55,3.22,11.15,4.75,16.75s1.69,5.86,7.7,6.09C132.29,203.83,133.13,203.8,134.39,203.8ZM340,238.12c-3.14-.77-6.12-1.57-9.13-2.21a14.07,14.07,0,0,1-7.72-4.18c-2.84-3-6-5.78-9-8.66-1-1-1.85-1.13-2.89.06-2.39,2.75-4.89,5.4-7.35,8.09,1.37,3.46,2.68,6.95,4.11,10.39a37,37,0,0,0,3.22,6.74,130.68,130.68,0,0,0,9.25,12.29c1.89,2.17,2.68,1.82,3.82-.91a51.26,51.26,0,0,1,10.25-15.83C336.32,242.11,338,240.3,340,238.12Zm73-55.18-.13,0a18.07,18.07,0,0,1,.28-3.47c.67-2.46-.36-3-2.64-3.45-5.18-1.05-10.49-2-15.31-4.09-4.22-1.8-7.8-1.91-11.87-.11-1.76.77-2.24,1.26-1.65,3.21q2.89,9.54,5.3,19.22a3.52,3.52,0,0,0,3.27,3.05c6.71,1.17,13.19.86,19.49-2.08a3.43,3.43,0,0,0,2.28-3.35C412.28,188.87,412.71,185.91,413.05,182.94ZM262.28,69.16a28.44,28.44,0,0,0,11.59-2.29c2-.84,3.26-1.76,3.34-4.25.13-3.81.74-7.6,1.17-11.4.36-3.13.21-3.53-2.85-3.9-5.33-.66-10.57-1.71-15.32-4.19a11.29,11.29,0,0,0-10.84-.27c-3,1.42-3.11,1.2-2.14,4.6,1.28,4.47,2.6,8.94,3.79,13.44C253.11,68.81,253.07,68.82,262.28,69.16Zm79.18,171.41A50,50,0,0,0,325,264c-.73,2.13-.58,4.57-.77,6.87-.13,1.58.76,2,2.19,1.8,6.08-.89,12.17-1.74,18.25-2.65.78-.11,1.85-.28,2.24-.82,3.29-4.56,7.4-8.62,9.17-14.15.93-2.9-1-7-3.92-7.5C347.59,246.7,344.36,244.12,341.46,240.57ZM190.3,138.89c0,5.19.2,5.39,4.17,4.88,2.8-.35,5.6-.68,8.38-1.1,3.26-.5,7-.28,9.62-1.87s4.29-5,6.12-7.7a31.37,31.37,0,0,0,3.68-7,5.7,5.7,0,0,0-4-6.88,14.05,14.05,0,0,1-9.11-5.54c-1.18-1.55-2.05-1.67-3.5-.27-6.4,6.21-11.61,13.19-14.5,21.71A24.06,24.06,0,0,0,190.3,138.89Zm262.17-5.06c.52,4.32.59,4.42,4.66,3.95,3.29-.37,6.57-1.2,9.85-1.22,6.47,0,10.86-3,13.74-8.61,1.19-2.35,3-4.43,3.95-6.86a5.67,5.67,0,0,0-3.83-7.84,14.84,14.84,0,0,1-9-5.65c-1.25-1.6-2.18-1.49-3.57-.18a57.63,57.63,0,0,0-12.67,17.08C454.16,127.44,453.47,130.71,452.47,133.83ZM61.32,274.13l.52.17c0,.5,0,1,0,1.5.12,2.87.12,2.85,3.16,2.45,4-.52,7.91-.95,11.86-1.49,7.19-1,7.24-1,11.52-7a45.46,45.46,0,0,0,4.94-8c1.66-3.84.05-7-3.91-8.13-3.47-1-6.55-2.4-8.8-5.28-1.19-1.52-2.22-1.5-3.65-.18a53.18,53.18,0,0,0-12.91,17.53A79.2,79.2,0,0,0,61.32,274.13ZM288.58,24.81l-.53-.14c0-1.5,0-3,0-4.5S287.41,18,286,18c-5,.08-10,.1-15,.37a4.11,4.11,0,0,0-2.77,1.7c-3.62,5.59-7.06,11.3-10.62,16.92-1,1.58-.57,2.41,1,3,5.37,1.76,10.67,3.79,16.12,5.23,6,1.6,8.44.41,10.36-5.4C286.74,35,287.47,29.81,288.58,24.81Zm102.5,143.08c4.45,1.58,8.45,3.1,12.54,4.39a46.4,46.4,0,0,0,7.72,1.76c4.75.64,6.27-.19,8.22-4.5,2.93-6.49,3.41-13.42,3.4-20.43,0-1.81-1-2.28-2.5-2.26-4.8.08-9.61.24-14.41.26-2,0-2.9,1.3-3.78,2.74Zm-239.75-15v-.09c-2.67.12-5.34.12-8,.43a4.38,4.38,0,0,0-2.9,1.49c-3.73,5.72-7.28,11.55-10.89,17.35-.64,1-.65,1.94.64,2.34,6.18,1.9,12.3,4.12,18.6,5.49,4.81,1.05,6.43-.28,8.46-4.93a36.3,36.3,0,0,0,2.77-15.1c-.05-7.76,1.24-7-6.7-7ZM48.13,130.12c-2.83-6.05-5.89-12.1-8.52-18.33-2.76-6.57-2.56-6.59-9.42-4.36a5.46,5.46,0,0,0-4.11,4.27,69.74,69.74,0,0,1-7.91,18.77,5,5,0,0,0-.67,3.59c1.1,3.61,2.56,7.11,3.92,10.77,4-3.6,7.41-7.82,11.79-10.2C37.75,132.18,43.26,131.51,48.13,130.12Zm236.41,9.48c6.61-10.21,15.62-14.69,26.49-14.81-3-6.36-6-12.41-8.62-18.64-3.11-7.38-.82-7.09-9.68-4.6-2.23.63-3.09,1.82-3.79,4-1.67,5-3.07,10.38-5.92,14.72-3.28,5-3,9.29-.64,14.13C283,135.68,283.52,137.1,284.54,139.6ZM446,252.71c-4.91-6.09-7.47-13.23-10.05-20.36-1.58-4.36-1.56-4.37-6.18-3a8.15,8.15,0,0,1-1.42.47c-3,.39-4.17,2.29-5.2,5.09-2.28,6.21-5.13,12.2-7.89,18.21-.59,1.26-1.1,2.2-.52,3.67,1.39,3.51,2.53,7.12,3.82,10.8,4-3.71,7.43-8.12,11.9-10.56S440.43,254.15,446,252.71Zm-290.1,20.63c4.22-3.72,7.73-8,12.25-10.45s10.07-2.86,15.42-4.24c-4.65-5.55-7.31-12-9.69-18.5-2.25-6.13-2.18-6-8.34-4.29a6.13,6.13,0,0,0-4.9,4.78c-1.94,6.69-4.35,13.23-8.29,19.1a3.5,3.5,0,0,0-.42,2.67C153.12,266.14,154.55,269.81,155.85,273.34Zm281.76-158.5c-2.07-5-4-9.7-6-14.38-1.19-2.75-1.51-2.94-4.58-2.07-11.1,3.17-22.12,6.65-33.63,8.21.75,3,2.45,4.06,5.33,4.45a32.3,32.3,0,0,1,17.65,8.58c2.44,2.24,4.72,4.66,7.31,7.24C426.66,120.9,430.5,116,437.61,114.84ZM308.85,249.49c-2.21-5.3-4.35-10.34-6.39-15.41-.73-1.82-1.76-2.05-3.52-1.5-4,1.26-7.95,2.46-12,3.46-7.39,1.85-14.83,3.55-22.24,5.31,1.83,3.37,1.81,3.45,5.26,4.09A36.52,36.52,0,0,1,288.85,255c2,1.91,4,3.89,6.18,6.07C298.27,255.45,301.72,250.37,308.85,249.49ZM333.37,132a10.17,10.17,0,0,0,.27,1.27c2.21,6.88,5.08,13.44,10.59,18.34a21.13,21.13,0,0,0,6.43,3.63c2.64,1,3.36.41,3.23-2.32s-.46-5.3-.85-7.93a11.3,11.3,0,0,1,1.85-8.48c3.53-5.18,3.46-6.42-.58-11.22a31.43,31.43,0,0,0-6.1-5c-1.61-1.14-3.61-1.75-5.14-3-1.35-1.07-2.16-1.07-3.32.12C335.86,121.49,334.32,126.51,333.37,132ZM70.93,137.2a13.38,13.38,0,0,0,.36,2.9c2.2,6.31,4.83,12.44,9.82,17.08a23.7,23.7,0,0,0,6.73,4.06c2.57,1.1,3.34.44,3.28-2.25s.09-5.74-.59-8.43c-.83-3.31.21-5.8,2-8.3a11.62,11.62,0,0,0,1.77-3,5,5,0,0,0,.23-3.23,17.77,17.77,0,0,0-8.32-9.54,49.25,49.25,0,0,1-6-3.45c-1.28-.91-2-.62-3,.32C73.47,127.19,71.84,132,70.93,137.2Zm-38.63,130c3.34-5.4,6.27-10.29,12.53-11.52,1.49-.29,1-1.43.61-2.36-1.73-4.13-3.47-8.27-5.23-12.39C39,238,38.94,238,35.87,238.83c-8.84,2.28-17.67,4.62-26.52,6.85-2.54.64-5.16,1-7.81,1.45a5.86,5.86,0,0,0,5.21,4.23,38,38,0,0,1,22,11.9C29.83,264.44,30.91,265.68,32.3,267.22ZM174.89,120.78c-2-4.85-3.95-9.43-5.92-14-1.4-3.22-1.46-3.27-4.82-2.35-6.58,1.78-13.1,3.75-19.7,5.43-4.56,1.15-9.21,1.94-13.89,2.9.93,2.43,2.16,3.83,4.72,4.14,8.07,1,14.75,4.82,20.51,10.42,1.74,1.69,3.53,3.34,5.45,5.16C164.17,126.72,168.05,122.13,174.89,120.78ZM29.67,209c6.79-7.94,15.88-9.84,25.41-11.39-2.95-6-7.08-9.91-13.15-11.1a30.11,30.11,0,0,1-10-4.11,7.23,7.23,0,0,0-3.61-1.37,90.14,90.14,0,0,0-17,2.27C21.41,192.09,21.7,192.49,29.67,209ZM401.6,42.63c7.79,5.86,13.18,12.47,16.57,20.65,2.06,5,2.23,5.13,6.55,1.58a25.49,25.49,0,0,1,13.37-6,53.06,53.06,0,0,0,6.32-1.35c1.14-.28,1.69-.88.82-2.11-3.06-4.35-6.87-7.86-12.14-8.95a31.89,31.89,0,0,1-11.28-4.94,6.78,6.78,0,0,0-4.14-1C412.6,41,407.57,41.81,401.6,42.63ZM317.84,191.51c-3.53-5.74-7.89-9.41-14-11.15-3.29-.93-6.38-2.6-9.55-4-1-.45-2.09-1.42-3.1-1.38a84.31,84.31,0,0,0-17.08,2.32c10.34,9.14,11.34,10.4,16.82,23,.92,2.11,1.86,2.12,3.23.8,5.63-5.41,12.58-7.77,20.12-8.8C315.25,192.18,316.2,191.89,317.84,191.51ZM157.39,74.23c2.22-1.6,4.09-2.71,5.69-4.13a21.1,21.1,0,0,1,11.16-5c2.29-.35,4.56-.85,6.83-1.35,1.58-.35,2.38-1,1.15-2.72-3-4.16-6.67-7.59-11.8-8.61a31.25,31.25,0,0,1-11.3-4.92,5.27,5.27,0,0,0-3.14-1c-5.46.54-10.9,1.29-17.27,2.07A47,47,0,0,1,157.39,74.23ZM300.16,96.3c2.4-3,4.53-5.27,6.28-7.84,2.28-3.35,5.34-4.23,9.08-3.56,1,.17,1.87.47,3,.77.24-3.34-.11-6.64.81-9.55,1.38-4.38.47-6.93-3.79-8.84-2.09-.94-3.74-2.41-6.34-1.94-4.4.79-8.84,1.37-13.29,1.81-1.95.19-2.54,1-2.59,2.82-.2,6.53.29,13,2.68,19.09C297,91.46,298.58,93.59,300.16,96.3Zm58,161a8,8,0,0,0,7.5-3.35c3.42-4.29,7.08-8.39,10.61-12.61,3.78-4.53,3.69-4.53,2.68-10.26-.3-1.74-1.12-2.27-2.69-2-11.28,1.63-23.08,1.49-32.53,9.82,1.61,3.28,4.36,5.27,8.14,6.29,4.75,1.29,7,4.82,6.64,9.71C358.48,255.64,358.31,256.41,358.18,257.3ZM37.74,101.83C40,99,42.26,96.39,44.4,93.67a7.06,7.06,0,0,1,6.45-3c1.59.13,3.86,1,4.57.26.91-.92.54-3.09.76-4.71a16.22,16.22,0,0,1,.63-3.92c1.81-4.47.29-7-3.88-9.3-2.37-1.28-4.24-1.93-6.88-1.44-4.06.75-8.2,1.1-12.32,1.5-1.93.19-3.09.79-3,3,.23,4,0,8,.56,11.91C32.09,93,33.41,98,37.74,101.83Zm397.8,122.78c2.27-2.85,4.44-5.57,6.6-8.31a7.39,7.39,0,0,1,6.49-3.05c1.57.08,3.88.79,4.53.06.88-1,.53-3.12.66-4.77.08-1-.21-2.13.17-3,2.47-5.42-.47-8.25-4.88-10.29a9.78,9.78,0,0,0-4.61-1.13c-4.3.33-8.59,1-12.86,1.64-3.3.52-3.5.62-3.37,4.08a93.49,93.49,0,0,0,1.24,13.39C430.3,217.47,431.8,221.58,435.54,224.61ZM117.41,105.35c.32,6.3.6,12.1,1,17.9a7,7,0,0,0,.7,2.85c1.83,3.36,3.67,6.73,5.77,9.92a4.64,4.64,0,0,0,3.16,1.83c9.18.51,16-3.6,20.91-11.15.85-1.3.53-2-.67-2.79a26.66,26.66,0,0,0-13-4.62,5.22,5.22,0,0,1-4.75-2.9C127.61,111.16,122.83,108.2,117.41,105.35ZM172.3,231c2.37-3,4.4-5.35,6.3-7.86,2.44-3.22,5.36-4.9,9.47-3.42,2.43.87,2.69-.57,2.87-2.5a102.55,102.55,0,0,1,1.41-10.33c.28-1.37.25-2.14-1.07-2.78a13,13,0,0,1-3.37-2.11c-2.14-2.1-4.61-2.3-7.37-1.87-3.77.6-7.54,1.27-11.34,1.53-2.87.18-3.67,1.73-3.66,4.13,0,6.33.41,12.64,2.87,18.57A57,57,0,0,0,172.3,231Zm52.12-102.35c2.8.64,4.77-.23,6.54-2.44,3.54-4.41,7.32-8.63,11-12.94s3.7-4.44,3-10.21c-.21-1.78-.51-2.69-2.7-2.3-4.9.87-9.83,1.91-14.78,2-6.24.14-11,3.43-16,6.26-1.51.85-1.72,1.76-.63,3.15a13.79,13.79,0,0,0,7.44,4.7,8.4,8.4,0,0,1,6.49,8.33A29.41,29.41,0,0,1,224.42,128.64ZM251.47,234c.4,5.52.71,10.61,1.15,15.69a17.21,17.21,0,0,0,1,5.77c1.45,3.15,3.46,6,5.11,9.11a3.92,3.92,0,0,0,4.07,2.19c8.6-.4,15.14-4.34,19.91-11.42,1-1.52.47-2.29-.9-3.12a27.07,27.07,0,0,0-11.55-4.32,7.76,7.76,0,0,1-6.73-4.17C261,239.09,256.57,236.42,251.47,234ZM96.07,263.54c4.52-1,4.53-1,7.12-4,3.57-4.18,6.91-8.58,10.75-12.49,2.85-2.9,3.16-5.87,2.3-9.54-.44-1.84-1-2.62-2.92-2.35-2.8.39-5.61.74-8.42,1-7.87.78-15.38,2.51-22,7.29-1.51,1.1-2.17,1.72-.69,3.36a11.9,11.9,0,0,0,7.11,4.26,7.73,7.73,0,0,1,6.28,5.75C96.26,258.79,96,261.05,96.07,263.54Zm284-164.11c.37,6.52.68,12.47,1.08,18.41a7.1,7.1,0,0,0,.87,2.79c1.66,3.06,3.48,6,5.13,9.1a4,4,0,0,0,4,2.33c8.65-.06,15.23-3.79,20-11,1.2-1.79.53-2.62-1-3.5a30.57,30.57,0,0,0-13.06-4.45c-1.63-.13-2.8-.52-3.61-2.06C390.71,105.73,386,102.5,380.11,99.43ZM456.83,37l15,23.9C475.72,57.3,479.41,54,483,50.57a4.4,4.4,0,0,0,1.35-3c-.51-7.71-1.21-15.41-1.92-23.93A47.43,47.43,0,0,1,456.83,37ZM353.73,158.67c-7.35,7-15.73,10.74-25.17,12.68l15.05,24.21c3.27-3.18,6-6.36,9.28-8.86,2.64-2,3.27-4.28,3-7.31-.5-5.13-.77-10.28-1.22-15.41C354.52,162.39,354.12,160.82,353.73,158.67Zm111,13.35c3-6.57,6.22-12.61,8.52-19,1.55-4.3,1.83-9.06,2.61-13.63.29-1.7-.47-2.48-2.27-2.13-6,1.18-12,2.41-18.09,3.46-2,.35-2.67,1.48-3,3.3a22.92,22.92,0,0,0,3.76,17.09C458.76,164.81,461.71,168.16,464.73,172ZM80.91,201.46C84.47,198.09,87.69,195,91,192c1.23-1.12,2.59-2,2.41-4-.7-7.53-1.32-15.08-2-23.51-7.22,7.31-15.7,11-25.29,13ZM219.63,30.6c-.22,0-.44,0-.54,0-6.71,5.9-14.1,10.44-23.17,11.71-2,.28-1.15,1.47-.53,2.48q5.93,9.51,11.85,19c.66,1.06,1.44,2,2.06,2.9,3.62-3.35,7-6.54,10.45-9.63a4.69,4.69,0,0,0,1.85-4.31C220.87,45.42,220.27,38,219.63,30.6ZM340.76,8.23c-7,1.33-13.48,2.65-20,3.78-2,.34-2.56,1.19-3,3.14-1.39,6.66.39,12.53,4.08,17.9,2.33,3.39,5.07,6.5,7.94,10.14C335,31.91,341.33,21.49,340.76,8.23Zm-273.52,41c5-11.69,11.89-22,10.52-35C70.9,15.55,64.38,16.8,57.86,18c-1.35.26-2.56.43-2.75,2.24-.69,6.47,0,12.65,3.87,18.09C61.47,41.85,64.16,45.22,67.24,49.27Zm145.49,93.86c-6.83,1.3-13.33,2.58-19.85,3.77-1.65.3-2.62.84-2.82,2.77-.64,6.14,0,12,3.57,17.18,2.52,3.63,5.34,7.05,8.38,11C206.89,166.44,213.79,156.18,212.73,143.13Zm73.21,112c-.36.19-.54.23-.63.34a7.78,7.78,0,0,0-.88,1.19c-3.67,6.88-9.78,10.14-17.15,11.53-2.41.45-5.67.11-7,1.55-1.58,1.68-1.5,4.93-2.13,7.49-.08.32-.12.66-.17,1-.36,2.47-.3,2.46,2.19,2.26,7.78-.62,15.56-1.35,23.35-1.69,6.2-.27,6.2,0,7.54-5.91a11,11,0,0,1,.94-3.34c3.12-5.11.75-8.67-3.12-11.89C287.84,256.81,286.86,255.94,285.94,255.14ZM386.15,145.81c1.43,0,2.57.05,3.7,0,8.95-.53,17.9-1.12,26.86-1.61a2.16,2.16,0,0,0,2.31-2,58.66,58.66,0,0,1,2.43-9.15c1.18-2.86.93-5-1.3-7.08-1.23-1.13-2.3-2.42-3.55-3.51-2.22-1.94-2.36-2-4,.61-4.1,6.56-10.27,9.73-17.64,11-2.1.36-5-.11-6.14,1.1-1.38,1.45-1.32,4.29-1.85,6.54C386.69,142.92,386.48,144.19,386.15,145.81ZM151.55,126.3c-3.73,8.09-10,12-17.91,13.62-2.54.51-6,0-7.43,1.5-1.67,1.79-1.56,5.24-2.2,8-.17.72-.26,1.46-.38,2.17a6.07,6.07,0,0,0,1.28.29c9.77-.6,19.54-1.23,29.31-1.78,1.54-.09,1.92-1,2.2-2.2.49-2.1.51-4.46,1.53-6.26,3.33-5.81.56-9.59-3.77-13.05C153.42,128,152.69,127.29,151.55,126.3Zm70.33-96.2c.39,6.29.73,11.74,1.06,17.19.11,1.66.14,3.33.35,5a5.21,5.21,0,0,0,.81,2.27,14.06,14.06,0,0,0,19.41,3.53c4-2.64,4-2.67,2.29-7.19-1.29-3.33-2.18-6.65-5.19-9.35C235.27,36.76,228.83,34.14,221.88,30.1ZM93.67,164.86c.5,7.84.94,15.09,1.45,22.34A3.81,3.81,0,0,0,96,189c5.23,7.07,16,7.84,21.92,1.56.42-.44,1-1.25.87-1.63-1.5-3.81-2.38-8.2-4.88-11.22C108.81,171.58,101.5,168.45,93.67,164.86ZM248.24,18.31C240.92,14.07,234,10.06,227.11,6.1c-.51-.29-1.54-.58-1.74-.35-2.16,2.46-5.21,4.66-5,8.27.22,4.45,1.15,8.87,1.77,13.31l10.16,6.15c.14.09.3.16.43.26,1.5,1.19,2.64.71,3.74-.68C240.16,28.36,243.92,23.7,248.24,18.31ZM354.75,144.24c1.14,12.47,1.14,12.47,12.08,17.76a3.17,3.17,0,0,1,.45.23c1.57,1.24,2.68.56,3.74-.79,3.19-4,6.46-8,9.62-12.06,1.77-2.26,1.76-2.41-.92-4.06-4.93-3-9.89-6-15-8.84-1.72-.95-3.38-3.54-5.65-1.73a15.18,15.18,0,0,0-3.8,5.15C354.68,141.13,354.9,142.78,354.75,144.24Zm1.69,14.51c.33,7.15.52,13.43,1,19.7a9.41,9.41,0,0,0,1.63,5,14.22,14.22,0,0,0,21.52.95,3.23,3.23,0,0,0,.61-2.51,23.5,23.5,0,0,0-11.44-16C365.61,163.45,361.29,161.34,356.44,158.75ZM29.87,177.94c.63-.5,1.54-.88,1.85-1.54a81.62,81.62,0,0,0,4.05-9.5c1.16-3.62,1.64-7.45,2.76-11.09.51-1.7.32-2.33-1.35-2.88-3.94-1.3-7.87-2.67-11.71-4.24a3.4,3.4,0,0,0-4.38,1c-2.77,3.1-5.52,6.23-8.47,9.16-1.47,1.45-1.19,2.32.15,3.55,5.28,4.83,10.48,9.73,15.73,14.59A11.23,11.23,0,0,0,29.87,177.94Zm62.38-30.85c.45,5.38.64,9.2,1.19,13a4.87,4.87,0,0,0,2.06,3c2.94,1.87,6.11,3.39,9.12,5.15a2.29,2.29,0,0,0,3.42-.62q5.29-6.64,10.67-13.21c.82-1,.68-1.75-.41-2.4-6.44-3.82-12.86-7.66-19.32-11.44-.49-.29-1.52-.46-1.81-.18C94.78,142.7,92.49,145.11,92.25,147.09ZM430,13.63a8,8,0,0,0-1.75-1.17c-4-1.5-8.19-2.8-12.19-4.43-1.8-.74-2.8-.11-3.88,1.07-2.72,2.93-5.36,6-8.22,8.74-1.69,1.65-1.83,2.72,0,4.39,4.83,4.34,9.51,8.84,14.2,13.33,2.33,2.23,3.47,2.44,4.91-.32A60.77,60.77,0,0,0,426.8,25c1-3.32,1.79-6.72,2.68-10.08A12.07,12.07,0,0,1,430,13.63ZM377.26,61.72c3.18.16,3.54-.2,2.68-3.26q-2-7.18-4.25-14.29a8.65,8.65,0,0,0-1.85-3.43c-4.1-4.17-8.46-7.91-14.89-7.64a16.29,16.29,0,0,1-3.44-.48c-1.56-.27-2.19.18-1.75,1.86.88,3.37,1.61,6.78,2.48,10.14C359,55.21,366.3,61.15,377.26,61.72ZM361.18,209.28c2.38,1.59,4.51,2.9,6.5,4.38,3.37,2.49,4.84,6.24,6.41,9.93,1.46,3.42,5.13,3.74,7.24.63,2-2.89,3.8-5.87,5.55-8.89a5.43,5.43,0,0,0,.92-3.23c-.95-5.9-2-11.78-3.21-17.64-.36-1.8-1.47-1.3-2.56-.49-2.95,2.18-5.93,4.32-8.88,6.48C369.16,203.38,365.19,206.32,361.18,209.28Zm-203-165.9c.89-.75,1.93-1.24,2.31-2a60.69,60.69,0,0,0,3.33-8.22c1.24-4.11,2-8.37,3.28-12.46.5-1.57-.33-1.68-1.17-2-4-1.49-8.14-2.85-12.14-4.44A3.73,3.73,0,0,0,149,15.48c-2.37,2.77-4.92,5.4-7.37,8.1-2.21,2.44-2.29,2.56,0,4.74,4.9,4.72,9.89,9.34,14.87,14A11.24,11.24,0,0,0,158.19,43.38ZM420.33,172.84c5.53,0,10.79.12,16-.12.9,0,2-1.49,2.55-2.53,2.9-5.57,5.64-11.23,8.46-16.85,1.15-2.29,1.06-2.62-1.62-3.07-6-1-12.08-1.88-18.12-2.88-1.75-.29-2.44.27-2.34,2.05C425.77,157.57,423.76,165.2,420.33,172.84ZM250,63.71c-4.68,3.43-8.44,6.17-12.18,8.93s-7.29,5.43-11.52,8.58c7.33,2.82,11.3,7.63,13.56,14.13,1.17,3.37,4.7,3.74,6.7.82,2.16-3.16,4.16-6.42,6.08-9.73a5.42,5.42,0,0,0,.73-3.27C252.42,77,251.27,70.77,250,63.71ZM95.39,39.07c-.94-.13-1.27-.19-1.6-.22-3-.29-3.27-.09-2.51,2.85,1.16,4.5,2.34,9,3.92,13.37,2.63,7.26,13.12,13.46,20.84,12.67,1.57-.16,2-.83,1.58-2.3-1.63-5.4-3.21-10.81-4.87-16.21a5,5,0,0,0-1.15-2.16c-4.08-3.87-8-8-14.34-7.87A13.29,13.29,0,0,1,95.39,39.07Zm190.22,5.1c5.36,0,10.31,0,15.26,0a3,3,0,0,0,3-2.13c3.12-6.57,6.29-13.1,9.52-19.79a6.91,6.91,0,0,0-1.68-.74c-6.37-1-12.76-1.87-19.13-2.88-2-.32-2.28.75-2.21,2.26A46.57,46.57,0,0,1,285.61,44.17Zm169.72,165c0,7.32,2,8.69,7.76,6.79,3.15-1,6.27-2.15,9.43-3.12,2-.63,3.39-1.42,3.69-3.95.49-4.09,1.6-8.11,2.37-12.17a5.3,5.3,0,0,0-5.85-6.47c-1.48.13-2.94.51-4.42.69-4.47.55-7.57,3-9.77,6.83A25,25,0,0,0,455.33,209.21ZM23.12,50.78c5.38-.25,10.52-.4,15.63-.81a3.85,3.85,0,0,0,2.41-2C44.2,42,47,36,50.08,30.09c1-2,0-2.24-1.49-2.49-4.75-.79-9.48-1.66-14.24-2.38-1.94-.29-4.55-1.06-5.71-.15s-.5,3.63-.69,5.56a40,40,0,0,1-.71,5.93C26.08,41,24.68,45.45,23.12,50.78ZM98.18,215.57a20.14,20.14,0,0,1,13.24,13.7c.41,1.31.7,2.94,2.77,3s3.49-.22,4.57-2.14c1.63-2.88,3.53-5.61,5.2-8.47a6.29,6.29,0,0,0,1.13-3.19,64.73,64.73,0,0,0-3.91-19.77Zm203.49-67.4a4.84,4.84,0,0,0-1.21-.91c-4.35-1.6-8.75-3.09-13.08-4.73-1.55-.59-2.52,0-3.48,1-2.79,3.07-5.51,6.21-8.42,9.16-1.4,1.41-1.35,2.29,0,3.6,5.21,4.86,10.34,9.8,15.47,14.75,1.17,1.13,2.29.81,2.9-.27a41.71,41.71,0,0,0,3.86-7.92c1.05-3.29,1.39-6.81,2.19-10.19A36.23,36.23,0,0,1,301.67,148.17Zm162.77,114c-16.15-7.84-17.29-7.94-31.92-3.1a4.84,4.84,0,0,0-1,.27,12.94,12.94,0,0,0-2.93,1.8c-2.43,2.43-4.72,5-7.44,7.91,3,1.1,5.7,1.86,8.2,3,5.72,2.69,11.17,3.53,16.55-.9,1.63-1.33,3.82-2,5.77-2.91C455.72,266.33,459.73,264.41,464.44,262.16ZM185.7,156.66c-1.81-.33-3.4-.65-5-.91-4.89-.81-9.78-1.65-14.7-2.34-1.34-.19-3.15-.66-3.07,1.87A49.13,49.13,0,0,1,158.61,177c-.65,1.47-.32,2.2,1.33,2.15,4.47-.11,8.95-.29,13.43-.34,1.69,0,2.17-1.12,2.76-2.37C179.19,170,182.32,163.64,185.7,156.66Zm67.17,39.18c-1.71-5.69-3-11.19-5-16.41-2.41-6.23-7-10.26-13.87-11.28-1.63-.24-3.28-.42-4.91-.64-3.12-.42-3.52-.07-2.79,3.18s1.7,6.39,2.61,9.57C232,191.13,240.67,197,252.87,195.84Zm67.52-113.7c-.17,5.06,2,6.91,6.67,5.53q5.73-1.68,11.29-3.87a4.51,4.51,0,0,0,2.51-2.56c1.16-4.66,2.1-9.39,2.91-14.12.5-2.91-2.38-5.71-5.37-5.46-1.49.12-3,.37-4.44.56-4.63.57-7.86,3.06-10.22,7S320.83,77.67,320.39,82.14Zm-161.71,193c5.08,1.83,9.61,3.32,14,5.09a6,6,0,0,0,5.63-.48c3.77-2.1,7.65-4,11.52-5.93,3.67-1.83,7.36-3.61,11.87-5.82-5-2.18-9.3-3.89-13.43-5.84a7.63,7.63,0,0,0-5.75-.51c-4.31,1.25-8.67,2.31-13,3.56a7.2,7.2,0,0,0-3,1.63C164,269.37,161.58,272.06,158.68,275.13ZM193,215.67c0,.93,0,1.27,0,1.6,0,5.2,1.67,6.42,6.75,4.84,3.49-1.09,6.94-2.29,10.42-3.42a3.87,3.87,0,0,0,3.09-3.37c.7-4.42,1.8-8.78,2.57-13.2a5.6,5.6,0,0,0-4.07-5.93c-5.05-1.11-12.39,2.15-15.09,6.81C194.26,207.09,192.66,211.43,193,215.67ZM24.59,146.48c2.88,1.05,5.2,1.57,7.21,2.68,6.14,3.37,11.66,2.88,17.62-1,5.36-3.46,11.43-5.82,18-9.05-3.62-1.49-6.64-2.41-9.34-3.91a16.69,16.69,0,0,0-14.38-1.06,21.8,21.8,0,0,1-3.85,1.07C32.93,136.23,29,141.14,24.59,146.48ZM58.05,87.7c0,6,1.67,7.33,7.21,5.58,3.49-1.1,6.93-2.36,10.43-3.41a3.61,3.61,0,0,0,2.77-3.12C79.29,82.17,80.29,77.62,81,73c.47-3.3-2.42-5.76-5.82-5.3-1.31.17-2.64.25-3.95.47a12.62,12.62,0,0,0-9.79,6.87A25.3,25.3,0,0,0,58.05,87.7Zm236.47,5.54.87-.81c-4-6.87-5.16-14.29-4.65-22.05a5,5,0,0,0-.09-2c-.19-.51-.81-1.26-1.22-1.24a84.44,84.44,0,0,0-11.82.85c-3.54.67-6.89,2.31-10.38,3.31-1.66.48-2.13,1-1.55,2.76a18.25,18.25,0,0,0,9.74,10.84C281.65,88,288.14,90.49,294.52,93.24Zm35.38,39.88c-3.44-1.32-6.44-2-8.93-3.53-5.32-3.26-10.64-3-16.19-1a18.74,18.74,0,0,1-3.33,1c-6.73,1-10.34,5.95-14.38,10.91,5,1.78,9.65,3.44,14.31,5.13a5.45,5.45,0,0,0,4.74-.39C313.76,141.24,321.48,137.39,329.9,133.12ZM166.9,228a51.64,51.64,0,0,1-4-23,6.29,6.29,0,0,0,0-2c-.14-.52-.71-1.36-1-1.33a101.22,101.22,0,0,0-12.33,1.11c-3.56.67-6.94,2.23-10.45,3.21-1.49.41-1.79.9-1.35,2.41,1.55,5.38,5.29,8.89,10,11.2C154,222.7,160.51,225.24,166.9,228ZM32.34,98.84c-1.22-3.87-2.72-7.35-3.36-11a103.45,103.45,0,0,1-.9-12.35c-.06-1.22,0-2.5-1.64-2.45-3.64.11-7.36-.07-10.88.65-3.85.78-7.5,2.5-11.28,3.67-1.79.56-1.74,1.48-1.25,3,1.5,4.54,4.78,7.5,8.65,9.88C18.05,94.15,25.1,96.43,32.34,98.84Zm345.11-5.39c2.38-3.77,4.42-6.8,6.24-10a6.26,6.26,0,0,0,.88-3.73c-.78-4.92-1.8-9.81-2.85-14.68-.14-.64-1.06-1.71-1.4-1.63-5.26,1.24-10-.93-15.19-2.3-.46,4.82-3.36,7.83-7.25,10.54C366.91,76.78,372.66,84.21,377.45,93.45Zm-19,114.91c.55-.35,1.24-.76,1.89-1.22l20.73-14.69c.53-.38,1.42-.79,1.46-1.25.14-1.39.4-3.1-.25-4.17-1-1.62-1.93.22-2.7.76-5.87,4.09-11.75,4-17.68.22a22.05,22.05,0,0,1-2.85-2c-1-.89-1.71-.6-2.55.18q-5.07,4.76-10.21,9.46c-1.43,1.31-1.35,2.64,0,3.77,3.46,2.83,7,5.55,10.51,8.28A7.64,7.64,0,0,0,358.46,208.36Zm-111-150.5-2.73,1.84c-5.21,3.54-10.53,3.52-15.95.52-1.86-1-3.87-3.11-5.51-2.84-2,.32-3.75,2.52-5.46,4.08-2.07,1.89-4,4-6,5.95-1.25,1.21-1.12,2.39,0,3.4,3.12,2.71,6.3,5.34,9.5,8,1.64,1.34,3.15,1.09,4.89-.2,6.55-4.83,13.21-9.51,19.81-14.26C249.05,62.19,249,62.16,247.49,57.86ZM46.92,69.07c-2.25-5.16-4.16-9.72-6.26-14.18a3.5,3.5,0,0,0-2.43-1.82c-5.65,0-11.31.19-17,.33-1.91.05-3.08.8-3.29,2.91-.32,3.3-1,6.58-1.22,9.88-.25,4.14.16,4.6,4.5,4.41C29.87,70.22,38.48,69.58,46.92,69.07Zm383.3,152.54c-3.85-8.19-6-16.06-4.64-24.54.07-.41-.71-1.36-1.05-1.34a88.72,88.72,0,0,0-12.33.94c-3.53.66-6.86,2.36-10.35,3.36-1.52.44-1.84,1-1.41,2.43a17.75,17.75,0,0,0,7.81,10C414.84,216.62,422.14,219.14,430.22,221.61Zm-121-159c-2.09-4.75-4.11-9.41-6.22-14-.29-.63-1-1.52-1.55-1.5q-9.21.21-18.4.77a2.72,2.72,0,0,0-2,1.67c-.73,3.9-1.28,7.84-1.75,11.78-.27,2.24.77,3.25,3.17,3.32C291.6,65,300.59,63.76,309.2,62.65ZM119.4,192.21c-1.1.81-1.89,1.4-2.7,2-4.82,3.33-9.82,3.67-15,.9a28.07,28.07,0,0,1-4.27-2.53c-1.37-1.07-2.39-1.42-3.8,0-3.31,3.25-6.7,6.41-10.14,9.52-1.43,1.28-.95,2.26.18,3.23,2.75,2.38,5.52,4.73,8.3,7.08,2.35,2,4.46,2,7,0,6.06-4.64,12.33-9,18.58-13.38C121.25,196.38,121.2,196.55,119.4,192.21ZM161,199.12l0,.14c6.29-.53,12.59-1,18.87-1.61,2-.19,2-.61,1.05-2.47-1.91-3.66-3.83-7.34-5.4-11.15-.73-1.78-1.42-2.78-3.48-2.66-5.48.33-11,.46-16.44.81-.81,0-2.15.74-2.26,1.32-.82,4.24-1.5,8.51-2,12.79-.23,2,1,3,3.13,2.86S158.87,199.12,161,199.12Zm284.36-7.38c-3.94-4.93-6.6-9.27-7.53-14.43-.31-1.74-1.38-2.05-2.88-1.92-2.81.23-5.62.42-8.43.65-3.43.26-6.85.55-10.28.82-.67,3.58-1.35,7.16-2,10.74a9.18,9.18,0,0,0-.08,1.49c-.05,3.7.21,4.17,3.84,4C426.79,192.79,435.55,192.25,445.39,191.74ZM494,138.16c-.84-3.71-1.65-7.42-2.54-11.12-.38-1.54-1.43-2-3-1.76-4.32.6-10.43,6.92-10.89,11.45-.33,3.3-.57,6.61-.89,9.91-.26,2.56-1.64,5.78-.58,7.49s4.57,2.28,7,3.32c.31.13.66.37.93.31.88-.2,2.11-.26,2.52-.85C490.5,151.31,494.11,145.53,494,138.16ZM96.64,15.82C95.77,12,95,8.1,94,4.29c-.2-.74-1.38-1.9-1.83-1.78-2.19.55-5,.89-6.28,2.39-3.07,3.5-6.66,7-5.94,12.52.29,2.21-.53,4.57-.91,6.86-1.28,7.63-1.3,7.63,6.06,10.2.32.11.65.39.92.34,1-.22,2.47-.21,3-.87C92.84,28.57,97,23.24,96.64,15.82ZM440.37,175.31c2.1,8.89,6.27,15.89,14.06,20.47,1.34.79,2.21.85,3.25-.61a14.52,14.52,0,0,1,12.17-6.6,15.07,15.07,0,0,0,2.93-.64c-2.72-3.88-5.19-7.56-7.87-11.09a4.19,4.19,0,0,0-2.89-1.46C454.92,175.25,447.81,175.31,440.37,175.31ZM231.26,144.42c-.56-2.91-1-5.86-1.74-8.73-.39-1.52-1.25-4.07-2-4.12-2-.14-4.1.81-6.1,1.47-.55.19-.95.91-1.36,1.43-2.9,3.62-5.91,7.11-5.19,12.37.26,1.89-.5,3.92-.76,5.89-.33,2.53-1.71,5.78-.64,7.43,1.18,1.83,4.61,2.2,7.06,3.21.15.06.29.15.44.22a2.11,2.11,0,0,0,3-.88C227.67,157.19,231.37,151.65,231.26,144.42Zm176.38-43.1c6.49-1.93,11.65-3.83,17-4.94,6.13-1.29,10.3-4.88,13.93-9.62,1.18-1.54.88-2.17-.54-3q-8.11-4.91-16.16-9.91c-1.42-.89-2.15-.52-2.55.92C416.75,83.75,412.79,92.15,407.64,101.32ZM210,193.86c-2.75-3.93-5.06-7.37-7.54-10.68a4.26,4.26,0,0,0-2.69-1.76c-6.63-.19-13.28-.14-19.92-.19-1.63,0-2,.85-1.59,2.24,2.31,7.77,6.64,14,13.66,18.3,1.51.92,2.25.43,3.2-.84,2.94-3.89,6.69-6.37,11.81-6.32A14.59,14.59,0,0,0,210,193.86ZM280,235a27.82,27.82,0,0,0,3.41-.46c4.46-1.25,8.85-2.83,13.37-3.79,5.91-1.24,9.93-4.78,13.36-9.43,1.09-1.48.89-2.25-.53-3.13-5.21-3.22-10.45-6.41-15.58-9.75-1.9-1.24-2.35-.57-3,1.25q-3.25,8.84-6.89,17.53C283,229.77,281.52,232.1,280,235ZM338,59.21c-2.71-3.83-5.22-7.47-7.87-11a3.67,3.67,0,0,0-2.42-1.36c-6.78-.21-13.57-.29-20.36-.38-1.24,0-1.85.55-1.49,1.86,2.29,8.16,6.71,14.69,14.21,19,1.45.83,1.94,0,2.83-.83,2-1.91,4-4.11,6.42-5.29S334.69,59.89,338,59.21ZM146,107.07c6.17-1.85,12.31-3.78,18.51-5.5,3.66-1,6.69-2.72,8.8-6a13,13,0,0,1,2.23-2.68c1.72-1.55.88-2.39-.65-3.32-5.1-3.1-10.22-6.2-15.23-9.45-1.87-1.22-2.47-.71-3,1.2A139.44,139.44,0,0,1,146,107.07ZM17.31,241.53c6.22-1.81,11.53-3.72,17-4.87,6.74-1.42,10.72-5.82,14.33-11.43l-19.19-11.9c-1.79,4.92-3.23,9.5-5.12,13.9C22.37,231.78,20,236.16,17.31,241.53ZM381.75,4.19c-.25-.14-.55-.45-.74-.39-6,1.88-12,3.84-18,5.69-1.95.6-2.54,2-2.65,3.74a22.45,22.45,0,0,1-3.68,10.68c-.79,1.26-1.33,2.67-2,4s-.75,2.15,1,2.4c3,.43,5.88,1.12,8.83,1.28a4.77,4.77,0,0,0,3.2-1.79c2.25-2.65,4-5.7,6.39-8.24C378.65,16.59,380.9,10.73,381.75,4.19ZM75.54,65.48c-2.85-4-5.44-7.85-8.2-11.53a3.69,3.69,0,0,0-2.59-1.09c-6.48-.08-13,0-19.45-.06-1.75,0-2.52.6-1.91,2.36,2.53,7.26,6.42,13.46,13.19,17.56,1.69,1,2.72,1.15,4-.67A14.29,14.29,0,0,1,73,65.75,21.26,21.26,0,0,0,75.54,65.48ZM119.09,9.36c-6.63,2.18-12.7,4.2-18.8,6.16-1.7.54-2.19,1.68-2.31,3.35a21.21,21.21,0,0,1-3.65,10.69c-1,1.5-1.69,3.24-2.61,4.81-.79,1.34-.06,1.83,1,2,2.63.4,5.32.47,7.88,1.1,2.17.53,3.38-.14,4.6-1.83,2.71-3.77,5.38-7.6,8.44-11.09C117.44,20.27,117.9,15.08,119.09,9.36ZM369.3,31.87c4.61,1.1,8.6,2,12.55,3a5.37,5.37,0,0,0,6.1-2.13c2.48-3.12,5.13-6.09,7.67-9.16,3.26-4,2.72-3.14-.07-6.39-2.91-3.4-5.77-6.85-8.67-10.26-.69-.8-1.46-1.54-2.67-2.82A28.76,28.76,0,0,1,376,23.5C373.71,25.87,371.85,28.64,369.3,31.87ZM122,10.64c-.42,1.88-.8,3.27-1,4.69a21,21,0,0,1-5.42,11.44c-2.72,2.89-5,6.14-7.58,9.21-1,1.26-.8,2.05.76,2.41,3.87.9,7.76,1.72,11.61,2.67a3.48,3.48,0,0,0,3.92-1.26c3.4-4.06,6.87-8.08,10.35-12.09.73-.85,1.05-1.55.17-2.54C130.65,20.5,126.54,15.79,122,10.64ZM226,164.69c3.42.45,6.53.75,9.59,1.31a4.18,4.18,0,0,0,4.64-2,94.26,94.26,0,0,1,7.61-9.88c4.14-4.44,4.71-10,6.17-15.9-6.39,2.07-12.16,4.08-18,5.76a3.79,3.79,0,0,0-3.13,3.77,27.55,27.55,0,0,1-4.5,12A45,45,0,0,0,226,164.69Zm43.83-9.91c-.54-.7-1.09-1.48-1.71-2.2q-5-5.9-10.08-11.74a12.85,12.85,0,0,0-1.48-1.25,7.41,7.41,0,0,0-.6,1.75c-.66,6.77-3.94,12.21-8.47,17.08-1.7,1.82-3.13,3.89-4.69,5.84-1.14,1.42-1,2.31.93,2.74,3.74.83,7.46,1.72,11.17,2.64,1.71.42,2.84-.31,3.88-1.55,3.33-4,6.71-7.86,10.05-11.79A14.87,14.87,0,0,0,269.83,154.78Zm109.91,84.76c-3.63,4.59-6.85,8.57-10,12.63-5.26,6.86-5.23,6.89-3.69,15.34,0,.17,0,.34.05.5.61,2.95,1.19,3.38,4,2.55,4.92-1.45,9.83-3,14.72-4.55,3.25-1,3.35-1.17,1.53-4.29-3.37-5.79-6.17-11.73-6.05-18.65A23.5,23.5,0,0,0,379.74,239.54Zm-134-127.81c-4.81,6-9.14,11.19-13.31,16.56a5.8,5.8,0,0,0-1.16,3.62,77.89,77.89,0,0,0,1.26,8.85c.27,1.5,1,2.17,2.85,1.55,5.33-1.86,10.69-3.62,16.12-5.13,2.44-.68,2.38-1.6,1.26-3.39-3.73-6-6.61-12.25-6.55-19.51A15.64,15.64,0,0,0,245.75,111.73Zm-127.83,135c-1,.25-1.39.22-1.56.43-4.16,5.19-8.31,10.39-12.39,15.64a4.48,4.48,0,0,0-1.1,2.67c.24,3.3.72,6.59,1.16,9.88.2,1.51,1.17,1.89,2.52,1.47l16.67-5.15c1.67-.51,2-1.39,1.09-2.95C120.49,261.87,116.66,255.07,117.92,246.68ZM401,147.45l-6.61.64c-10.33,1-10.33,1-16.94,9-.11.13-.22.25-.32.38l-4.78,6.26c2.32,2.1,4.63,4.2,7,6.29a2.83,2.83,0,0,0,.83.54,1.42,1.42,0,0,0,.94.16c2.67-1.23,6.24-1.82,7.78-3.91C393.25,160.87,396.8,154.3,401,147.45Zm-118.47-7.06c-.14-.36-.26-.67-.39-1-1.38-3.38-2.78-6.75-4.13-10.14-.57-1.42-1.65-1.51-2.85-1.23a42.16,42.16,0,0,0-15.8,7c-1.55,1.14-1.21,2-.17,3.17q5.63,6.34,11.14,12.76c1.15,1.33,2.13,1.28,3.25,0,2.71-3.15,5.48-6.24,8.21-9.38A8.1,8.1,0,0,0,282.54,140.39ZM138.31,153.53c-2.12.25-3.24.47-4.37.5-7.76.25-14.72,2-18.79,9.54a12.4,12.4,0,0,1-1.59,1.91c-4,4.83-4,4.85.89,8.78,1.14.91,2.69,2.57,3.59,2.31,3.07-.91,6.72-1,8.7-4.2C130.48,166.32,134.18,160.25,138.31,153.53Zm128-134.88c-6,.89-11,1.58-16,2.45a4.75,4.75,0,0,0-2.3,1.73q-4.55,5.3-8.92,10.73c-.46.57-1,1.89-.77,2.08,2.44,2.2,4.76,5.33,7.64,6a8.48,8.48,0,0,0,8.29-3.5C258.23,32.1,261.89,25.78,266.28,18.65ZM49,223.8c1.81-8.21,3.51-15.88,5.26-23.81-8.28.85-16.06,2.91-22,9.47-1,1.12-1.23,1.82.1,2.73C37.86,216.05,43.42,220,49,223.8ZM312,218c1-8.82,2.05-16.79,5.94-24.33-9.54,1.1-18.19,3.11-24.25,11.44ZM183.56,65.3c-9.52,1.21-18.35,3-24.33,11.4l18.3,12.82C178.69,80.89,179.77,72.9,183.56,65.3ZM440.82,84c-.31-9.11,1.81-16.9,5.06-24.65-9.42,1.35-18.19,2.82-23.92,11.41Zm-263.2,40.51c-1,5.53-1.77,10.06-2.59,14.59-.62,3.42-1.24,6.83-2,10.23-.44,2.12.36,3,2.45,3.3,2.79.33,5.56.77,8.32,1.27,1.8.32,2.86,0,3-2.1.27-4,.78-7.9.91-11.87a7,7,0,0,0-1.27-4C183.88,132.33,181,128.89,177.62,124.54Zm273,8.28a9.35,9.35,0,0,0-1-2.21c-2.57-3.46-5.22-6.87-7.87-10.27a4.73,4.73,0,0,0-1.19-.82,5.89,5.89,0,0,0-.57,1.19c-1.54,7.64-3.05,15.29-4.6,22.92-.31,1.56-.05,2.51,1.77,2.77,3.27.46,6.52,1.11,9.78,1.64,1.41.23,2.14-.39,2.28-1.86C449.61,141.89,450.1,137.61,450.6,132.82ZM418.23,38.2c-6-5.38-11.31-10.09-16.56-14.84-1-.9-1.68-.74-2.45.18-3.48,4.17-7,8.33-10.66,12.73,3.24,1.53,6,3,8.9,4.15a6.82,6.82,0,0,0,3.39.32C406.26,40,411.65,39.18,418.23,38.2Zm-262.8,6c-6.05-5.38-11.34-10.13-16.72-14.79a2,2,0,0,0-1.94.13c-3.59,4.11-7.08,8.3-10.76,12.68,3.11,1.46,5.88,2.85,8.74,4a6.8,6.8,0,0,0,3.36.48C143.52,46,148.92,45.17,155.43,44.19Zm282.17,73.2c-4.76.72-7.51,3.45-9.79,6.82-3.73,5.49-5.24,11.77-6.58,18.14-.38,1.8.5,2.39,2.08,2.54,2,.18,4,.36,5.93.62,3.41.44,3.52.49,4.14-3C434.82,134.35,436.13,126.17,437.6,117.39ZM167.8,151.54c1.75.44,2.58,0,2.81-1.5,1.34-8.32,2.7-16.64,4-25,.21-1.35-.35-1.79-1.69-1.31A12.77,12.77,0,0,0,165.5,130a98.7,98.7,0,0,0-5.6,13.7c-2.13,6.79-1.92,6.85,5.33,7.47C166.21,151.26,167.19,151.45,167.8,151.54Zm121,21.23c-.18-.57-.19-1-.4-1.17-5-4.57-10.12-9.1-15.16-13.68-1.11-1-1.69-.39-2.4.45-3.42,4-6.87,8.07-10.46,12.29,2.75,1.21,5.28,2.48,7.91,3.44a11.28,11.28,0,0,0,4.77.79C278.27,174.34,283.49,173.5,288.76,172.77Zm11.7,107.13c1.74,0,3.77.69,4.21-2.1,1.25-8,2.56-16.07,3.88-24.1.25-1.53-.53-1.8-1.67-1.45a12.65,12.65,0,0,0-7.42,6.33,74.76,74.76,0,0,0-5.34,12.29C291.53,279,292.05,279.55,300.46,279.9ZM182.78,221.8c3.85,3.23,7.22,5.7,10.17,8.59,4.63,4.55,10.2,6.45,17.1,7-2.32-5.94-.56-11.43,1.33-17.14-3.54,1.28-6.72,2.25-9.75,3.57a10.2,10.2,0,0,1-9-.24C189.87,222.3,187,220.62,182.78,221.8Zm262.48-6.16c3.92,3.31,7.22,5.61,9.92,8.48,4.64,4.95,10.54,6.46,16.66,7.29a76.73,76.73,0,0,1,.07-8.46,84.58,84.58,0,0,1,1.83-8.66c-3.56,1.3-6.76,2.28-9.79,3.63a9.59,9.59,0,0,1-8.59-.08C452.59,216.55,449.7,215.1,445.26,215.64ZM337.6,102.82c-1.46-5.88-.63-11.17,1.61-17.16-3.22,1.12-5.74,1.8-8.08,2.86-4,1.82-7.72,2.33-11.84,0-2.2-1.24-4.9-2.51-8.06-1,3,2.57,6,4.74,8.53,7.34C324.52,99.84,330.35,102.13,337.6,102.82ZM48.26,93.37c3.68,3.07,7.22,5.79,10.49,8.81A22.55,22.55,0,0,0,70.56,108c4.3.75,4.21.93,3.74-3.19a15,15,0,0,1,.13-4.44c.54-2.88,1.32-5.71,2.06-8.81-3.4,1.23-6.7,2.24-9.84,3.61a9.57,9.57,0,0,1-8.52-.11C55.22,93.71,52.16,92.19,48.26,93.37Zm414.08,79.39-12.42-18.27c-3.51,5.71-7.91,11-9.62,18.27Zm-275.1-12.52c-2.94,5.28-6,10.52-8.77,15.86-1,2-.53,2.64,1.77,2.67,6.42.07,12.84,0,19.47,0C195.55,172.61,191.52,166.62,187.24,160.24ZM64.86,50.09,52.4,31.28c-2.95,5.38-5.95,10.65-8.75,16-1.13,2.15-.78,2.7,1.56,2.73C51.65,50.15,58.1,50.09,64.86,50.09Zm262.63-6-12.42-18.4c-3.19,6-7.7,11.33-9.65,18.4ZM108.58,40.87a14.3,14.3,0,0,0,1.56,1.23c3.51,2.12,5.18,5.37,6,9.28a69.64,69.64,0,0,0,2.28,7l15.38-10.08C125.75,43.25,117,42.69,108.58,40.87ZM268.12,176.66c-7.81-4.85-16.29-5.67-24.82-7.25,5.83,2.83,6.72,8.41,8.28,13.61a6.59,6.59,0,0,0,.81,2.32,2,2,0,0,0,1.86.49C258.84,182.89,263.35,179.84,268.12,176.66Zm103.24-142c6,3.29,7,9.29,8.7,14.89.1.32.19.64.3.95.38,1.12.95,1.69,2.16.88,4.47-3,9-5.89,13.83-9.09C388.25,37.41,379.76,36.6,371.36,34.67ZM341.72,195.74c-2.91-4.68-5.39-8.57-7.75-12.53-.84-1.39-1.67-1.79-3.16-1-4,2.17-7.33,4.91-9.44,9.34ZM207.29,67.25c-2.94-4.77-5.3-8.56-7.63-12.38-.8-1.3-1.59-1.88-3.2-1A22.16,22.16,0,0,0,187,63.27ZM79.1,201.72c-2.8-4.58-5.2-8.48-7.55-12.41a2.17,2.17,0,0,0-3.32-.91,23.54,23.54,0,0,0-9.43,9.17Z"/><path d="M0,9A27.06,27.06,0,0,0,13,0h2C13.2,4.66,9.47,7.27,5.13,9.17,3.48,9.9,1.71,10.4,0,11Z"/></g></g></svg>
