<svg xmlns="http://www.w3.org/2000/svg" viewBox="0 0 287 414.4"><defs><style>.cls-1{fill:#e31c58;}.cls-13,.cls-2,.cls-20,.cls-24{isolation:isolate;}.cls-2,.cls-9{font-size:6px;}.cls-13,.cls-19,.cls-2,.cls-24,.cls-25,.cls-9{fill:#fff;font-family:ProvidenceSansPro, Providence Sans Pro;}.cls-3{letter-spacing:0.01em;}.cls-4{letter-spacing:-0.02em;}.cls-5{letter-spacing:0.01em;}.cls-6{letter-spacing:0.03em;}.cls-7{letter-spacing:0em;}.cls-8{letter-spacing:0.02em;}.cls-10{letter-spacing:0.02em;}.cls-11{letter-spacing:-0.02em;}.cls-12{fill:none;}.cls-13,.cls-19{font-size:5px;}.cls-14{letter-spacing:0.03em;}.cls-15{letter-spacing:0.01em;}.cls-16{letter-spacing:0.01em;}.cls-17{letter-spacing:0em;}.cls-18{letter-spacing:0.01em;}.cls-21{letter-spacing:0em;}.cls-22{letter-spacing:-0.01em;}.cls-23{letter-spacing:0.03em;}.cls-24,.cls-25{font-size:4px;}</style></defs><title>Layer 1</title><g id="Layer_2" data-name="Layer 2"><g id="full-egg"><g id="marsh-warbler"><path class="cls-1" d="M112.1,251.5c.7,10.1,1.1,20.3,1.7,31-11.6,1-22.8,2.7-34,2.9-11.4.1-22.4,1.6-32.6,5.3l-3,1.2-1.5.6c-1,.4-2,.9-3,1.4h0l-3,1.5-1.5.8c-1,.6-1.9,1.2-2.9,1.8s-1.9,1.3-2.9,2c-6.8,4.9-14.5,6.4-22.8,5.5a2.92,2.92,0,0,1-.9-.2c-.1,0-.2-.1-.3-.2s-.2-.1-.3-.2a1.27,1.27,0,0,1-.4-.6,6.89,6.89,0,0,1-.3-.8,153.17,153.17,0,0,1-3.2-16.4Q.3,280.65,0,274.2a11,11,0,0,1,.2-1.8,3.58,3.58,0,0,1,.4-1.1c.1-.1.1-.2.2-.4,2.7-4.8,5.5-9.7,8.3-14.5s5.6-9.7,8.4-14.4a20.28,20.28,0,0,1,1.3-1.8c.2-.2.3-.4.5-.5a10.77,10.77,0,0,1,2.4-1.8,36.35,36.35,0,0,0,8.6-6.4c1.5-1.5,3-3.1,4.5-4.6l16-17.5c4-4.4,8-8.7,12.1-13l4.1-4.3a39.81,39.81,0,0,1,10-7.2,10.88,10.88,0,0,1,10.5,0,6.73,6.73,0,0,1,1.1.7l.5.4a17.38,17.38,0,0,1,1.5,1.3l.5.5c5.1,5.2,8.2,11.7,11.1,18.2.7,1.6,1.4,3.3,2,4.9s1.2,3.3,1.7,5l1.5,5.1a144.86,144.86,0,0,1,4.2,26.1A34.9,34.9,0,0,1,112.1,251.5Z"/><text class="cls-2" transform="translate(41.11 253.7)"><tspan class="cls-3">ma</tspan><tspan x="7.64" y="0">rsh </tspan><tspan class="cls-4" x="18.87" y="0">w</tspan><tspan class="cls-5" x="23.44" y="0">a</tspan><tspan class="cls-6" x="26.6" y="0">r</tspan><tspan class="cls-7" x="29.56" y="0">b</tspan><tspan class="cls-8" x="33.12" y="0">l</tspan><tspan x="35.12" y="0">er</tspan></text></g><g id="nightingale"><path class="cls-1" d="M111.1,293.6a14,14,0,0,1-1,1.6c-6.6,8-13.2,16.1-19.9,24a26.29,26.29,0,0,1-5.6,4.9c-8.3,5.6-12.4,13.6-15.2,22.9-3.1,10.4-6.9,20.6-10.7,31.2-.5,1.5-1.1,3-1.6,4.6-.8-.6-1.5-1.2-2.2-1.8a147,147,0,0,1-12.5-11.2c-1.3-1.3-2.5-2.6-3.8-3.9-.6-.7-1.2-1.3-1.8-2-1.2-1.3-2.4-2.7-3.5-4.1a107.69,107.69,0,0,1-6.5-8.6,27.18,27.18,0,0,1-4.4-8A53.24,53.24,0,0,1,20,320.8a6.85,6.85,0,0,1,2.7-5.1l.9-.6a4.67,4.67,0,0,1,1-.5c9-4.2,17.9-8.8,26.9-13A83.22,83.22,0,0,1,85.8,294c8-.1,16-.3,24-.5A8.47,8.47,0,0,1,111.1,293.6Z"/><text class="cls-9" transform="translate(33.77 328.47)">nigh<tspan class="cls-5" x="12.44" y="0">t</tspan><tspan x="14.95" y="0">i</tspan><tspan class="cls-5" x="17.03" y="0">nga</tspan><tspan class="cls-8" x="27.26" y="0">l</tspan><tspan x="29.27" y="0">e</tspan></text></g><g id="little-owl"><path class="cls-1" d="M107.5,407.4c-11.9-2-36-13.2-45.8-21.2,3.7-8.2,7.6-16.2,11.1-24.4.5-1.2,1-2.3,1.5-3.5,2.4-5.9,4.5-12,6.6-18.2,1.3-3.8,2.6-7.6,4-11.5,1.4,2,2.9,3.3,3.3,4.9q9.6,36,19,72.2a3.59,3.59,0,0,1,.2,1.1A2.14,2.14,0,0,0,107.5,407.4Z"/><text class="cls-9" transform="translate(77.42 371.63)"><tspan class="cls-5">l</tspan><tspan x="1.94" y="0">it</tspan><tspan class="cls-6" x="6.47" y="0">t</tspan><tspan class="cls-8" x="9.1" y="0">l</tspan><tspan x="11.11" y="0">e</tspan><tspan class="cls-8" x="2.28" y="7.2">o</tspan><tspan class="cls-4" x="5.63" y="7.2">w</tspan><tspan x="10.19" y="7.2">l</tspan></text></g><g id="sparrowhawk"><path class="cls-1" d="M186,375.6c.1,5.2-.3,10.4-.6,15.5-.1,1.5-.2,3.1-.3,4.6v.4a4.33,4.33,0,0,0-.1.5l-.1.2c0,.2-.1.4-.1.6s0,.2-.1.3c-4.1-.9-8.2-1.8-12.2-2.8-18.6-4.6-36.3-11.5-52.1-22.6-2.4-1.7-4.6-3.6-7-5.3a27.62,27.62,0,0,1-3.7-3.1,11.41,11.41,0,0,0-1.1-1.1,5.8,5.8,0,0,1-1-1.2c-.2-.2-.3-.4-.5-.6a21.22,21.22,0,0,1-2.1-3.6,4.88,4.88,0,0,1-.3-.7l-.3-.7a4.88,4.88,0,0,1-.3-.7c-.1-.3-.2-.5-.3-.8-.2-.7-.4-1.3-.6-2a2.92,2.92,0,0,1-.2-.9c0-.3-.1-.4-.1-.6a5,5,0,0,1-.2-1.2c0-.4-.2-1-.2-1.5a10,10,0,0,0-.2-1.6l-.1-.8c-.1-.9-.1-1.7-.2-2.6-.3-7.2-.1-14.4.2-21.5a4.1,4.1,0,0,1,.1-1.1c.1-.4.1-.7.2-1.1s.1-.6.2-1v-.2c.1-.3.2-.6.3-1a17.33,17.33,0,0,1,1.8-3.9c4.8-7.5,10-14.6,15.2-22,19.6,10.5,38.2,21.6,51.5,39.5C181.5,344.4,185.7,359.5,186,375.6Z"/><text class="cls-9" transform="translate(124.98 350.1)">s<tspan class="cls-5" x="2.94" y="0">pa</tspan><tspan x="9.83" y="0">rr</tspan><tspan class="cls-10" x="15.38" y="0">o</tspan><tspan class="cls-11" x="18.73" y="0">w</tspan><tspan class="cls-3" x="23.29" y="0">h</tspan><tspan x="26.77" y="0">a</tspan><tspan class="cls-4" x="29.88" y="0">w</tspan><tspan x="34.45" y="0">k</tspan></text></g><g id="curlew"><path class="cls-1" d="M212,253.2a7.79,7.79,0,0,1,1.3,4.7,18.25,18.25,0,0,1-.5,4c-2.4,10.1-3.7,20.5-5.3,30.7l-.3,1.2a4.18,4.18,0,0,1-.4,1c-.2.3-.4.5-.6.8a5.67,5.67,0,0,1-2.3,1.2c-10,3.1-20,6.2-30.5,7.2-16.2,1.5-29.8-3.4-40.8-15.6a5.55,5.55,0,0,1-.6-.8l-.1-.1c0-.1-.1-.2-.1-.3l-.1-.2,57.2-50.6c6.3,4.5,12.3,9.3,18.9,13.2a13.31,13.31,0,0,1,3,2.3A5.12,5.12,0,0,1,212,253.2Z"/><rect class="cls-12" x="165" y="271.4" width="32.1" height="15.4"/><text class="cls-2" transform="translate(171.81 275.56)"><tspan class="cls-10">cu</tspan><tspan class="cls-5" x="6.22" y="0">r</tspan><tspan class="cls-8" x="9.05" y="0">l</tspan><tspan class="cls-3" x="11.06" y="0">e</tspan><tspan x="14.36" y="0">w</tspan></text></g><g id="nightjar"><path class="cls-1" d="M287,277c-1,6.1-1.5,11.6-2.9,16.9-.6,2.2-1.1,4.4-1.7,6.6-1.8,6.6-3.8,13.2-5.9,19.7-.8,2.4-1.7,4.7-2.7,7.1-.8,1.7-1.6,3.5-2.4,5.2-.3.6-.5,1.1-.8,1.7-1,2.3-2.3,2.3-3.7.1-7-10.6-14-21.3-21-31.9l-2-3.1L243,298c-.2-.2-.3-.5-.5-.7Z"/><rect class="cls-12" x="253.4" y="298.5" width="27.4" height="15.9"/><text class="cls-2" transform="translate(253.43 302.7)">nigh<tspan class="cls-8" x="12.44" y="0">t</tspan><tspan x="15.01" y="0">j</tspan><tspan class="cls-5" x="16.94" y="0">a</tspan><tspan x="20.11" y="0">r</tspan></text></g><g id="starling"><path class="cls-1" d="M286.5,258.2a7.65,7.65,0,0,1-1.1,3.9c-6.9,9.7-16.5,15.7-27.4,20.1a117.62,117.62,0,0,1-20.2,6.1c-1.3.3-2.7.6-4,.8l-1,.2c-4.9.9-9.8,1.6-14.8,2.3h-1.4a65.25,65.25,0,0,1,0-15.3c.2-1.4.4-2.9.7-4.3a55.6,55.6,0,0,1,1.9-7c.5-1.4,1-2.8,1.6-4.2s1.3-2.9,2-4.2c7-13.1,18.3-21.6,32-27.5a103.39,103.39,0,0,1,26.2-6.9,5.7,5.7,0,0,1,1.3.1l.8,5.4c.3,1.8.5,3.6.8,5.4s.5,3.6.8,5.4.5,3.6.7,5.4c.4,2.9.6,5.9.8,8.9Z"/><rect class="cls-12" x="247.6" y="253.7" width="22" height="48.2"/><text class="cls-13" transform="translate(247.59 257.21)"><tspan class="cls-14">s</tspan><tspan class="cls-15" x="2.6" y="0">tarl</tspan><tspan x="11.31" y="0">i</tspan><tspan class="cls-16" x="13.04" y="0">n</tspan><tspan class="cls-17" x="16.07" y="0">g</tspan></text></g><g id="yellowhammehamr"><path class="cls-1" d="M280.8,215v.8c-5.6,1.4-11.2,2.7-16.7,4.3a116.53,116.53,0,0,0-28.4,12c-3.2,1.9-6,4.5-8.9,6.8-1.5,1.2-2.9,2.5-4.5,3.6-4,2.6-8.4,3.2-12.5.8A48.54,48.54,0,0,1,199,235a12.39,12.39,0,0,1-1.8-2.2,12.89,12.89,0,0,1-1.6-11.1,19.66,19.66,0,0,1,1.6-4c8-15.2,18.4-28.6,31.8-39.4,6.6-5.3,13.8-9.8,21-14.4,4.5-2.9,9.7-3.2,15-2.7a1.27,1.27,0,0,1,.6.1c.2,0,.3.1.5.1a.76.76,0,0,1,.4.2.1.1,0,0,1,.1.1.22.22,0,0,1,.2.2l.4.4c.1.1.2.3.3.4a4.18,4.18,0,0,1,.4,1c3.3,12.8,6.5,25.6,9.8,38.4C278.6,206.4,279.7,210.7,280.8,215Z"/><text class="cls-2" transform="translate(222.02 205.07)">ye<tspan class="cls-6" x="6.26" y="0">l</tspan><tspan class="cls-8" x="8.33" y="0">lo</tspan><tspan class="cls-4" x="13.68" y="0">w</tspan><tspan class="cls-5" x="18.25" y="0">h</tspan><tspan x="21.73" y="0">a</tspan><tspan class="cls-3" x="24.83" y="0">mm</tspan><tspan class="cls-7" x="33.77" y="0">er</tspan></text></g><g id="chiffchaff-word"><path class="cls-1" d="M253.5,123.5c3.6,6.7,2,13.8,2.3,20.8a10.23,10.23,0,0,1-3,7.9,16.8,16.8,0,0,1-2.1,1.8l-7.1,5.1c-7.1,5.1-14.2,10.2-21.3,15.2-.3.2-.7.3-1,.5.6-19.4-6.3-34.8-23.2-45.1a80.73,80.73,0,0,1,22.3-27.6,73.81,73.81,0,0,1,7.4-5q2.25-1.35,4.8-2.7c1.1-.6,2.2-1.1,3.3-1.6s2.3-1,3.5-1.5c2.6,5.6,5.1,11.2,7.6,16.8l2.5,5.6a6.12,6.12,0,0,1,.5,1.2A91.12,91.12,0,0,0,253.5,123.5Z"/><text class="cls-2" transform="translate(213.76 130.59) scale(1.37 1)">chiffc<tspan class="cls-18" x="15.63" y="0">h</tspan><tspan x="19.11" y="0">aff</tspan></text></g><g id="chaffinch"><path class="cls-1" d="M230.6,75.3c1.4,2.6,2.9,5.2,4.2,7.8L211.6,97c-.7-13.7-1.3-27.2-2-40.6-.2-4.5-.4-9-.6-13.4l.6-.2c2.5,3.2,4.8,6.4,7,9.7,2.8,4.1,5.5,8.3,8,12.5C226.7,68.4,228.7,71.8,230.6,75.3Z"/><text class="cls-19" transform="translate(211.79 82.76)">c<tspan class="cls-15" x="2.51" y="0">h</tspan><tspan x="5.41" y="0">affinch</tspan></text></g><g id="swift"><path class="cls-1" d="M147.8,175c0,.2.1.4.1.6l-45.7-4.5a41.17,41.17,0,0,1,1.7-15.2c2.9-10.5,9-19,16.2-26.9l2.9-3.1c1.9-2,3.8-4.1,5.8-6.1s3.9-4.1,5.9-6.2l5.2-5.4,3.9-4c-.7,2.4-1.3,4.2-1.8,6-3,9.6-5.2,19.4-5.2,29.6a59,59,0,0,0,2.2,16.7l.6,2.1c.6,1.7,1.2,3.4,1.9,5.1.3.7.6,1.3.9,2s.7,1.3,1,2a26.94,26.94,0,0,0,1.6,2.9c.6.9,1.2,1.9,1.8,2.9C147,173.9,147.4,174.4,147.8,175Z"/><text class="cls-9" transform="translate(113.5 154.52)"><tspan class="cls-6">s</tspan><tspan class="cls-4" x="3.12" y="0">w</tspan><tspan x="7.69" y="0">i</tspan><tspan class="cls-8" x="9.77" y="0">f</tspan><tspan x="12.98" y="0">t</tspan></text></g><g id="green-woodpecker"><path class="cls-1" d="M130.2,90.8c2.1,1.3,4.3,2.5,6.9,4-8.7,10.8-17,21.4-25.8,31.7-9.5,11-15.9,23.3-17.9,37.8a13.91,13.91,0,0,1-6.2,9.6c-6.7,4.8-17,5-24.1.8-11.8-7-23.7-13.8-35.6-20.6-2.3-1.3-3.4-2.6-2.6-5.2.6-2,1-4.2,1.7-6.2,2.3-6.1,4.7-12.2,7-18.4,3.6-9.7,10.8-16.5,18.7-22.5,12.3-9.3,26.4-14.6,41.1-18.7,3.4-.9,6.8-1.6,10.2-2.6a14.73,14.73,0,0,1,11.8,1.4C120.4,84.8,125.3,87.8,130.2,90.8Z"/><rect class="cls-12" x="35.2" y="116.7" width="78.6" height="32"/><g id="green_-woodpecker-word" data-name="green-woodpecker-word" class="cls-20"><text class="cls-2" transform="translate(65.35 120.84)"><tspan xml:space="preserve"> green</tspan></text><text class="cls-2" transform="translate(57.45 130.84)">wo<tspan class="cls-3" x="7.91" y="0">o</tspan><tspan class="cls-21" x="11.2" y="0">d</tspan><tspan class="cls-3" x="14.69" y="0">p</tspan><tspan x="18.41" y="0">e</tspan><tspan class="cls-3" x="21.66" y="0">c</tspan><tspan x="24.73" y="0">ker</tspan></text></g></g><g id="woodpigeon"><path class="cls-1" d="M106.9,60.9c.4,2.3.7,4.6,1.1,7.1L46.8,95.8l-.5-.5c3.3-6.3,6.6-12.6,10-18.8A275.74,275.74,0,0,1,81.9,38.1c1.3-1.7,2.4-2.1,4.6-1.5C99,39.9,105,48.7,106.9,60.9Z"/><text class="cls-2" transform="translate(67.49 66.04)">wo<tspan class="cls-3" x="7.91" y="0">o</tspan><tspan class="cls-21" x="11.2" y="0">d</tspan><tspan class="cls-22" x="14.69" y="0">p</tspan><tspan class="cls-7" x="18.29" y="0">i</tspan><tspan class="cls-23" x="20.38" y="0">g</tspan><tspan class="cls-7" x="23.92" y="0">eon</tspan></text></g><g id="rook"><path class="cls-1" d="M88.6,30.6c3-2.9,8.1-8.1,10.7-10.6,1,4,3.8,16.2,4.9,20.8-4-1.7-12.4-8.1-16.2-9.6"/><rect class="cls-12" x="85.6" y="29.2" width="21" height="5.8"/><text class="cls-24" transform="translate(91.87 31.99)">rook</text></g><g id="skylark"><path class="cls-1" d="M141.8,0h2.5c-2.7,5.3-5.4,10.5-8,15.7l-3,6.3c-.5,1.1-.9,2.1-1.4,3.2-3.2,7.4-5.9,14.9-8.7,22.5-.9,2.5-1.8,5-2.8,7.5h0c-1.4,3.8-1.5,3.8-6,3.7l-3.5-14.2-1.2-4.8c-1.8-7.3-3.7-14.5-5.4-21.8v-.3h0v-1a2.54,2.54,0,0,1,.2-.7c.1-.2.1-.3.2-.5s.1-.1.1-.2l.1-.1.2-.2c9.8-7.7,20.5-13.3,33-14.9C139.3.1,140.6.1,141.8,0Z"/><rect class="cls-12" x="108" y="21" width="27.2" height="50.4"/><text class="cls-2" transform="translate(108.01 25.19)">sk<tspan class="cls-5" x="6.57" y="0">yla</tspan><tspan x="14.76" y="0">rk </tspan></text></g><g id="lapwing"><path class="cls-1" d="M204.3,99.2a16.31,16.31,0,0,1-1.6,10.2,12.75,12.75,0,0,1-1.5,2.5c-.4.5-.8,1.1-1.2,1.6a19.2,19.2,0,0,1-1.4,1.5l-.8.7c-6.2,5.7-13.4,8.7-22.1,7.5q-5.85-.75-11.7-1.2l-5.8-.5c-1.9-.2-3.9-.3-5.8-.5-1.1-.1-2.1-.2-3.2-.4.2-.8.4-1.5.6-2.2.6-2.2,1.2-4.4,1.6-6.5a18.16,18.16,0,0,0,.3-3.2c.4-8.1-3.3-14.8-9.5-20.3-1.3-1.1-2.6-2.3-3.9-3.4-2.7-2.2-5.4-4.3-8.1-6.5-1.3-1.1-2.7-2.2-4-3.2-2.2-1.8-4.4-3.8-6.8-6,1.1-.6,1.8-1,2.6-1.4,5.2-2.6,10.4-5.2,15.7-7.7,7.6-3.8,15.9-4.8,24.2-5.2,11.7-.6,23.4-.9,35.3-1.3,1.2,6.6,2.3,12.9,3.3,19.2C201.8,81.6,203.1,90.4,204.3,99.2Z"/><rect class="cls-12" x="162" y="85.1" width="34.7" height="46.7"/><text class="cls-2" transform="translate(161.97 89.27)"><tspan class="cls-5">l</tspan><tspan x="1.94" y="0">a</tspan><tspan class="cls-8" x="5.05" y="0">p</tspan><tspan class="cls-4" x="8.84" y="0">w</tspan><tspan x="13.4" y="0">i</tspan><tspan class="cls-3" x="15.49" y="0">n</tspan><tspan x="19.12" y="0">g</tspan></text></g><g id="blackbird"><path class="cls-1" d="M201.6,36.2c.2,1.1.5,2.3.7,3.9L131.2,51.6c1-4.7,1.7-9.1,2.8-13.4a110.43,110.43,0,0,1,6.4-18.6c.7-1.5,1.4-3,2.1-4.4A109.73,109.73,0,0,1,150,2.4,3.07,3.07,0,0,1,153.7.9c12.6,2.6,23.2,9,32.8,17.2,2.3,1.9,4.5,4,6.7,6.1l2.1,2.1,1,1,.4.4.8.8.4.4a11.16,11.16,0,0,1,3.2,5.4A10.55,10.55,0,0,1,201.6,36.2Z"/><rect class="cls-12" x="151.2" y="23.3" width="39.9" height="17.5"/><text class="cls-2" transform="translate(151.24 27.46)">b<tspan class="cls-5" x="3.56" y="0">l</tspan><tspan x="5.51" y="0">a</tspan><tspan class="cls-5" x="8.62" y="0">ck</tspan><tspan x="15.38" y="0">bird</tspan></text></g><g id="buzzard"><path class="cls-1" d="M258.5,336.6c4.4,7.1,3.8,12.7-1.3,19.3a119.54,119.54,0,0,1-59.3,41.7,21.72,21.72,0,0,1-2.4.7h-1c-.6-5.6-1.1-11.1-1.6-16.6-.2-2.2-.4-4.4-.7-6.6-.1-1.1-.2-2.2-.4-3.3-.5-4.4-1.2-8.7-2-12.9-.1-.5-.2-1-.3-1.4-.2-.9-.4-1.9-.6-2.8s-.5-1.9-.7-2.8a78.07,78.07,0,0,0-2.6-8.2h0c-.3-.9-.7-1.8-1-2.7h0c-.7-1.8-1.5-3.5-2.4-5.3a71.51,71.51,0,0,0-4.4-7.6c-3.2-4.8-7-9-10.7-13.7l12.5-2.8c15.8-3.6,31.6-7.3,47.4-10.9,3.9-.9,7.3-.1,9.9,2.7a6.1,6.1,0,0,1,1.2,1.6l5.1,7.9C248.5,320.6,253.6,328.6,258.5,336.6Z"/><rect class="cls-12" x="207.7" y="340.7" width="60.3" height="23.9"/><text class="cls-2" transform="translate(207.74 344.85)"><tspan class="cls-8">b</tspan><tspan class="cls-7" x="3.68" y="0">uzz</tspan><tspan class="cls-3" x="13.31" y="0">a</tspan><tspan x="16.48" y="0">rd</tspan></text></g><g id="tawny-owl"><path class="cls-1" d="M200.2,196.3h1.5l-3.6,5.7c-3.7,5.8-7.4,11.7-11,17.5-1.7,2.8-3.5,5.6-5.3,8.3-3.3,5.1-6.7,10.3-10.1,15.3-9.3,13.5-21.1,24.4-36.2,31.3l-1.4.6c-1,.4-1.9.8-2.9,1.2l-3,1.1c-1,.4-2,.8-3.1,1.2l-1.6.6c-.4-5.2-.8-9.8-1.2-14.5-.3-4.4-.5-8.8-.8-13.2-.1-1.8-.3-3.5-.4-5.3a185.5,185.5,0,0,0-2.7-21l-.5-2.6a104.71,104.71,0,0,0-2.9-11c-.6-1.8-1.2-3.5-1.9-5.3-.3-.9-.7-1.7-1-2.6-1.1-2.6-2.3-5.1-3.6-7.6-.9-1.6-1.8-3.2-2.8-4.8s-2-3.1-3.2-4.7-2.3-3-3.5-4.5l-.1-.1c0-.1-.1-.2-.2-.3l-.1-.2c-.1-.1-.2-.3-.3-.4a6.13,6.13,0,0,0-.4-.6c3.7-.6,6.9-1.3,10.2-1.7,11.7-1.4,23,.8,34.2,4.2l7.5,2.4,7.4,2.5,3.7,1.2,7.5,2.4,3.7,1.2A73.17,73.17,0,0,0,200.2,196.3Z"/><rect class="cls-12" x="133.3" y="217.3" width="47.8" height="54.9"/><text class="cls-2" transform="translate(133.3 221.51)"><tspan class="cls-5">t</tspan><tspan x="2.51" y="0" xml:space="preserve">awny  </tspan><tspan class="cls-10" x="21.1" y="0">o</tspan><tspan class="cls-4" x="24.44" y="0">w</tspan><tspan class="cls-21" x="29.01" y="0">l </tspan></text></g><g id="bittern"><path class="cls-1" d="M163.4,397.7l19.3,8.4c-.9.5-1.8.9-2.7,1.3a135.12,135.12,0,0,1-45.2,4.4c-5.3-.4-10.6-1.2-15.9-1.8-1.9-.2-2.8-1.1-3.3-3-.7-2.4-1.3-4.8-2-7.2-1.3-4.8-2.7-9.6-4-14.4-.7-2.4-1.3-4.8-2-7.2l-.2-.6c-.1-.4-.3-.8-.4-1.2h0c-.2-.4-.3-.8-.5-1.3-.2-.7-.5-1.4-.8-2.2l28.8,12.5Z"/><rect class="cls-12" x="123.3" y="396.4" width="24" height="18"/><text class="cls-2" transform="translate(123.32 400.54)">bit<tspan class="cls-5" x="8.09" y="0">t</tspan><tspan x="10.6" y="0">ern</tspan></text></g><g id="pheasant"><path class="cls-1" d="M57.3,180.3c2.5,2.2,4.7,4.7,7.1,7.2-6.8,7.4-13.3,14.6-19.9,21.8-5.2,5.5-10.4,11-15.7,16.4a11,11,0,0,1-14.3.8c-2.8-2.1-5.8-3.9-9.1-6.1.1-.6.2-1.1.3-1.7.2-1.1.5-2.3.7-3.5l.3-1.8c.2-1.2.5-2.4.7-3.6s.5-2.4.8-3.6c3.4-13.1,7-26.2,10.4-39.3.4-1.5,1-2.1,2-2.4h1.9c1.3.1,2.5.2,3.8.4.8.1,1.6.3,2.5.4a17,17,0,0,1,2.4.5C41,168,49.6,173.3,57.3,180.3Z"/><rect class="cls-12" x="18.1" y="192.7" width="27.7" height="14.6"/><text class="cls-2" transform="translate(18.08 196.82)">p<tspan class="cls-5" x="3.67" y="0">he</tspan><tspan x="10.45" y="0">asant</tspan></text></g><g id="wren"><path class="cls-1" d="M12.5,237.3a2.24,2.24,0,0,1,.1,1.8C8.7,245.7,4.8,252.3.8,259l-.8-.2c1.2-10.1,2.3-20.2,3.4-30.4l1.2-.5,2,2.4c1.3,1.6,2.7,3.1,4,4.7C11.2,235.8,11.9,236.5,12.5,237.3Z"/><text class="cls-25" transform="translate(2.71 239.97)">wren</text></g><g id="cuckoo"><path id="cuckoo-2" data-name="cuckoo" class="cls-1" d="M214.4,174.8c.2,11-6,16.2-16.9,14.5-4.7-.7-9.5-1.4-14.3-1.8-12.8-1.2-22.4-6.3-28.9-14.9-.6-.8-1.2-1.7-1.8-2.5a48.93,48.93,0,0,1-3.7-7.2,56.73,56.73,0,0,1-2.2-6.6,60.84,60.84,0,0,1-1.6-7.4,21.66,21.66,0,0,1-.4-2.5c-.2-1.7-.5-3.3-.7-5s-.3-3.4-.5-5a11.45,11.45,0,0,1,.1-3.2,8.33,8.33,0,0,1,.4-1.5,6.76,6.76,0,0,1,4-4.1c.5-.2,1.1-.4,1.6-.6a12.86,12.86,0,0,1,1.9-.4,60.21,60.21,0,0,1,6.1-.5c11.9.4,22.6,1.7,32.5,6.2a39.25,39.25,0,0,1,11.7,8c.6.6,1.2,1.2,1.7,1.8a39.9,39.9,0,0,1,5.5,8.1l.5,1.1c.3.8.7,1.5,1,2.3l.5,1.2a22.5,22.5,0,0,1,.8,2.4c.4,1.2.7,2.5,1,3.8a23.81,23.81,0,0,1,.5,2.6A52.62,52.62,0,0,1,214.4,174.8Z"/><text class="cls-2" transform="translate(170.74 156.8)"><tspan class="cls-10">c</tspan><tspan class="cls-22" x="3.13" y="0">u</tspan><tspan class="cls-3" x="6.04" y="0">c</tspan><tspan x="9.11" y="0">koo </tspan></text></g><text></text></g></g></svg>