<svg xmlns="http://www.w3.org/2000/svg" viewBox="0 0 275.28 333.84"><title>marsh-warbler-image</title><g id="Layer_2" data-name="Layer 2"><g id="marsh-warbler-image"><path d="M149.52,0h1.2c1,.31,2.15,1.13,2.91.85,6.79-2.56,11.07,4.63,17.48,4.25,5.48-.33,6.66,6.47,11.32,8.43,3,1.27,7.55,1.86,7.85,6.79,0,.57,1.05,1,1.31,1.64,1.9,4.56,7.39,5.28,9.68,10.22,2.58,5.56,5.58,11.37,10.1,16,1.33,1.37,3.78,2.88,2.58,6.07s-1.37,6.91,3,8.63a5.26,5.26,0,0,1,3.26,3.28c.25.71,1.15,1.2,1.75,1.79.46-.64.88-1.31,1.39-1.92a8.9,8.9,0,0,1,1.12-1c.32.41.93.82.92,1.21-.08,2.49,1,1.62,2.12.81,12.82-9.12,21.7-21.25,27.71-35.69,2-4.8,7.1-6,11.49-4.35,6.9,2.57,7.75,8.27,8.62,14.21v1.44c-.08,6.29-2.1,12.34-3.26,18.4-.88,4.56-4.47,8.62-4.7,14-.13,3-2.77,5.85-3.39,8.94-2.89,14.23-13.58,24.13-20,36.39-5,9.46-15.85,13.73-22.48,22-1.09,1.37-3.32,1.91-5.12,2.62-2.41,1-3.92,2.82-3.69,5.17a18,18,0,0,1-3.28,11.86c-1.64,2.5-6.27,4.39-6.27,5.39,0,5.38-2.79,4.83-6.35,4.27a4,4,0,0,0-4.26,2.5,2,2,0,0,0,.83,2.64c1.77,1,2.06-1.3,3.24-1.68a12.92,12.92,0,0,1,2-.34c.06.65.37,1.44.13,2-1.26,2.63-2.89,5.56-5.66,6.11-2.41.47-2.79-3-4.22-4.62-.37-.41-.58-1-.95-1.38s-.61-1.78-1.58-1.14-.47,1.59,0,2.37c4,6.22,3.13,11.88-2.68,16.49-2.63,2.08-5.31,4.12-7.95,6.18-.38.3-.72.64-1.08,1a6.29,6.29,0,0,1-.87-1.28c-1.69-4.45-1.31-9.52-4-13.67l-.69-1c-.3.34-.88.71-.85,1,.28,3.62-1.85,7.09-.61,10.77a6,6,0,0,1-1.71,6.29c-1.21,1.11-2-1.31-3.1-2a2,2,0,0,0-.62-.15,2,2,0,0,0-.13.78c2.69,9.3,7.85,17.35,12.6,25.66,5.9,10.34,14,18.84,21.49,27.89,9,10.93,15.48,23.73,25.65,34s18.32,22.48,25.67,35c.41.7,1.11,1.76,0,2.3s-1.1-.78-1.54-1.4a18.34,18.34,0,0,0-2.38-2.45s-.52.33-.6.58c-.46,1.38.31,2.2,1.31,3,3.18,2.65,3.34,4.43.65,6a4.74,4.74,0,0,0-.7.65h-1c-4.21-5.36-8.29-10.83-12.66-16.07-11.24-13.47-25.3-24.44-34.84-39.46-1.33-2.09.15-4.58-1.87-6.14a11.6,11.6,0,0,0-1.37-.79,8.87,8.87,0,0,0,.44,1.35c.44.87,1.12,1.9.16,2.58-.59.41-1.69.19-2.54.1-1.89-.18-1-5.77-5.4-2.43-1,.8-6.94-1.36-9.21-3.17-8.56-6.85-19.38-7.85-28.78-12.35a4,4,0,0,0-3,.48,16.42,16.42,0,0,1-9.61,2c-8.79-1.07-17.51-2.76-26.46-2-1.72.13-3.55-.85-5.28-1.44-.43-.15-.69-.82-1-1.25-.18.38-.6,1-.48,1.1a3.64,3.64,0,0,0,1.6,1.36c2.61.68,4.8,2.08,5.07,4.8a29.67,29.67,0,0,0,2.82,10.06c.47,1-.5,2.41-1,1.87-1.6-1.9-4.7-1.39-5.63-2.81-3-4.48-7.72-6.16-11.82-8.86-2.52-1.67-5.36-5.93-7.18.72-.3,1.09-2.71,1.83-1.93,3,3.86,5.61.15,10.72-.73,16a2.85,2.85,0,0,1-1.32,1.64,1.53,1.53,0,0,1-1.47-.37,32.18,32.18,0,0,1-5.84-13.11c-1.22-6.19,2.28-11.93,3.54-17.89.66-3.09,3.53-5.55,7.7-3.78a3.84,3.84,0,0,0,3-.56,13.43,13.43,0,0,1,6.81-2c7.85-.51,15.19,3.2,23,2.72.49,0,1,0,1.48,0-.2-.43-.4-.86-.61-1.29-.47-1-1.8-2-.84-3.07s1.85.42,2.72.89c2,1.09,4,2.32,6,3.29.52.24,2.38.31,1.78-.88-1-2-2.43-4.37-4.32-5.43C116,238,112.65,228.23,104,223.94c-2.46-1.21-4.53-6.36-7.11-5.64-3.87,1.07-4.85-1.2-6.45-3-2.72-3-5.22-6.26-7.69-9.5-7.15-9.4-11.6-21.65-25.65-23.67-1.44-.21-1.42-2.19-.85-3.54.42-1,.84-2.26,2.28-2.05s2.43.88,1.52,2.59c0,0,.71.66,1.07.64a7.06,7.06,0,0,0,5.25-2.21,18.36,18.36,0,0,1,2.78-2.12c-1.7-.91-2.59,1-4,1.15-1.24.17-2.51,1.36-3.66.07a2.12,2.12,0,0,1-.21-2c1.68-1.95,2-4.29,2.27-6.68a4.09,4.09,0,0,0-.22-1.16,12,12,0,0,0-.86.89,58,58,0,0,1-4.77,6.1c-.45.46-2.63.05-3.21-.64-1.2-1.43-.05-2.95.74-4.35.62-1.11,1.12-2.28,1.67-3.43-.32-.12-.67-.39-.94-.33-2.75.59-3.16-.72-2.61-3,.12-.48-.22-1.08-.35-1.62-.29.13-.73.19-.84.42A2.41,2.41,0,0,1,48.59,162c-1.55-.71-1.17-2.05-.79-3.33a3.68,3.68,0,0,0-1.45-4,1.89,1.89,0,0,0-1.69-.12,2.16,2.16,0,0,1-2.66,0,2.75,2.75,0,0,1-1.12-2.95c.58-2.43-6.46-8.48-9-7.76-.75.21-1.5.4-2.25.6.21-.88.42-1.76.62-2.63.56-2.4-.83-4.1-2.11-5.82-.07-.1-1.08.21-1.12.43-.57,3.15-.95,2.85-2.37.21-1.06-2-.11-2.87.9-3.9s1.8,0,2.7.66c4.18,2.8,5.63,8.5,11,10.1,3.22,1,5.8,3,9.91,1.53,2.52-.88,7-3.9,9.75.9.15.26,1.1,0,1.67.07,0-.58.23-1.41-.06-1.69a7.92,7.92,0,0,0-4.89-2.49c-4-.43-8.58,1.52-11.6-3.55-2.58-4.33-8.72-4.56-11.81-8.69-.24-.32-1.1-.17-1.67-.24.28.44.53.91.84,1.33.81,1.12,2.77,1.48,2.38,3.34-.07.33-1.57.71-1.61.62-2-3.53-6.88-2.8-8.91-6.2-.2-.35-.72-.5-1.1-.74-.08.31-.18.62-.23.93-.1.69,0,1.84-.3,2-.86.4-2.25.84-2.87.43A145.24,145.24,0,0,0,1.14,121.6c-.33-.16-.47-.73-.7-1.11.41-.18.86-.57,1.22-.5,2.32.51,4.6,1.19,6.93,1.66,1.75.35,3.55.44,5.32.73.9.15,2.21.18,1.53-.92-1.45-2.34-4.22-2.37-6.68-2.9-2.9-.63-6.1.55-8.76-1.44v-.72c1.69-1.83,3.78-1.43,5.81-1,9.66,2.21,18.21,2,26.69-5.18C48.07,97.13,61.88,97,75.58,114.59c4.38,5.61,7.94,12,14.08,16.07,1.72,1.15,2.93,1.14,4.45-.43,5.76-5.95,7.35-14.22,11.74-20.92a1.36,1.36,0,0,0,0-1,16.66,16.66,0,0,1,1.87-15.48c2.26-3.51,5.48-6.56,7-10.32,4-9.57,3.8-20.75,13.27-28.16,4-3.1,5.63-9.07,8.55-13.6,5.67-8.79,9.8-17.8,7.91-28.83C143.68,7.41,145.9,3.14,149.52,0ZM78,182.24c-2.81-.17-3.78.65-2.51,3.08a2.28,2.28,0,0,1,.07,1.25c0,.1-.47.23-.71.21-.56-.07-1.12-.22-1.68-.34a21.09,21.09,0,0,0,1.37,2c2.76,3.13,4.48,6.84,6.18,10.59a12.76,12.76,0,0,0,1.32,2.05,1,1,0,0,0,.67-.25c2.28-3.39,4-.75,5.73.57a12.46,12.46,0,0,1,1.16,1.14c.25-.33.76-.75.69-1a2.62,2.62,0,0,0-1-1.55c-3.11-1.53-4.54-5.26-8.12-6.16-.11,0-.22-.72-.12-.79,1.9-1.28,3.31-4.17,6.35-2,.26.18.9-.05,1.29-.23A1,1,0,0,0,89,190a2.94,2.94,0,0,0-1.13-.53c-1.75-.37-3.53-.65-5.27-1.06a2,2,0,0,1-1.5-2.18c0-1,.8-1,1.54-1.29,2.88-1.07-.14-3.85,1.44-5.41.12-.11-.33-1.15-.74-1.4-.81-.49-1.18.16-1.44.88C81.18,181,80.12,182.52,78,182.24Zm30.74-29a42.94,42.94,0,0,0,4.43-.64,13.22,13.22,0,0,0,2.65-1.29c-.71-.33-1.43-.62-2.11-1-5.59-3.16-16.9.77-19.33,6.73a1.49,1.49,0,0,0,.83,2.17c.78.33,1.54.08,1.67-.81.61-4.18,2.42-2.39,4.32-1a5.21,5.21,0,0,0,2.33.75c.15,0,.7-.89.6-1.24C103,152.77,105.48,152.74,108.76,153.21ZM45.85,121.92c2.84-.29,5.11-.49,7.36-.78,1.13-.15,2.57.2,3.15-1.16.17-.38-.25-1.22-.65-1.6-1.14-1.09-2.74-1.54-3.94-.56-2.22,1.79-4.39,1.39-6.86.88a31.73,31.73,0,0,0-6.9-.38c-3.42,0-6.14,3-9.82,2.36-1-.17-2.16.47-3.2.86a2,2,0,0,0,0,1.25,10.42,10.42,0,0,0,3.14.62C34.26,123.27,39.8,116.28,45.85,121.92ZM178,250.26a3.32,3.32,0,0,0-2.8-3.32c-2.1-.43-1.75,3.23-4.06,3.17-.07,0-.18.23-.21.36s.15.16.25.21a20.72,20.72,0,0,1,7.59,6.78c2.12,2.83,2.56,6.66,5.27,9.17a8.41,8.41,0,0,0,.84.59c.09-.17.26-.32.28-.49a7.69,7.69,0,0,0-1-5.22C181.86,257.92,178.57,254.79,178,250.26Zm19.38,25.63c-.22.21-.44.32-.43.4a2.36,2.36,0,0,0,.31,1c6,7.48,11.69,15.17,18.77,21.69.37.35.78.65,1.17,1a5.93,5.93,0,0,0-.68-1.77q-7.56-8.9-15.2-17.73C200,278.93,198.74,277.44,197.39,275.89Zm10.15-121.41a7.78,7.78,0,0,0,1.66.12c1.41-.19,2.58-1,1.81-2.43s-2.22,0-3.36,0a21.83,21.83,0,0,0-3.34.3,5.39,5.39,0,0,0-4.72,5.09c-.05.52.64,1.12,1,1.69.5-.37,1.39-.68,1.44-1.11C202.47,154.73,204.77,154.31,207.54,154.48Zm14.91,140.4c-.76.49-1.27.64-1.39.95a1.45,1.45,0,0,0,.28,1.15c1.95,2.42,3.93,4.83,5.95,7.19.92,1.08,2.1,3.16,3.29,2.21s-.94-2.21-1.68-3.23C226.87,300.35,224.66,297.69,222.45,294.88ZM101,209.34c-.66-1.26-1-3-1.9-3.36-1.29-.53-.68,1.42-1.33,2a2.16,2.16,0,0,1-1.19.56c-1.25,0-2.78-2.33-3.53-.43s2.16,1,2.93,2.09a4.21,4.21,0,0,0,.81.7l3.42,3C101.32,212.43,99.09,210.68,101,209.34Zm-53.43-57.8c1.43-.23,2.07.28,2.19,1.32A7.11,7.11,0,0,0,53,157.81a4.82,4.82,0,0,0,1.12.43c.12-.52.52-1.34.33-1.51-2.45-2.26-2.82-6.18-6.22-7.7a2.66,2.66,0,0,0-2.89,0,.83.83,0,0,0-.15.81C45.88,150.71,46.6,151.6,47.56,151.54ZM200.86,42.11c-3.15,1.26-1,5.07-3.42,6.42-.19.11-.12.72-.17,1.1.4-.08.9,0,1.17-.27,2.24-2,4.46-3.88,7.62-4.15.2,0,.36-.43.54-.66A6.32,6.32,0,0,1,200.86,42.11ZM175.93,22.18c1.15,1.43,1.51,3.34,3.22,3.48,1.31.1,2.87-1.14,2.68-2.37-.27-1.77-1.44-3.4-2.23-5.09C178.39,19.5,177.19,20.81,175.93,22.18ZM79.28,265.49c0,.15-.09-.28-.22-.71-.17.07-.46.11-.48.21-.36,1.69-2.93,3.37.13,5.1.69.38.92,1.71,1.19,2.66s-.86,2.62.12,2.39c2.47-.57,1.33-3.53,2.44-5.21.45-.67-.37-1-1-1.06C79.73,268.72,79.37,267.54,79.28,265.49Zm96.2-239.12c-2.29,2.69-4.71,5.52-7.09,8.38a5.11,5.11,0,0,0-.59,1.41c.57-.12,1.3,0,1.68-.37,2.67-2.32,5.27-4.71,7.86-7.11a1,1,0,0,0,.23-.93C177.41,27.46,177,27.32,175.48,26.37Zm-66.2,133a1.32,1.32,0,0,0-.5.37s.23.53.44.7c3,2.44,6.93,1.71,10.17,3.28.11.05.64-.37.63-.54,0-.38-.21-1-.44-1.08C116.25,161.29,113.33,159.13,109.28,159.34ZM73.51,178.79c-.67-.52-1.11-1.14-1.63-1.2-1-.13-1.1.78-1.26,1.54a10.21,10.21,0,0,1-.47,1.38,3.19,3.19,0,0,1-.8-.42c-.58-.6-1.94-1.1-1.76-.35.47,1.86,1.75,3.53,2.77,5.23.07.12,1.07-.15,1.06-.18A7.81,7.81,0,0,1,73.51,178.79Zm69.17-51.61c2.85-2.41,5.72-4.81,8.54-7.26.32-.27.39-.81.57-1.22-.51,0-1.28-.2-1.48,0a21.23,21.23,0,0,1-8,6.1c-.41.19-.57,1-.74,1.6C141.54,126.54,142.09,126.8,142.68,127.18Zm-43.9,122-1.4,1a55.62,55.62,0,0,0,6,2.64c.78.25,2.91-.15,2.56-.89C104.55,249,101.26,250.35,98.78,249.17Z"/></g></g></svg>