<?xml version="1.0" encoding="iso-8859-1"?>
<!-- Generator: Adobe Illustrator 22.0.1, SVG Export Plug-In . SVG Version: 6.00 Build 0)  -->
<svg version="1.1" id="marsh-warbler-image" xmlns="http://www.w3.org/2000/svg" xmlns:xlink="http://www.w3.org/1999/xlink"
	 x="0px" y="0px" viewBox="0 0 841.89 595.281" style="enable-background:new 0 0 841.89 595.281;" xml:space="preserve">
<g>
	<path d="M432.76,130.521c0.4,0,0.8,0,1.2,0c0.979,0.309,2.15,1.13,2.906,0.846c6.794-2.553,11.075,4.638,17.488,4.255
		c5.477-0.327,6.66,6.468,11.319,8.434c3.004,1.267,7.543,1.86,7.845,6.79c0.035,0.565,1.049,1.008,1.309,1.632
		c1.9,4.561,7.394,5.282,9.686,10.222c2.58,5.559,5.572,11.371,10.097,16.051c1.326,1.372,3.78,2.875,2.577,6.071
		c-1.255,3.332-1.369,6.905,2.955,8.633c1.552,0.62,2.67,1.597,3.26,3.272c0.251,0.715,1.146,1.203,1.749,1.794
		c0.458-0.642,0.883-1.311,1.386-1.917c0.316-0.38,0.747-0.664,1.127-0.991c0.32,0.403,0.926,0.815,0.914,1.208
		c-0.078,2.486,0.981,1.614,2.117,0.807c12.822-9.117,21.7-21.247,27.716-35.691c2-4.801,7.099-5.98,11.484-4.348
		c6.903,2.568,7.753,8.272,8.624,14.212c0,0.48,0,0.96,0,1.44c-0.077,6.294-2.097,12.337-3.262,18.4
		c-0.877,4.563-4.47,8.616-4.697,13.966c-0.128,3.021-2.767,5.853-3.395,8.948c-2.888,14.226-13.572,24.128-20.001,36.388
		c-4.96,9.458-15.854,13.727-22.479,22.03c-1.092,1.369-3.329,1.905-5.12,2.615c-2.411,0.957-3.922,2.818-3.698,5.174
		c0.425,4.471-0.941,8.261-3.28,11.854c-1.633,2.509-6.267,4.396-6.271,5.395c-0.019,5.376-2.782,4.834-6.345,4.272
		c-1.833-0.289-3.456,0.707-4.266,2.501c-0.462,1.024-0.099,2.128,0.831,2.64c1.772,0.977,2.064-1.302,3.244-1.683
		c0.634-0.205,1.325-0.236,1.99-0.346c0.057,0.659,0.372,1.441,0.126,1.956c-1.252,2.631-2.89,5.56-5.66,6.106
		c-2.407,0.474-2.791-3.014-4.22-4.617c-0.369-0.414-0.576-0.972-0.949-1.381c-0.45-0.493-0.603-1.776-1.578-1.136
		c-0.88,0.578-0.472,1.592,0.029,2.364c4.035,6.225,3.132,11.881-2.681,16.491c-2.63,2.086-5.303,4.119-7.949,6.184
		c-0.379,0.296-0.719,0.642-1.078,0.966c-0.296-0.422-0.695-0.806-0.872-1.273c-1.688-4.456-1.31-9.521-4.032-13.676
		c-0.227-0.346-0.457-0.689-0.685-1.033c-0.299,0.343-0.88,0.709-0.854,1.027c0.288,3.62-1.851,7.086-0.611,10.772
		c0.815,2.423-0.137,4.826-1.708,6.282c-1.205,1.116-2.012-1.305-3.099-1.997c-0.169-0.107-0.41-0.1-0.618-0.146
		c-0.047,0.259-0.193,0.547-0.127,0.774c2.688,9.3,7.85,17.349,12.594,25.667c5.899,10.341,14.004,18.839,21.494,27.891
		c9.041,10.926,15.481,23.726,25.651,33.966c10.227,10.298,18.315,22.478,25.669,35.043c0.407,0.695,1.102,1.759-0.037,2.293
		c-1.207,0.567-1.092-0.781-1.536-1.398c-0.658-0.915-1.553-1.661-2.377-2.448c-0.014-0.013-0.523,0.332-0.605,0.576
		c-0.462,1.38,0.31,2.203,1.308,3.033c3.182,2.649,3.341,4.429,0.656,6.031c-0.268,0.16-0.47,0.43-0.703,0.65c-0.32,0-0.64,0-0.96,0
		c-4.212-5.362-8.294-10.832-12.661-16.065c-11.24-13.472-25.302-24.443-34.844-39.469c-1.324-2.084,0.157-4.575-1.871-6.135
		c-0.412-0.317-0.906-0.529-1.363-0.789c0.142,0.453,0.228,0.934,0.438,1.352c0.436,0.868,1.12,1.894,0.155,2.578
		c-0.582,0.412-1.682,0.184-2.536,0.102c-1.894-0.182-1.009-5.777-5.402-2.438c-1.052,0.8-6.936-1.353-9.205-3.168
		c-8.564-6.851-19.385-7.847-28.786-12.347c-0.754-0.361-2.102,0.029-2.964,0.476c-3.041,1.577-6.261,2.413-9.616,2.003
		c-8.791-1.073-17.511-2.756-26.461-2.043c-1.715,0.137-3.545-0.842-5.276-1.44c-0.433-0.15-0.687-0.818-1.024-1.248
		c-0.175,0.379-0.597,0.955-0.48,1.102c0.432,0.544,0.977,1.195,1.597,1.358c2.616,0.686,4.809,2.084,5.076,4.802
		c0.352,3.571,1.291,6.86,2.817,10.056c0.472,0.988-0.495,2.416-0.949,1.879c-1.604-1.9-4.697-1.399-5.635-2.817
		c-2.96-4.475-7.72-6.156-11.819-8.861c-2.519-1.663-5.354-5.931-7.176,0.719c-0.3,1.094-2.71,1.833-1.925,2.975
		c3.856,5.612,0.146,10.718-0.731,15.995c-0.103,0.622-0.748,1.283-1.32,1.645c-0.307,0.195-1.222-0.034-1.471-0.366
		c-2.948-3.919-4.935-8.478-5.846-13.118c-1.213-6.182,2.285-11.927,3.546-17.883c0.655-3.096,3.532-5.555,7.696-3.785
		c0.801,0.341,2.209-0.032,3.018-0.562c2.107-1.38,4.367-1.794,6.81-1.954c7.852-0.514,15.19,3.194,23.025,2.717
		c0.493-0.03,0.989-0.025,1.483-0.036c-0.204-0.432-0.407-0.864-0.611-1.295c-0.472-0.994-1.803-2.031-0.845-3.067
		c1.028-1.111,1.851,0.419,2.718,0.888c2.019,1.094,3.971,2.322,6.047,3.288c0.521,0.242,2.379,0.308,1.774-0.878
		c-1.041-2.041-2.431-4.375-4.32-5.432c-8.224-4.601-11.536-14.353-20.226-18.639c-2.461-1.214-4.528-6.354-7.114-5.64
		c-3.869,1.068-4.848-1.196-6.447-2.98c-2.715-3.03-5.219-6.259-7.686-9.5c-7.15-9.397-11.604-21.65-25.656-23.667
		c-1.439-0.207-1.423-2.193-0.852-3.541c0.418-0.987,0.838-2.256,2.287-2.051c1.46,0.207,2.422,0.879,1.517,2.59
		c-0.016,0.03,0.707,0.661,1.069,0.645c2.004-0.088,3.813-0.626,5.254-2.215c0.768-0.847,1.839-1.418,2.773-2.114
		c-1.693-0.918-2.589,0.952-3.982,1.145c-1.241,0.173-2.514,1.357-3.659,0.075c-0.383-0.429-0.535-1.656-0.218-2.022
		c1.688-1.951,2.013-4.294,2.27-6.682c0.04-0.375-0.14-0.774-0.218-1.162c-0.286,0.297-0.605,0.569-0.853,0.895
		c-1.566,2.058-2.969,4.273-4.773,6.093c-0.454,0.458-2.636,0.052-3.213-0.636c-1.199-1.43-0.045-2.953,0.738-4.353
		c0.619-1.107,1.119-2.28,1.671-3.424c-0.316-0.12-0.666-0.395-0.943-0.336c-2.744,0.587-3.16-0.715-2.603-3.01
		c0.117-0.484-0.224-1.079-0.354-1.623c-0.289,0.138-0.727,0.199-0.843,0.425c-0.812,1.587-2.108,1.818-3.54,1.153
		c-1.544-0.717-1.163-2.055-0.787-3.334c0.494-1.681-0.226-3.009-1.45-4.029c-0.363-0.303-1.258-0.352-1.687-0.115
		c-0.955,0.529-1.785,0.668-2.66-0.025c-0.954-0.756-1.413-1.708-1.119-2.951c0.576-2.434-6.468-8.48-9.033-7.762
		c-0.748,0.209-1.502,0.399-2.253,0.598c0.209-0.877,0.42-1.753,0.625-2.63c0.56-2.392-0.838-4.099-2.114-5.819
		c-0.071-0.096-1.079,0.212-1.119,0.428c-0.572,3.153-0.951,2.853-2.369,0.218c-1.06-1.968-0.114-2.872,0.895-3.9
		c1.088-1.108,1.807,0.051,2.705,0.654c4.176,2.802,5.623,8.497,10.952,10.105c3.22,0.971,5.795,2.962,9.902,1.53
		c2.521-0.879,6.983-3.908,9.754,0.896c0.148,0.257,1.094,0.055,1.669,0.066c-0.007-0.578,0.229-1.402-0.063-1.69
		c-1.341-1.322-2.847-2.268-4.885-2.485c-4.042-0.429-8.585,1.52-11.601-3.551c-2.576-4.331-8.724-4.565-11.815-8.69
		c-0.238-0.318-1.094-0.173-1.663-0.243c0.276,0.447,0.525,0.914,0.833,1.337c0.818,1.12,2.772,1.476,2.385,3.341
		c-0.067,0.321-1.567,0.701-1.614,0.617c-1.956-3.536-6.877-2.804-8.904-6.204c-0.205-0.343-0.727-0.497-1.102-0.739
		c-0.078,0.31-0.182,0.617-0.228,0.932c-0.103,0.691,0.033,1.837-0.302,1.993c-0.864,0.401-2.247,0.841-2.868,0.429
		c-5.556-3.685-11.555-6.502-17.533-9.379c-0.334-0.161-0.47-0.731-0.698-1.111c0.407-0.178,0.862-0.574,1.214-0.498
		c2.321,0.503,4.605,1.182,6.931,1.653c1.751,0.355,3.555,0.44,5.321,0.732c0.9,0.149,2.215,0.182,1.529-0.923
		c-1.45-2.335-4.213-2.368-6.679-2.9c-2.902-0.626-6.095,0.557-8.758-1.437c0-0.24,0-0.48,0-0.72
		c1.687-1.831,3.775-1.427,5.815-0.961c9.658,2.208,18.201,1.97,26.685-5.18c15.574-13.125,29.376-13.214,43.079,4.335
		c4.38,5.609,7.942,11.958,14.079,16.062c1.719,1.149,2.933,1.142,4.45-0.425c5.765-5.956,7.351-14.222,11.743-20.924
		c0.155-0.237,0.068-0.718-0.047-1.033c-2.009-5.482-1.239-10.669,1.865-15.482c2.263-3.509,5.482-6.561,7.051-10.327
		c3.985-9.563,3.8-20.742,13.275-28.153c3.964-3.1,5.621-9.071,8.542-13.599c5.674-8.797,9.808-17.807,7.916-28.834
		C426.924,137.926,429.138,133.665,432.76,130.521z M361.255,312.762c-2.8-0.172-3.777,0.653-2.51,3.083
		c0.179,0.343,0.134,0.836,0.078,1.244c-0.015,0.106-0.473,0.237-0.71,0.209c-0.565-0.066-1.119-0.219-1.678-0.338
		c0.451,0.664,0.837,1.386,1.365,1.983c2.762,3.124,4.484,6.842,6.181,10.585c0.333,0.735,0.845,1.393,1.323,2.052
		c0.041,0.056,0.555-0.081,0.669-0.25c2.276-3.386,3.947-0.748,5.729,0.576c0.43,0.32,0.773,0.758,1.156,1.141
		c0.249-0.336,0.766-0.751,0.695-0.992c-0.17-0.574-0.495-1.314-0.973-1.55c-3.105-1.536-4.542-5.26-8.122-6.16
		c-0.108-0.027-0.221-0.722-0.12-0.79c1.908-1.282,3.312-4.173,6.351-2.038c0.262,0.184,0.901-0.041,1.292-0.228
		c0.178-0.085,0.327-0.72,0.236-0.795c-0.314-0.256-0.725-0.446-1.126-0.532c-1.754-0.373-3.528-0.654-5.273-1.062
		c-1.089-0.255-1.501-1.118-1.497-2.183c0.004-1.036,0.802-1.015,1.538-1.287c2.885-1.065-0.136-3.85,1.44-5.405
		c0.12-0.118-0.333-1.15-0.739-1.4c-0.81-0.498-1.182,0.152-1.437,0.872C364.417,311.49,363.355,313.043,361.255,312.762z
		 M392.001,283.733c1.212-0.165,2.849-0.276,4.426-0.645c0.932-0.218,1.769-0.845,2.649-1.288c-0.703-0.333-1.43-0.623-2.105-1.006
		c-5.586-3.168-16.899,0.763-19.334,6.728c-0.406,0.995-0.12,1.764,0.835,2.17c0.774,0.329,1.541,0.081,1.671-0.808
		c0.611-4.188,2.419-2.389,4.312-0.975c0.629,0.47,1.532,0.631,2.337,0.757c0.146,0.023,0.702-0.892,0.603-1.241
		C386.212,283.289,388.719,283.265,392.001,283.733z M329.094,252.442c2.835-0.294,5.104-0.487,7.358-0.782
		c1.131-0.148,2.564,0.206,3.152-1.161c0.164-0.381-0.256-1.221-0.65-1.596c-1.145-1.089-2.741-1.545-3.947-0.566
		c-2.213,1.796-4.382,1.399-6.861,0.879c-2.228-0.467-4.592-0.41-6.894-0.38c-3.42,0.045-6.143,3.019-9.824,2.367
		c-0.993-0.176-2.157,0.463-3.193,0.859c-0.149,0.057-0.122,1.213,0.004,1.249c1.022,0.3,2.091,0.647,3.137,0.623
		C317.502,253.794,323.036,246.806,329.094,252.442z M461.253,380.777c0.055-1.967-1.492-3.054-2.8-3.32
		c-2.106-0.429-1.757,3.229-4.06,3.177c-0.075-0.002-0.183,0.225-0.217,0.36c-0.011,0.045,0.15,0.157,0.249,0.203
		c3.204,1.508,5.528,4.027,7.593,6.783c2.124,2.835,2.559,6.663,5.276,9.17c0.247,0.228,0.553,0.393,0.831,0.588
		c0.098-0.162,0.268-0.319,0.282-0.488c0.145-1.824,0.145-3.467-0.992-5.221C465.096,388.446,461.807,385.309,461.253,380.777z
		 M480.633,406.415c-0.227,0.203-0.442,0.32-0.428,0.395c0.061,0.332,0.105,0.719,0.303,0.968
		c5.965,7.484,11.694,15.173,18.77,21.696c0.373,0.344,0.779,0.652,1.17,0.976c-0.219-0.596-0.292-1.316-0.678-1.77
		c-5.039-5.933-10.12-11.83-15.194-17.731C483.283,409.447,481.975,407.958,480.633,406.415z M490.775,285.002
		c0.556,0.047,1.126,0.193,1.667,0.12c1.405-0.19,2.574-1.03,1.812-2.428c-0.8-1.468-2.22-0.035-3.368,0
		c-1.115,0.035-2.243,0.087-3.335,0.295c-2.794,0.531-4.424,2.279-4.72,5.092c-0.055,0.522,0.635,1.123,0.982,1.688
		c0.501-0.366,1.385-0.682,1.441-1.106C485.706,285.25,488.012,284.832,490.775,285.002z M505.689,425.399
		c-0.756,0.492-1.272,0.647-1.387,0.953c-0.117,0.313,0.046,0.864,0.28,1.154c1.952,2.419,3.924,4.824,5.942,7.188
		c0.923,1.081,2.105,3.161,3.299,2.208c1.146-0.914-0.944-2.211-1.685-3.232C510.11,430.874,507.901,428.209,505.689,425.399z
		 M384.228,339.857c-0.662-1.259-1-2.982-1.898-3.355c-1.287-0.535-0.679,1.415-1.331,1.981c-0.321,0.279-0.78,0.537-1.188,0.555
		c-1.248,0.055-2.782-2.331-3.528-0.424c-0.731,1.87,2.16,0.98,2.927,2.09c0.197,0.284,0.537,0.468,0.808,0.702
		c1.143,0.986,2.284,1.973,3.426,2.96C384.565,342.955,382.333,341.204,384.228,339.857z M330.801,282.065
		c1.43-0.231,2.066,0.28,2.192,1.317c0.268,2.207,1.57,3.708,3.265,4.946c0.312,0.228,0.743,0.292,1.119,0.432
		c0.125-0.518,0.524-1.334,0.333-1.51c-2.452-2.26-2.819-6.179-6.22-7.702c-1.049-0.47-1.947-0.688-2.895-0.021
		c-0.17,0.119-0.267,0.661-0.148,0.817C329.123,281.232,329.837,282.123,330.801,282.065z M484.104,172.636
		c-3.15,1.256-0.951,5.066-3.42,6.414c-0.198,0.108-0.121,0.72-0.172,1.098c0.395-0.081,0.902-0.034,1.166-0.265
		c2.238-1.951,4.466-3.88,7.625-4.149c0.196-0.017,0.358-0.432,0.536-0.662C487.554,175.22,485.584,174.524,484.104,172.636z
		 M459.172,152.703c1.149,1.432,1.506,3.341,3.219,3.476c1.31,0.103,2.872-1.141,2.682-2.369c-0.274-1.771-1.447-3.402-2.237-5.093
		C461.634,150.025,460.432,151.333,459.172,152.703z M362.519,396.016c0.044,0.145-0.086-0.285-0.216-0.715
		c-0.168,0.07-0.465,0.112-0.486,0.213c-0.36,1.684-2.931,3.366,0.137,5.093c0.686,0.386,0.918,1.716,1.191,2.66
		c0.236,0.816-0.866,2.622,0.117,2.395c2.467-0.569,1.324-3.535,2.442-5.208c0.448-0.67-0.372-1.003-1.006-1.059
		C362.97,399.241,362.613,398.061,362.519,396.016z M458.719,156.888c-2.288,2.694-4.711,5.519-7.091,8.381
		c-0.311,0.374-0.397,0.934-0.586,1.408c0.569-0.113,1.3-0.04,1.68-0.37c2.665-2.317,5.266-4.708,7.857-7.107
		c0.206-0.191,0.348-0.716,0.232-0.927C460.65,157.984,460.215,157.846,458.719,156.888z M392.524,289.857
		c0.088-0.056-0.262,0.108-0.504,0.371c-0.053,0.057,0.227,0.531,0.441,0.707c2.948,2.434,6.927,1.707,10.17,3.271
		c0.111,0.054,0.641-0.362,0.629-0.535c-0.026-0.384-0.207-1.031-0.439-1.085C399.494,291.809,396.568,289.648,392.524,289.857z
		 M356.75,309.312c-0.667-0.516-1.114-1.138-1.63-1.203c-1.003-0.125-1.102,0.782-1.257,1.546c-0.096,0.469-0.308,0.915-0.469,1.371
		c-0.273-0.136-0.607-0.213-0.808-0.419c-0.58-0.596-1.936-1.093-1.752-0.351c0.463,1.864,1.742,3.531,2.764,5.235
		c0.071,0.118,1.068-0.153,1.065-0.182C354.424,313.109,355.191,311.212,356.75,309.312z M425.92,257.702
		c2.851-2.411,5.719-4.812,8.545-7.26c0.31-0.269,0.384-0.81,0.568-1.224c-0.508,0.007-1.279-0.199-1.484,0.053
		c-2.182,2.687-4.84,4.688-7.997,6.101c-0.416,0.186-0.572,1.032-0.743,1.604C424.782,257.063,425.326,257.322,425.92,257.702z
		 M382.019,379.689c-0.477,0.338-0.94,0.667-1.403,0.996c1.99,0.906,3.93,1.972,5.997,2.637c0.78,0.251,2.903-0.152,2.552-0.888
		C387.786,379.533,384.502,380.868,382.019,379.689z"/>
</g>
</svg>
