<svg xmlns="http://www.w3.org/2000/svg" xmlns:xlink="http://www.w3.org/1999/xlink" viewBox="0 0 306.56 243.71"><defs><style>.cls-1{fill:none;}.cls-2{fill:#fff;}.cls-3{fill:url(#stripes_2);}</style><pattern id="stripes_2" data-name="stripes 2" width="223.6" height="24.62" patternUnits="userSpaceOnUse" viewBox="0 0 223.6 24.62"><rect class="cls-1" width="223.6" height="24.62"/><rect y="19.69" width="223.6" height="2.46"/><rect class="cls-2" y="22.15" width="223.6" height="2.46"/><rect y="14.77" width="223.6" height="2.46"/><rect class="cls-2" y="17.23" width="223.6" height="2.46"/><rect y="9.85" width="223.6" height="2.46"/><rect class="cls-2" y="12.31" width="223.6" height="2.46"/><rect y="4.92" width="223.6" height="2.46"/><rect class="cls-2" y="7.38" width="223.6" height="2.46"/><rect width="223.6" height="2.46"/><rect class="cls-2" y="2.46" width="223.6" height="2.46"/></pattern></defs><title>blackbird-image</title><g id="Layer_2" data-name="Layer 2"><g id="blackbird-image"><path class="cls-3" d="M304.6,124.44c2.82,1.4,2.94,3.53.32,5.19a22.71,22.71,0,0,1-2.83,1.62,12.83,12.83,0,0,0-5.29,4.69,218.68,218.68,0,0,1-14.9,19.92c-7.26,8.3-15.41,15.46-26.16,19.23-3.29,1.15-6.44,2.7-9.66,4a5.26,5.26,0,0,0-3.24,2.75c-1.86,5.23-6.34,8.05-10.4,11.3a42.27,42.27,0,0,1-14.79,7.7,39.24,39.24,0,0,0-11.32,5c-1.83,1.25-4,1.65-6.15,2.16a180.57,180.57,0,0,1-20.67,3.51c-17.09,2-34.14,4-50.88,8.21-12.15,3-24.35,5.89-36.45,9.12q-18.37,4.91-36.73,9.84a47.52,47.52,0,0,0-8.63,3.67,11.76,11.76,0,0,1-4.1,1.41c-.91.08-2,.42-2.57-.62s.14-1.67.65-2.36a25.51,25.51,0,0,1,7.06-6.35c4.43-2.79,9.1-5.17,13.75-7.57,4.41-2.29,8.32-5.31,12.45-8a8.07,8.07,0,0,0,2.17-2.11c2.39-3.35,5.76-5.45,9.33-7.3a112.68,112.68,0,0,1,18-7.3c3.94-1.26,7-3.79,10.29-6a12.25,12.25,0,0,0,2.45-3,6.11,6.11,0,0,1,4.1-2.63,20.23,20.23,0,0,0,4.5-1.64,1.8,1.8,0,0,0,1.29-2,6,6,0,0,1,1.5-4.39,5.71,5.71,0,0,0,1-4.86c-.61-4.3.18-5.84,4.24-7.59,2.57-1.11,3.94-2.87,3.75-5.67-.11-1.54.62-2.56,1.58-3.78a14.11,14.11,0,0,1,8.71-5.26c.27-.06.68,0,.66-.37a1.09,1.09,0,0,0-.46-.67,18.41,18.41,0,0,0-4.67-2.34c-3.82-1.39-7.7-2.62-11.09-5-1.42-1-3.3-1.05-5-1.39-10-2-20.1-2.39-30.58-2.19a191.71,191.71,0,0,0-19.79.54,225.69,225.69,0,0,1-23,.24c-5.82-.14-11.63-.79-17.44-1.11-6.48-.36-13-.63-19.46-.58a48.1,48.1,0,0,1-11.27-1.27A7.48,7.48,0,0,1,1,139.41c-1.16-1.2-1-2.17.5-2.85a29.22,29.22,0,0,1,6.31-1.74c4.79-.94,9.64-1.57,14.43-2.52a22.58,22.58,0,0,1,4.8-.17,80.83,80.83,0,0,0,11.1-.95,3.69,3.69,0,0,0,2.56-1.08c1.25-1.55,3-2,4.83-2.17a55.19,55.19,0,0,0,12.06-3A98.6,98.6,0,0,1,73.73,121a29.24,29.24,0,0,1,4.59-.12,2.16,2.16,0,0,0,2.17-1.12c.83-1.59,2.39-2,4-2.28,2.2-.38,2.2-.37,1.94-2.5-.29-2.37.18-5.29,3.25-6.35,1-.34.59-.66,0-1.11a18.09,18.09,0,0,1-6-8.09,2.86,2.86,0,0,1-.27-.81c-.08-3.34-2.42-5.25-4.73-7.14A26.84,26.84,0,0,1,76.06,89c-.79-.87-1.59-1.91-1.41-3.06.23-1.49-.48-2.18-1.54-3a16.44,16.44,0,0,1-5.64-6.76c-2.15-5.16-6.1-8.66-10.31-12a18,18,0,0,1-3.69-3.65c-.51-.71-1.06-1.48-.41-2.36a2.16,2.16,0,0,1,2.41-.55,12.35,12.35,0,0,1,5.43,3.13c6.72,6.12,14.36,11,21.7,16.35,8.92,6.46,17.7,13.11,25.94,20.43,7,6.24,14.87,11.41,24,14.16a49.2,49.2,0,0,0,24.43,1,9.87,9.87,0,0,0,3.63-1.44c1-.69,2.06-1.48,1.88-2.92-.31-2.48,1.23-3.67,3.21-4.55a9.52,9.52,0,0,1,1.89-.55c.67-.13,1-.44,1-1.14-.06-3.24,2.21-4.48,4.84-5.28a21.22,21.22,0,0,1,6.25-.94,26.94,26.94,0,0,0,2.83-.21c1-.09,1.41-.39.5-1.26a28,28,0,0,1-3-3.39,14.5,14.5,0,0,1-3-7.3,5.35,5.35,0,0,0-1.21-2.93c-.82-1-1.59-2.06-2.37-3.1-1.38-1.83-2.43-3.75-1.78-6.17a2.76,2.76,0,0,0-.8-2.56,23.88,23.88,0,0,0-6.09-4.88c-4.11-2.51-6.73-6.26-9.33-10.1-2.92-4.29-5.94-8.52-9-12.72-1.5-2.07-3.74-3.4-5.73-4.94-4-3.06-7.91-6.13-11.55-9.56a52.29,52.29,0,0,1-4.82-5.28c-3.63-4.56-8.17-8.18-12.62-11.89A3.1,3.1,0,0,0,110.39,9a11.64,11.64,0,0,1-7-5.46c-.46-.72-.93-1.53-.38-2.41a2.34,2.34,0,0,1,2.53-.87,31.37,31.37,0,0,1,7.94,2.33A161,161,0,0,1,130,10.9c7,3.8,14.13,7.49,21.22,11.18,16.05,8.37,32.13,16.67,47.61,26a267.6,267.6,0,0,1,29.63,20.64c3.27,2.64,6.67,5.12,9.92,7.79,7.48,6.16,12.36,13.74,13.2,23.44a26.63,26.63,0,0,0,3.73,12c1.46,2.36,1.93,2.63,4.55,1.86,1.82-.53,3.61-1.14,5.4-1.76,7.2-2.46,14.48-3.21,21.93-1.22,3.83,1,7,2.84,8.62,6.64a18.51,18.51,0,0,0,1.22,2.28,6.29,6.29,0,0,0,4.08,3.32A16.74,16.74,0,0,1,304.6,124.44Z" transform="translate(-0.25 -0.25)"/></g></g></svg>
