<svg xmlns="http://www.w3.org/2000/svg" xmlns:xlink="http://www.w3.org/1999/xlink" viewBox="0 0 203.52 321.84"><defs><style>.cls-1{fill:none;}.cls-2{fill:#fff;}.cls-3{fill:url(#stripes_2);}</style><pattern id="stripes_2" data-name="stripes 2" width="223.6" height="24.62" patternUnits="userSpaceOnUse" viewBox="0 0 223.6 24.62"><rect class="cls-1" width="223.6" height="24.62"/><rect y="19.69" width="223.6" height="2.46"/><rect class="cls-2" y="22.15" width="223.6" height="2.46"/><rect y="14.77" width="223.6" height="2.46"/><rect class="cls-2" y="17.23" width="223.6" height="2.46"/><rect y="9.85" width="223.6" height="2.46"/><rect class="cls-2" y="12.31" width="223.6" height="2.46"/><rect y="4.92" width="223.6" height="2.46"/><rect class="cls-2" y="7.38" width="223.6" height="2.46"/><rect width="223.6" height="2.46"/><rect class="cls-2" y="2.46" width="223.6" height="2.46"/></pattern></defs><title>buzzard-image</title><g id="Layer_2" data-name="Layer 2"><g id="buzzard-image"><path class="cls-3" d="M203.77,292.57v.48c-9.67,2.06-16.46-2.93-22.74-9.23a6.94,6.94,0,0,0-1.19-.77,4.54,4.54,0,0,0,.38,1.37,117.66,117.66,0,0,0,17.85,20.8,10,10,0,0,1,1.46,2.59,11,11,0,0,1-2.65.63c-7.84-.07-11.78-6.33-16.91-10.73-1-.83-1.93-1.68-2.9-2.52-.32,1.77.78,3,1.64,4.32q5.28,8.12,10.5,16.26a7.15,7.15,0,0,1,.59,1.76c-.65-.09-1.3-.14-1.94-.29-10-2.25-14.34-10.6-19.64-17.95-.8-1.11-1.62-2.2-2.43-3.3a32.32,32.32,0,0,0,.83,4.32c2.41,7.28,4.92,14.52,7.39,21.78h-.48c-6.37-3.14-10.28-8.58-13.67-14.53-1.24-2.18-2.68-4.24-4-6.35-.08,2.4,0,4.81-.29,7.19a8,8,0,0,1-1.36,2.89c-.1.17-.86.19-1.07,0-3.17-2.91-6.43-5.69-7.81-10.08-.3-1-1.11-5.9-3.4-.74a1.74,1.74,0,0,1-1.39.76c-6.63-.05-7.55-5.44-9.3-10-.24-.64-.2-1.73-1.27-.86-2,1.68-3.94,1.14-5.53-.48-3.28-3.33-5.49-7.59-9.94-9.94-3.17-1.67-3-5.86-6-8.74-7-6.91-14.73-13.55-20.27-21.73-3-4.36-7.64-7.67-8.68-13.77-.38-2.21-1.34-6.07-4-8-2-1.43-2.52-3.5-3.41-5.64-1.38-3.31-3.3-6.46-4.94-9.64-1.13-2.18-2.29-3.71-1.35-6,.49-1.18.26-1.73-.71-2.31-2.92-1.76-1.84-4.33-1.33-6.77.08-.41.26-.8.36-1.21a1.32,1.32,0,0,0-.45-.21c-.3.35-.72.71-.79,1.12-1,6.32-4.53,11.67-6.67,17.54-1.7,4.62-4.1,4.33-6.95,1.85-1.39-1.2-1.92-3.39-2.83-5.13-.17-.34-.29-.72-.43-1.07a6.88,6.88,0,0,0-.76.86c-2.94,4.68-6.22,5.19-9.3.35-.88-1.4-.49-3.59-.7-5.42a6,6,0,0,0-.23-.9c-.2.07-.51.07-.61.21a5.08,5.08,0,0,1-6.68,1.8c-2.58-1.19-2.58-4.15-2.51-6.68.06-2.12-1-2.14-2.39-1.5-2.41,1.14-4.38.82-6-1.35s-2.15-4.58-.32-7a6.61,6.61,0,0,0,.58-1.48,5.8,5.8,0,0,0-1.72-.57c-2.26,0-5.06.42-5.93-2-1.18-3.38-.14-7.61-4.1-9.88-.08,0,0-.62.2-.87,1.48-2.37,2.68-4.6-.89-6.36a2.84,2.84,0,0,1-1.21-3.81c2.33-4.42-2.34-6.3-3.17-9.52v-.24C4,152.36,8,149.53,13.37,149.18a30.15,30.15,0,0,0,5.27-1.27c0-.06-.05-.17-.07-.17a26.73,26.73,0,0,0-5.32.48c-3.73,1.06-7.81.87-9.53-2.31-2-3.74.34-7.15,4.15-9.14.38-.2.93-.9.85-1-3.14-4.92-1.44-7.76,3.81-9.21.53-.14,2-.11.85-1.43-1.75-2-1.37-4.48-.57-6.42s3.1-1.48,5-1.17c1,.17,2,.29,3,.44a12.85,12.85,0,0,0-.88-3.33A2.92,2.92,0,0,1,20,111.5c2.87-5.4,5.89-1.8,8.68,0,6.1,3.9,12.08,8,18.15,11.91a1.55,1.55,0,0,0,1.5-.37c.4-.65,1.36-1.55.32-2.31-5.42-4,.15-9.3-1.76-14-1-2.57,1-6.28,1.18-9.49.22-4.22-2.28-8.79,2-12.38a.81.81,0,0,0,0-.76c-3-5,5.34-7.61,2.61-12.53,0,0,.32-.28.48-.27,2.37.12,3.05-1.81,2.93-3.32-.33-4.17,4.81-6.35,3.48-11-.57-2,3.86-1.91,3.88-4.78S64,46.4,67.82,46c.33,0,.87-.82.84-1.22-.37-4.56,0-8.57,6-8.67.82,0,1.21-.49,1.13-1.45-.4-4.71,2.46-8,6-9.91,2-1.13,2.25-2.28,2.51-3.91.44-2.77,1.78-5,4.53-5.59,2.56-.56,2.72,2.17,3.79,3.62.29.4.62.77.94,1.16a6.76,6.76,0,0,0,.74-1.37c1.23-4.75.33-10.28,5.1-13.72,1.45-1,2.59-.89,2.91.93.94,5.33,1.74,10.68,2.6,16,0,.31.08.63.12.94.12-.32.28-.63.37-1,2.13-8.18,1.81-17.7,11.75-21.65h.48c0,.56,0,1.12,0,1.68.34,7.31-1.34,14.42-2.1,21.62a8.1,8.1,0,0,0,.32,2.09c.16-.62.32-1.24.49-1.85C118.72,15.55,120.61,7,129,2.39a14.31,14.31,0,0,1,3.17-.91c.09,1.27.57,2.66.21,3.79-2.15,6.82-4.51,13.57-6.73,20.36a37.11,37.11,0,0,0-.9,4.34c.62-1.26,1.27-2.5,1.85-3.78,2.57-5.59,5.64-10.79,11-14.21,1.41-.89,3.11-1.49,4.45-.37.47.39,0,2.23-.4,3.25-2.33,5.74-4.8,11.42-7.18,17.15-.51,1.23-.81,2.55-1.21,3.83.85-.93,1.67-1.89,2.58-2.77,1.73-1.65,3.81-3.62,6.13-2.52,1.6.76.77,3.34.12,4.86-4.08,9.44-7,19.44-13.31,27.83-1.81,2.4-4.32,5.07-4.45,7.72-.17,3.63-.19,7.39-1.84,10.37-6.72,12.17-7,25.4-6.86,38.66.06,6.19,2.67,10.94,9.75,12.08a45.3,45.3,0,0,1,14.44,4.78c4.79,2.56,3.89,8.11,7.44,11.1.67.56.44,3.35-.35,4.2-1.13,1.22-1.39-.93-2.16-1.44-.29-.2-.77-.1-1.16-.17-4.16-.67-7.52,1.81-11.26,2.7-4.57,1.09-10.05,6.65-8.66,11.19,4.92,16.08,12,31.17,22.5,44.42,4.15,5.23,9.4,10,11.09,16.51,3.08,11.87,11.54,20,18.91,28.82,5.05,6,11.8,10.61,17.75,15.89,1.27,1.12.79,1.85-.73,2.17C186,273.77,181.94,268.45,177,265c-.36-.26-.74-.47-1.12-.71a7,7,0,0,0,.51,1.33C183.49,276.66,192.89,285.36,203.77,292.57Z" transform="translate(-0.25 -0.25)"/></g></g></svg>