<svg xmlns="http://www.w3.org/2000/svg" xmlns:xlink="http://www.w3.org/1999/xlink" viewBox="0 0 233.62 250.55"><defs><style>.cls-1{fill:none;}.cls-2{fill:#fff;}.cls-3{fill:url(#stripes_2);}</style><pattern id="stripes_2" data-name="stripes 2" width="223.6" height="24.62" patternUnits="userSpaceOnUse" viewBox="0 0 223.6 24.62"><rect class="cls-1" width="223.6" height="24.62"/><rect y="19.69" width="223.6" height="2.46"/><rect class="cls-2" y="22.15" width="223.6" height="2.46"/><rect y="14.77" width="223.6" height="2.46"/><rect class="cls-2" y="17.23" width="223.6" height="2.46"/><rect y="9.85" width="223.6" height="2.46"/><rect class="cls-2" y="12.31" width="223.6" height="2.46"/><rect y="4.92" width="223.6" height="2.46"/><rect class="cls-2" y="7.38" width="223.6" height="2.46"/><rect width="223.6" height="2.46"/><rect class="cls-2" y="2.46" width="223.6" height="2.46"/></pattern></defs><title>chiffchaff-image</title><g id="Layer_2" data-name="Layer 2"><g id="chiffchaff-image"><g id="tYF3or.tif"><path class="cls-3" d="M115.12,250.55c-5.54-7.86-2.6-16.11-1.16-24.3a8.88,8.88,0,0,0-.18-2.22c-.49.45-.92,1.09-1.5,1.32-1.31.5-2.91,1.44-4,1.08-12-4-11.91,4.51-12.43,12.09-.22,3.13.31,6.31.51,9.47-3.52-3.22-4.12-7.7-4.75-12-2-13.75,8-21.95,14.94-31.56,1.13-1.57,1.83-2.68-.73-2.78-13.1-.53-24.29-10-37.68-8.39-10.73,1.3-20.75,4.46-24,16.91-.32,1.24-1.6,2.23-2.43,3.33a21.86,21.86,0,0,1-1.12-3.79c-.44-3.61-.62-7.24-1.05-10.85-.29-2.45.92-.73,1.46-.57,5.65,1.69,6.13-4.32,9.19-6.46.6-.41-.63-5.16-1.16-5.19a10.39,10.39,0,0,0-10.34,5.76c-1.32,2.47-2.71,2.47-4.15.1-9.64-15.86-6.11-35.85,9-46,7-4.71,4-7.19-.21-11-11.22-10.28-15-25.83-24.15-36.81S3.29,76.69.44,63.08c-1.44-6.9.64-10.69,6.71-16.87,8.82-9,14.45-1.51,21.21-2C34.26,43.78,39,47.39,41,52.75c1.84,5.15,1.35,10.6-1.27,16-4,8.35-6.88,17.2-5.57,26.76,0,.35,1.35.92,1.41.84.56-.68,1.43-1.52,1.37-2.23C35.66,80.52,41.82,69,47.42,57.38a3.43,3.43,0,0,1,3-1.33c2.87,1,7.22.27,7.87,4.47.52,3.43,1.39,7.06-1.9,10.23-7.07,6.81-12.54,14.78-15.38,24.3-.26.86.65,2,1,3.09a11.57,11.57,0,0,0,2-2.69c3.44-9.7,7.37-19.12,15.91-25.56,4-3,8.32-2.16,11.41,1.47A83.23,83.23,0,0,0,90.48,87.67a15,15,0,0,0,2.4,1A9.68,9.68,0,0,0,93,85.63c-3-10.15-1.2-19.85,2.61-29.37a3.38,3.38,0,0,1,.24-.41A4.56,4.56,0,0,1,96.11,57c-.48,5.21-1,10.42-1.47,15.63,0,.48.39,1,.61,1.5a5.47,5.47,0,0,0,.72-1.4C99.29,56.12,99,39.32,98,22.5c-.18-2.73.64-5.2,2.94-6,2.66-1,2.85,2.27,4.11,3.74,5.87,6.92-.19,14.25.85,21.31.1.71.23,1.41.35,2.11.42-.63,1.11-1.21,1.24-1.89,2.3-12.24,4.51-24.5,6.79-36.75.45-2.41,1-4.79,4.27-5s4.42,1.61,5.09,4.34c.45,1.83,1.53,2.67,3.23,1.16,1.38-1.24,2.65-2.58,4-3.88-.86,1.68-1.74,3.35-2.57,5-1.36,2.78-2.68,5.58-4,8.36-.55-3.11-1.06-6.22-1.66-9.33a30.38,30.38,0,0,0-.94-3.18,17.42,17.42,0,0,0-.12,3.22,52.37,52.37,0,0,1-1,20.82,12.59,12.59,0,0,0,0,3.07,13.4,13.4,0,0,0,1.69-2.57c2.78-7.58,5.32-15.26,8.34-22.74.67-1.66,3-3.75,4.51-3.74,2.81,0,4.05,2.85,3.47,5.36-1.33,5.8-3.18,11.47-4.76,17.21a13.59,13.59,0,0,0-.19,2.57A13.64,13.64,0,0,0,135.15,24c2.92-4.66,5.65-9.44,8.72-14,4-6,8.17-8.75,12.14.2.9,2,2.82,3.68,3.45,5.75.55,1.83,6.58,5.75-1.43,5.75-1.25,0-2.51,1-3.76,1.5,1.77.42,3.86,1.67,5.24,1.12,7-2.77,6.92,2.75,6.4,6.16-1.14,7.4,6.9,9.82,7.66,16.12.32,2.62,6.11,4.56.83,7.92-.08.06.08.87.28.94,8.42,3.27-.51,9.55,1.5,11.76,4.72,5.22,1.77,10.46,1.75,15.41,0,7.82-.62,16-3.34,23.18-.79,2.09-.28,3.56-.65,5.24-.81,3.72-1.6,7.41-6.86,6.64-5.44-.81-5.58.37-3.7,5.7,2.21,6.26-10,16.21-16.62,14.55a7.06,7.06,0,0,0-1.66,0c8.65.89-1.81,11.48,7.91,13.81,19.92,4.77,39.83,1.64,59.69,2.68,8,.42,14.28,4.23,20.92,7.69v.5c-4.65,1.1-10.19,4.35-13.78,2.87-9.28-3.79-19.62-3.46-27.41-1.34-19.61,5.31-41.77,6.18-54.45,27.74-5.19,8.81-11,17.39-15.45,26.71-1.67,3.51-1.11,5.82,3.67,3.94a4,4,0,0,1,2.91.53,2.06,2.06,0,0,1,.28,2c-.56.67-1.72,1.54-2.35,1.36-6.61-1.89-7.83,2.88-9.39,7.35-1.91,5.48-3.52,11-2,16.86Zm-9.81-27.92c14.71,2.87,14.7-9.81,19.06-17.72-2.56-.68,6.06-7.14-3.25-5.28-10.44,2.08-13.18,10.79-18.71,17.21-.85,1-1.65,3.17-1.15,3.9C102,221.8,103.9,222,105.31,222.63Zm-8.07-26.27a49,49,0,0,0,5-2.69,2.9,2.9,0,0,0-.64-2.29c-5-3.24-9.54-8-16.32-5.25a62.17,62.17,0,0,0-7.11,4c.17.22.3.59.52.65C84.84,192.63,91,194.48,97.24,196.36ZM157.07,75.63c-11.46,4.75-23.59,9.77-35.69,14.87-.48.2-.62,1.18-.91,1.79a2.8,2.8,0,0,0,1.12.15c12.74-3.73,25.44-7.58,38.22-11.18,4.61-1.29,9.39-2,14.09-3-5,.6-10.05,1.17-15.07,1.82-3.15.4-6.28.91-9.42,1.37l8.8-4.41a9.66,9.66,0,0,0,.95-.62ZM144.39,24.84c-.23-.32-.39-.75-.56-.75a1.3,1.3,0,0,0-.84.43c-4,4.17-8.58,8-11.91,12.62-7.15,10-13.67,20.39-20.4,30.65a7,7,0,0,0-.55,2,9.87,9.87,0,0,0,1.58-1.44c5.53-7.59,10.92-15.28,16.55-22.8C133.49,38.58,139,31.8,144.39,24.84Zm-13.81,3.43-.46-1.1c-.62.33-1.52.49-1.83,1-6.25,10.6-12.55,21.18-18.56,31.92-1.51,2.7-2.07,5.93-3.06,8.92,1.41-2.58,2.81-5.15,4.23-7.72.2-.36.48-.68.69-1Q121.07,44.3,130.58,28.27Zm22.71.13c.37-.14-.1-.09-.41.17-15.2,12.18-28.82,25.87-39.87,42a4.44,4.44,0,0,0-.4,1.11,3.94,3.94,0,0,0,.91-.55L141.2,41.35ZM120.41,98.07a13.55,13.55,0,0,0,1.45,2.56c.23.24.93,0,1.41,0,0-.7-.24-1.54,0-2.08.47-.89,1.17-2.06,2-2.28,14.95-4.09,29.93-8,44.9-12a19,19,0,0,0,2-.82,9.51,9.51,0,0,0-2.36-.16,287.92,287.92,0,0,0-46.72,12.47C122.18,96.12,121.43,97.19,120.41,98.07Zm6.85-36.42-.77-1.15c-2.33,2.59-4.8,5.07-7,7.8s-4,5.77-6.06,8.67c4.86.89,2.89-4.28,5.35-6,7.28-5.19,14-11.24,20.82-17,.41-.34.52-1,.76-1.55a13.45,13.45,0,0,0-1.32.78Q133.15,57.4,127.26,61.65ZM24.87,86.45l3,8.86c3.75-3.42-1.12-6.62-.27-10a2.38,2.38,0,0,0,0-1q-1.24-6.89-2.51-13.79C22.91,74.84,24.54,79.22,24.87,86.45ZM70,77.8a6,6,0,0,0-1.66.52c-5.33,4-11,7.74-15.81,12.33C50,93.06,48.9,97,47.17,100.31c2-2.27,4.07-4.54,6.13-6.79.56-.61,1.17-1.18,1.77-1.75Zm48-45.68a3.26,3.26,0,0,0-.94-.79c-.21-.09-.89.32-1,.63Q109.45,48.9,103,65.88c-.15.38.09.91.15,1.38.28-.09.73-.11.8-.28C108.56,55.52,113.18,44,118,32.12Zm40.67,76.28-.9.48c-.31-.27-.63-.77-.94-.76-10.95.19-21.9.41-32.84.72-.52,0-1,.85-1.53,1.31.3.18.61.53.91.52C134.22,110,145.09,109.28,158.65,108.4Zm-32-25c6.22-2.17,12.16-4.24,18.07-6.39a3.09,3.09,0,0,0-.16-1.59c-7.61-1.22-12,5.11-18.08,7.65Zm5.77,31.05-6.4,1.46c.51.45,1,1.15,1.56,1.32,5.24,1.47,10.51,2.86,15.78,4.23a4.47,4.47,0,0,0,1.55-.18c-.19-.33-.36-.92-.58-1C138.66,119.82,134.57,113.72,132.45,114.5Zm-60-25c-.47,0-.8-.1-1,0-3.76,1.78-7.73,3.24-11.18,5.5-2.69,1.77-4.73,4.54-7,6.89,0,0,.19.31.3.48Zm27.1,129.28c3.94-5.36,7.79-10.59,11.61-15.84.08-.11-.39-.81-.44-.79-4,1.5-4.57,5.78-6.89,8.66-1.27,1.58-2.43,3.24-3.65,4.87-.56.74-1.14,1.48-1.65,2.26C98.51,218,99.08,218.43,99.55,218.82ZM116.76,84.53c4.72-2.8,9.26-5.37,13.63-8.2.86-.56,1.06-2.13,1.57-3.23a22.58,22.58,0,0,0-3.26,1.64c-3.85,2.76-7.63,5.6-11.43,8.44a7.62,7.62,0,0,0-1,1.07Zm41.66,30.17.22,0c-.37-.25-.7-.65-1.1-.72-6.82-1.31-13.65-2.61-20.49-3.81-.69-.12-1.49.39-2.24.61.65.38,1.26,1,1.94,1.11C143.65,112.81,150.57,113.68,158.42,114.7ZM16.13,81.47l-1,.26c.49,1.84.55,4,1.56,5.45,2,2.94.78,7.82,5.44,9.12Q19.6,89.85,17,83.39C16.78,82.73,16.43,82.11,16.13,81.47ZM140.37,63.54a13.18,13.18,0,0,0-2.46,0c-3.74,1.73-7.54,3.35-11.15,5.33-1.13.63-1.72,2.26-2.56,3.43Zm11.1-51.06c-1.69.86-3.81,1.92-5.9,3-.12.06-.07.43-.1.65l5.11-1.44c1.83-.53,1.33.66,1,1.49s-.87,1.6-1.26,2.42a3.4,3.4,0,0,0,.8.48c1.46-1.78,2.87-3.6,4.29-5.41Z"/></g></g></g></svg>