<svg xmlns="http://www.w3.org/2000/svg" xmlns:xlink="http://www.w3.org/1999/xlink" viewBox="0 0 474.73 217.06"><defs><style>.cls-1{fill:none;}.cls-2{fill:#fff;}.cls-3{fill:url(#horizantal_stripe);}</style><pattern id="horizantal_stripe" data-name="horizantal stripe" width="24.62" height="223.6" patternUnits="userSpaceOnUse" viewBox="0 0 24.62 223.6"><rect class="cls-1" width="24.62" height="223.6"/><polygon points="2.46 223.6 2.46 0 4.92 0 4.92 223.6 2.46 223.6"/><polygon class="cls-2" points="0 223.6 0 0 2.46 0 2.46 223.6 0 223.6"/><polygon points="7.38 223.6 7.38 0 9.85 0 9.85 223.6 7.38 223.6"/><polygon class="cls-2" points="4.92 223.6 4.92 0 7.38 0 7.38 223.6 4.92 223.6"/><polygon points="12.31 223.6 12.31 0 14.77 0 14.77 223.6 12.31 223.6"/><polygon class="cls-2" points="9.85 223.6 9.85 0 12.31 0 12.31 223.6 9.85 223.6"/><polygon points="17.23 223.6 17.23 0 19.69 0 19.69 223.6 17.23 223.6"/><polygon class="cls-2" points="14.77 223.6 14.77 0 17.23 0 17.23 223.6 14.77 223.6"/><polygon points="22.16 223.6 22.16 0 24.62 0 24.62 223.6 22.16 223.6"/><polygon class="cls-2" points="19.69 223.6 19.69 0 22.16 0 22.16 223.6 19.69 223.6"/></pattern></defs><title>cuckoo-image</title><g id="Layer_2" data-name="Layer 2"><g id="cuckoo-image"><path class="cls-3" d="M299.06,185c-2.38,2.27-3.95,3.46-5.28.5-.23-.52-1.17-.73-1.78-1.08-.12,3.29-4.81,2.16-5.11,5.53-1,11.58,2.36,14.78,14.18,15.31,6.89.31,13.7,2.48,21.68,4l-7.7,1.7c7,.63,12,1.61,15.16,6.06-13.45-4.92-28.49,1.11-41.6-5-8.62-4-16.73-1.63-25.25-1.48-5.66.11-12.94,1.25-17.37-5.5-1.17-1.77-3.14,1.48-5.25,2.42,1.37-4.63,4.2-7.53,8.43-5.44,9.27,4.58,18.8,3.41,27.6.53,3.78-1.23,2.32-8.58,3.45-13.81-4.67,3.85-10.09,2.83-14.75,4.54-1.08-3.54-7.91.15-7.31-5.89.11-1.11-2.44-1.54-3.24-.32-2.33,3.55-7.44,5.75-9.52,5.24-7.46-1.86-11,4.45-16.52,6.11a9.38,9.38,0,0,1-2.89-.05c2.72-2.28-4.9-2.37-1.1-5a4.09,4.09,0,0,0-1.13-2.87c-5.87-3.38,3.42-2.88.74-5.26-3.19.34-8.13,5.34-9.73,2.06-1.51-3.11,5.15-4.87,8-7.31-.82-.44-2.34-1.17-2.31-1.24.81-1.93.23-4.72,3.24-5.38.66-.14,1.19-.92,1.77-1.41a4.42,4.42,0,0,0-1.33-.37c-33.34,1.53-66.86,1.41-99.93,5.25-19.86,2.31-38.95,11-58.51,16.37-7.42,2-15.18,2.82-22.8,4.07a10.77,10.77,0,0,1-3.21-.5,11.79,11.79,0,0,1,3.05-1.86c13-3.16,26-6.18,39-9.36a20.11,20.11,0,0,0,8.91-4.42c-17,4.24-34.07,8.44-51.1,12.73-6.27,1.58-13.65,4.23-18.7.82-5.91-4-12.12-.33-17.56-3.5-1.53-.9.47-1.72-.72-2.1-3.3-1.06-3.55-2.64.15-2.78,25.1-.94,48.73-9.48,73.15-13.91,3.67-.67,7.37-2.67,10.91-2.36,8,.7,8.8-8.57,15-10.21.23-.06-2-3.48.9-4.75-.44-.3-.56-.45-.69-.47-3.46-.29-8.71,1.43-9.71-1.87-.68-2.22,5.27-3.44,8.26-5,13-7,28.42-7.6,41.14-13.54,9.88-4.61,21.79-5.29,30.14-14,19.77-20.52,46.8-27.51,72.32-37C268.58,74,294.14,68.31,319.2,61c18.37-5.35,32.23-16.43,42.36-32.85C378.12,1.31,408.77-7.67,435.81,7a69.6,69.6,0,0,0,22.87,7.56c6.54,1.05,11.63,4.8,15.3,10.32a9.21,9.21,0,0,1,.75,2.75,14,14,0,0,1-2.6.45,11.45,11.45,0,0,1-3.71-.45c-18.76-6.89-23.5,11.05-33.92,19-14.2,10.87-14.69,28-20.07,42.93-12.86,35.68-32.37,65.83-68,82.77-2.12,1-1,3.13-1.64,4.64-3.31,7.71-2.7,13.61,5.25,18.88,6.63,4.39,12.5,7.94,21,6.93,6.27-.74,12.82.62,19.22,1.29a6.25,6.25,0,0,1,5.47,4.54c.58,1.82.6,3.6-.84,5.11-.49-1.2-.91-2.44-1.48-3.61a24.81,24.81,0,0,0-1.51-2.45c-.45.64-.84,1.75-1.37,1.83a18.35,18.35,0,0,1-4.74,0c-2.67-.33-5.77-1.89-6.08,2.86,0,.43-.86.82-1.32,1.23-3.64-7.84-10.88-1.19-16.42-4.12-9-4.77-19.55-3.78-29.68-2.36-2.95.41-6.24-2.37-9,.85-.09.09-.53-.12-.81-.19a16.34,16.34,0,0,1,1.13-2.43,17.21,17.21,0,0,1,1.83-2c-1-.24-2.24-.91-3.11-.63-3.46,1.13-6,.85-8.53-2.36-.83-1.05-3.82,1.72-6.87,1.24-4.35-.69-3.28-6.13-7.21-6.23C302.15,191.79,296.65,189.37,299.06,185Z"/></g></g></svg>