<svg xmlns="http://www.w3.org/2000/svg" xmlns:xlink="http://www.w3.org/1999/xlink" viewBox="0 0 193.05 176.24"><defs><style>.cls-1{fill:none;}.cls-2{fill:#fff;}.cls-3{fill:url(#horizantal_stripe);}</style><pattern id="horizantal_stripe" data-name="horizantal stripe" width="24.62" height="223.6" patternUnits="userSpaceOnUse" viewBox="0 0 24.62 223.6"><rect class="cls-1" width="24.62" height="223.6"/><polygon points="2.46 223.6 2.46 0 4.92 0 4.92 223.6 2.46 223.6"/><polygon class="cls-2" points="0 223.6 0 0 2.46 0 2.46 223.6 0 223.6"/><polygon points="7.38 223.6 7.38 0 9.85 0 9.85 223.6 7.38 223.6"/><polygon class="cls-2" points="4.92 223.6 4.92 0 7.38 0 7.38 223.6 4.92 223.6"/><polygon points="12.31 223.6 12.31 0 14.77 0 14.77 223.6 12.31 223.6"/><polygon class="cls-2" points="9.85 223.6 9.85 0 12.31 0 12.31 223.6 9.85 223.6"/><polygon points="17.23 223.6 17.23 0 19.69 0 19.69 223.6 17.23 223.6"/><polygon class="cls-2" points="14.77 223.6 14.77 0 17.23 0 17.23 223.6 14.77 223.6"/><polygon points="22.16 223.6 22.16 0 24.62 0 24.62 223.6 22.16 223.6"/><polygon class="cls-2" points="19.69 223.6 19.69 0 22.16 0 22.16 223.6 19.69 223.6"/></pattern></defs><title>curlew-image</title><g id="Layer_2" data-name="Layer 2"><g id="curlew-image"><path class="cls-3" d="M132.56,175.15a78.1,78.1,0,0,1-9.8,1C91.7,177.4,96.33,151.63,92.62,134c-3.25-15.49-12.81-9-18.1-6.07-12.95,7.2-24.57,16.49-35.6,26.93-7,6.63-22.87-2.58-29.8,10.53,1.69-3,3.27-6.08,5.11-9,1.29-2,2.93-3.84,4.41-5.75-2.75,0-5.52-.26-8.25-.06-3.48.25-6.93.85-10.39,1.3,2.47-3,4.35-7.18,7.51-8.66C34.72,130.45,50.59,107.74,63.72,82a56.6,56.6,0,0,1,16-19.24c15.42-11.4,27.91-23.86,31.57-43.91,1.74-9.55,8.27-17.32,19.15-18.73,10.15-1.32,14,7.72,20.69,12.26C161.71,19.5,175.63,21.51,188,26c1.93.69,3.37,2.79,5,4.23-2.1-.29-4.2-.66-6.31-.85C172.35,28,155.43,14.1,145.29,34.79c-3.12,6.35.83,16.34,2,24.6,3.52,24.92-8.55,40.59-27.86,54.93-16.51,12.26-6.34,31.55-4.82,47.6.72,7.61,9.76,5,15.84,5.42,4.75.31,9.39,2.45,14.07,3.78ZM97.48,133.63c3.41,10.93.91,23.11,8.86,32.68,8.33-12.81-3.62-25.09-1.18-37.83.13-.65-3.52-3.08-5.11-2.83C93.73,126.66,101.4,131.54,97.48,133.63Z"/></g></g></svg>