<svg class="bird-image-green-woodpecker" xmlns="http://www.w3.org/2000/svg" xmlns:xlink="http://www.w3.org/1999/xlink" viewBox="0 0 230.64 281.28"><defs><style>.cls-1{fill:none;}.cls-2{fill:#fff;}.cls-3{fill:url(#stripes_thin);}</style><pattern id="stripes_thin" data-name="stripes thin" width="223.6" height="24.62" patternUnits="userSpaceOnUse" viewBox="0 0 223.6 24.62"><rect class="cls-1" width="223.6" height="24.62"/><rect width="223.6" height="2.46"/><rect class="cls-2" y="2.46" width="223.6" height="2.46"/><rect y="4.92" width="223.6" height="2.46"/><rect class="cls-2" y="7.38" width="223.6" height="2.46"/><rect y="9.85" width="223.6" height="2.46"/><rect class="cls-2" y="12.31" width="223.6" height="2.46"/><rect y="14.77" width="223.6" height="2.46"/><rect class="cls-2" y="17.23" width="223.6" height="2.46"/><rect y="19.69" width="223.6" height="2.46"/><rect class="cls-2" y="22.15" width="223.6" height="2.46"/></pattern></defs><title>green-woodpecker-image</title><g id="Layer_2" data-name="Layer 2"><g id="green-woodpecker-image"><path class="cls-3" d="M133,0c.53.35,1.46.64,1.53,1.06.23,1.41-.7,2.37-1.79,3.15-6.76,4.86-14.48,8.31-21.18,13.12-16.66,11.94-28.93,27-29.12,48.92a12.67,12.67,0,0,1-.21,1.61,10.2,10.2,0,0,1-1.12-1.26c-4-6.2-8.71-12.07-8.92-20,0-.12-.13-.23-.2-.35a6.07,6.07,0,0,0-.52.64c-1.61,2.5-2.72,5.47-5.64,6.81a11.67,11.67,0,0,1-3.34.47c-.12-1.67,1-2.38,2.29-3,.38-.18.73-.41,1.1-.62a9.14,9.14,0,0,1-1.29-.38c-.74-.35-1.46-.77-2.19-1.15a10.76,10.76,0,0,1,1.51-1.44c1-.62,2.29-1.25,1.91-2.44s-1.07.58-1.75.27c-2.2-1-5.91-1.62-6.27-3.07-.63-2.58-.19-6.42,4.52-6,.14,0,.29-.17.43-.27-.32-.11-.69-.38-1-.32-3.78.89-7.55,1.85-11.32,2.73a8.56,8.56,0,0,1-2,0A6.29,6.29,0,0,1,49.78,37c3.59-2.24,7.24-4.39,10.86-6.58l.6-.36a1.68,1.68,0,0,0-.37-.2c-7.38-1.9-19.82,3.09-24.14,9.7a8.1,8.1,0,0,0-.45.94,5.71,5.71,0,0,0,1.1-.07c3.75-1,3.53.34,4.51,2.83,1.77,4.45-3,8-1.07,11.21,1.71,2.84,4.29,6,8.06,6.89,3.08.73,4.19,2.33,3.42,5.37a33.52,33.52,0,0,0-.51,3.48c.76-2.23,3.46,2.71,3.85-1,0-.21.52-.44.84-.52.1,0,.49.4.46.57-1.2,6.57,4.92,5.7,7.33,5.53,31.2-2.22,49.29,16.91,64.78,39.69,19.39,28.52,35.3,58.89,43,92.79,2.36,10.47,10.2,15.52,17,21.41,13.22,11.53,25.36,23.83,35.26,38.33,1.75,2.56,4.26,4.6,6.41,6.88v1.68c-3.42.42-6-2-9-2.74-2.1-.5-4.25-.77-6.38-1.14,1.23,1.66,2.56,3.26,3.65,5,.93,1.51,3.53,2.1,2.65,4.63h-1.68c-16.09-5.26-33.88-4.74-48.74-14-2.73-1.7-4.24-5.29-7.49-6.77-.14-.07-.13-.8,0-1.13,1.17-2.71-.38-3.31-2.6-3.5-1.41-.13-2.7-.59-3.18-2.12-.12-.4-.17-1.12.06-1.3,2.83-2.25,0-2.64-1.12-2.74a13.06,13.06,0,0,1-8.09-3.09c-5.51-4.73-9.7-11-17.71-12.93a27,27,0,0,1-14.17-8.85c-2.14-2.47-5.56-5.67-10.31-4.41-7.2,1.89-14.47,2.08-21.61-.56-2.4-.89-4.65-.16-7.08.25-2.81.47-6.18,2-8.78-1.23a15.17,15.17,0,0,0-4-3,6.15,6.15,0,0,0-2-.42,9.44,9.44,0,0,1,0,1.68c-.08.47-.27,1.13-.6,1.27a2.43,2.43,0,0,1-1.51-.2,17,17,0,0,1-1.7-.76c.14.61.29,1.22.39,1.84s.1,1,.15,1.56a6.16,6.16,0,0,1-1.3-.68c-2.58-2.21-3.66-5.27-4.76-8.33-.38-1.06-.87-2.08-1.32-3.11-.9,1.27-.3,2.52.1,3.76a2.08,2.08,0,0,1-.91,2.78,1.28,1.28,0,0,1-1.16-.24c-1.17-1.2-2.27-2.47-3.39-3.72.07,1.78.14,3.55.2,5.33a3.33,3.33,0,0,1,0,1.41c-.9,2-.37,3.3,1.85,3.43,1,.06,2-.77,3-.76a8.15,8.15,0,0,1,3,.9c.42.18.71.7,1.05,1.07a8.63,8.63,0,0,1-2,.9c-6.44,1.18-12.88,2.29-19.32,3.46a5.17,5.17,0,0,0-1.31.69,7.7,7.7,0,0,0,1.18,1c4,2.23,8.09,1.85,12.23.17s7.4-.46,8.54,4.11c.45,1.77.5,4-2.83,3.41-5.93-1.05-11.92-1.82-17.88-2.7a3.19,3.19,0,0,0-.75,0,1.92,1.92,0,0,0,.24.52c2.85,3,5.63,5.8,10.5,4.78,4.28-.89,8.55-.82,8.93,5.26a4.17,4.17,0,0,1-.51,1.47c-.48-.34-1.13-.58-1.43-1-1.25-1.91-2.64-2.95-4.58-.92s-4,1.61-6.55.52c-8.12-3.49-12.58-11.75-20.58-15.33-8.81-3.94-11.68-13.41-18-19.66-1.3-1.28-.82-3.22,1.17-4.4,1.48-.88,4.11-1.45,2.64-4.15-2.16-4-3.84-.25-5.69.49v-1c.93-3.76,3.81-4.78,6.67-3.26,2.09,1.11,4.8,3.28,4.21,6.27-1.45,7.49.78,13.38,6.76,17.9a22,22,0,0,0,3.77,1.86c.37-1.31.66-2.66,1.13-3.94,1.73-4.79,3-9.89,8.05-12.59.93-.5,2.74.91,2.87-1.07s-1.67-2.23-3.15-2.62a10.66,10.66,0,0,1-1.28-.51,4.75,4.75,0,0,1,1.15-.93c3.49-1.28,5,1.08,6.26,3.6,1.76,3.48-.08,5.81-3,7-3.93,1.54-5.78,4.42-6.84,8.18-.26.9-.1,1.26.87,1.21,3.19-.19,6.43,0,9.55-.61,2.59-.48,6.37-.26,7.19-3.18,1.31-4.68.54-9.66.06-14.53-1.48-15-10.43-26.76-17-39.58-9-17.57-17.37-35.9-12.47-56a158.84,158.84,0,0,0,4.13-50.27c-1.78-23.62,9.72-40.58,29.42-45.45A101,101,0,0,1,85.73,9.41c15.06,1.9,28.74-6.2,43.15-9.41ZM140,226.63c-.13-.34-.24-.68-.4-1-2.46-4.9-6.21-5.69-11.59-5.34-3.73.25-4.23,2.25-4.57,4.24-.29,1.74,2.22,1.52,3.56,1.85,2.27.56,4.52.85,5.09-2.43a15.76,15.76,0,0,1,1.15-3c.4,1.09.77,2.18,1.19,3.26s.84,2,1.26,2.95c1.37-.75,2.72-1.82,4.22-.24A1.59,1.59,0,0,0,140,226.63Zm-12.85-10.45c.11-1.05-.27-1.29-1.43-.72-4.13,2-8.38,3.12-12.94,1.36-.2-.08-.87.39-.91.67-.72,4.86,3.73,2.76,5.66,3.93S127.22,218.15,127.17,216.18Z"/></g></g></svg>
