<svg xmlns="http://www.w3.org/2000/svg" xmlns:xlink="http://www.w3.org/1999/xlink" viewBox="0 0 184.88 173.38"><defs><style>.cls-1{fill:none;}.cls-2{fill:#fff;}.cls-3{fill:url(#stripes_thin);}</style><pattern id="stripes_thin" data-name="stripes thin" width="223.6" height="24.62" patternUnits="userSpaceOnUse" viewBox="0 0 223.6 24.62"><rect class="cls-1" width="223.6" height="24.62"/><rect width="223.6" height="2.46"/><rect class="cls-2" y="2.46" width="223.6" height="2.46"/><rect y="4.92" width="223.6" height="2.46"/><rect class="cls-2" y="7.38" width="223.6" height="2.46"/><rect y="9.85" width="223.6" height="2.46"/><rect class="cls-2" y="12.31" width="223.6" height="2.46"/><rect y="14.77" width="223.6" height="2.46"/><rect class="cls-2" y="17.23" width="223.6" height="2.46"/><rect y="19.69" width="223.6" height="2.46"/><rect class="cls-2" y="22.15" width="223.6" height="2.46"/></pattern></defs><title>little-owl-image</title><g id="Layer_2" data-name="Layer 2"><g id="little-owl-image"><path class="cls-3" d="M36.48,31.74c.59-.47.35-.94.25-1.4a1.54,1.54,0,0,1,.78-1.83c.74-.41,1,.3,1.35.66,3.55,3.62,7.45,6.9,10.88,10.65a49.66,49.66,0,0,1,5.42,7.32A27.2,27.2,0,0,0,67.32,58,70.28,70.28,0,0,1,88.11,72c1.13,1.12,2.2,2.31,3.27,3.5A5,5,0,0,0,93,76.72c1.5.67,1.93.53,2.79-.84C99.2,70.39,103.4,65.72,109.44,63c6.43-2.88,13-2.56,19.56-.56A41.33,41.33,0,0,1,133.16,64a1.39,1.39,0,0,0,1.79-.34c7.78-7.89,15.67-15.66,22.86-24.11.41-.49.68-1.49,1.75-.72.37.26.5-.4.65-.67.9-1.75,1.8-3.49,2.62-5.26a3,3,0,0,1,3.11-2,2.25,2.25,0,0,0,2.27-1.21c.49-.78,1.08-1.49,1.61-2.24a3.09,3.09,0,0,1,3.75-1.37,2.09,2.09,0,0,0,2.65-.94,18.88,18.88,0,0,1,2.17-2.86c1.46-1.35,2.2-1.25,3.38.3,4.1,5.45,3.89,11.15.85,16.9-6.74,12.75-16.21,22.82-29.17,29.42-3.47,1.78-6.26,4.18-7.12,8.22-.49,2.35-.05,4.69.17,7a14.28,14.28,0,0,1-5.48,13,16.16,16.16,0,0,0-5.89,9.85c-1.37,6.91-5.25,12.34-10,17.31-2.28,2.4-4.71,4.68-6.76,7.3a32,32,0,0,0-3.32,5.27c-.39.76-.3,1.08.56,1.35a11,11,0,0,0,8.15-.86c2.32-1.08,4.6-2.25,6.91-3.34a25.07,25.07,0,0,1,7.86-2.45,14.48,14.48,0,0,1,6.37.71,4.23,4.23,0,0,1,3,3.34c.07.34.2.76-.18,1a1,1,0,0,1-1-.12,4.74,4.74,0,0,1-.74-.6c-1.32-1.22-2.68-1.21-3.51.39-1.12,2.17-2.57,4.42-.91,7a3.06,3.06,0,0,1,.25,2.78c-.33.89-.72,1.26-1.59.4a39.07,39.07,0,0,0-6.67-5.27,2,2,0,0,0-2.21-.11,15.47,15.47,0,0,0-3.86,3c-.5.53-.51.9,0,1.4a12.18,12.18,0,0,1,1.49,1.72c1,1.4,2.06,2.34,4,1.74,1.08-.35,1.25.36.88,1.22-.66,1.5-2,1.86-3.45,2a9.09,9.09,0,0,1-6.5-2,1.79,1.79,0,0,0-2.18-.29,9.88,9.88,0,0,1-9.27.24,7,7,0,0,0-.69-.19c-2.14-.62-2.07-.58-2.43,1.69-.44,2.8.1,5.59-.16,8.38a5.46,5.46,0,0,1-2.19,4.38c-3,2.22-5.77,4.68-7.53,8.1-.55,1.06-1.68.91-2.68.65a7.9,7.9,0,0,1-2.45-1.49c-.46-.33-1-.73-1.53-.46-3.51,1.72-7.15.63-10.73.56-3.35-.07-6.7-.36-10-.62a44.62,44.62,0,0,1-13.27-3,28.56,28.56,0,0,1-7.79-5.3c-2.32-2-2.33-7.67-.3-10.41a41.55,41.55,0,0,1,6.95-6.76c4.17-3.49,8.45-6.86,11.8-11.22,2.15-2.79,4-5.7,4.23-9.35a13.54,13.54,0,0,0-.23-2.85c-.12-.83-.85-1-1.58-.91a15.19,15.19,0,0,0-1.87.4,3.7,3.7,0,0,1-3.29-.49,6.9,6.9,0,0,0-5.2-.85,2.71,2.71,0,0,1-2.52-.67,8,8,0,0,0-6-2.29c-.55,0-.78-.27-1-.65-1.27-2-2.7-3.58-5.3-3.85-1.26-.13-2-1.39-2.49-2.57a3,3,0,0,0-2.74-2.11,2.81,2.81,0,0,1-2.7-2.73A2.46,2.46,0,0,0,36,103.19c-2.44-.24-3.49-1.52-3.44-4,0-1.4-.35-2.38-1.76-2.86a4.82,4.82,0,0,1-3.46-4.57,1.58,1.58,0,0,0-1.11-1.52,7.45,7.45,0,0,1-4.34-3.89,9.88,9.88,0,0,0-2-2.36,3,3,0,0,1-.85-3.17c.57-2.06.52-2.07-1.3-3.23-.21-.13-.4-.27-.61-.38-1.63-.83-2.85-1.79-2.69-4a4,4,0,0,0-1.85-3.48,1.71,1.71,0,0,1-.89-2c.68-2.26-.32-3.83-2-5.18A1.86,1.86,0,0,1,9,60.26a5.33,5.33,0,0,0-.53-3.37c-.65-1.8-1.17-3.6-.11-5.43.22-.38,0-.59-.28-.77-1.78-1-2.3-2.69-2.58-4.5a12.65,12.65,0,0,0-1.18-4.12A5,5,0,0,1,4,39.26c.18-1.91.23-3.8-1.72-5-.57-.35-.25-.76,0-1.13a7.65,7.65,0,0,0,1-2.55,2.79,2.79,0,0,0-.72-2.44,1.78,1.78,0,0,1,.07-2.76,1.43,1.43,0,0,0,0-2.34c-.25-.26-.4-.61-.65-.86a3.59,3.59,0,0,1-.35-5.25A2,2,0,0,0,1.81,15c-.36-1.05-.67-2.13-1-3.19a1.33,1.33,0,0,1,1-1.94c1-.23.86-.75.54-1.39-.48-1-1-1.9-1.48-2.88A6.47,6.47,0,0,1,.14,1.2C.48-.15.6-.25,1.92.35A13.2,13.2,0,0,1,6.31,3.81c1.58,1.8,3,3.75,4.71,5.44a1.2,1.2,0,0,0,1.91.14c1.4-1.07,2.21-.9,3.33.48a97.23,97.23,0,0,0,7.13,7.78c4.4,4.42,8.9,8.75,12.7,13.72A4.9,4.9,0,0,0,36.48,31.74Z"/></g></g></svg>