<svg xmlns="http://www.w3.org/2000/svg" xmlns:xlink="http://www.w3.org/1999/xlink" viewBox="0 0 257.28 336.48"><defs><style>.cls-1{fill:none;}.cls-2{fill:#fff;}.cls-3{fill:url(#stripes_2);}</style><pattern id="stripes_2" data-name="stripes 2" width="223.6" height="24.62" patternUnits="userSpaceOnUse" viewBox="0 0 223.6 24.62"><rect class="cls-1" width="223.6" height="24.62"/><rect y="19.69" width="223.6" height="2.46"/><rect class="cls-2" y="22.15" width="223.6" height="2.46"/><rect y="14.77" width="223.6" height="2.46"/><rect class="cls-2" y="17.23" width="223.6" height="2.46"/><rect y="9.85" width="223.6" height="2.46"/><rect class="cls-2" y="12.31" width="223.6" height="2.46"/><rect y="4.92" width="223.6" height="2.46"/><rect class="cls-2" y="7.38" width="223.6" height="2.46"/><rect width="223.6" height="2.46"/><rect class="cls-2" y="2.46" width="223.6" height="2.46"/></pattern></defs><title>nightjar-image</title><g id="Layer_2" data-name="Layer 2"><g id="nightjar-image"><path class="cls-3" d="M0,35.52V24.72c.33-2.8.56-5.62,1.12-8.39C1.91,12.47,2.65,8.58,4.49,5,5.6,2.89,7,1,9.36,0H12a12.49,12.49,0,0,1,5.24,4.79A2.89,2.89,0,0,0,18.55,6a22.7,22.7,0,0,1,7.15,5.18A120.43,120.43,0,0,0,41.32,24.77a38.9,38.9,0,0,1,9.12,8.8,15.45,15.45,0,0,0,6.32,5.33,3,3,0,0,1,1.55,1.59,18,18,0,0,0,3.23,4.74c1.51,1.66,3.22,3.11,4.85,4.64a23.73,23.73,0,0,1,5.48,6.62A12.11,12.11,0,0,0,75,60.4c.92.77,1.84,1.53,2.75,2.32a4.1,4.1,0,0,1,1.71,2.92c0,2.78,1.41,4.83,3.3,6.69C87,76.5,89.43,81.45,89.1,87.55a6.65,6.65,0,0,0,1,3.76,16.64,16.64,0,0,0,2.4,3.14c5,5.35,10,10.68,14.92,16.1,7,7.67,12.9,16,17,25.58a17.62,17.62,0,0,0,1.38,2.52,4.6,4.6,0,0,0,3.65,2.2,51.32,51.32,0,0,0,8.13-.26c6.63-.38,13.2-1.24,19.75-2.27,13.4-2.09,26.61-5.09,39.74-8.45,17.5-4.48,35.08-8.61,52.63-12.89a4.92,4.92,0,0,1,1.66-.17c.23,0,.52,0,.61.25s-.2.43-.4.52c-.7.29-1.4.58-2.12.81-9.55,3-19.1,5.9-28.63,8.89a36.6,36.6,0,0,0-12.86,7.52,2.66,2.66,0,0,0-1.1,3.06c.44,1.25,1.52,1.47,2.72,1.53a72.25,72.25,0,0,0,14.68-1.1c9.16-1.38,18.23-3.32,27.38-4.84,1.87-.31,3.71-1.07,5.67-.73v.48a5.81,5.81,0,0,1-2.28,1c-4.82.95-9.61,2.08-14.37,3.28-13.87,3.51-27.66,7.35-41.58,10.66-18.43,4.38-36.56,9.65-53.84,17.55a27,27,0,0,0-2.47,1.22c-2,1.17-2.49,2.43-1.73,4.64.42,1.25,1,2.45,1.51,3.65a76.62,76.62,0,0,1,5.07,15.1c.93,4.26,1.21,8.62,1.85,12.92.86,5.73,1.79,11.45,2.57,17.19.51,3.78,1.85,7,5.16,9.19a13.85,13.85,0,0,1,2.73,2.68c2.85,3.43,2.81,6-.18,9.35-.27.3-.56.57-.83.87a6.67,6.67,0,0,0-.67.84c-.61,1-.42,1.6.64,2.11a7.36,7.36,0,0,0,.9.31c4.37,1.34,6.23,3.74,6.37,8.31a14,14,0,0,0,1.46,5.88,3.55,3.55,0,0,1,.48,1.46,51.73,51.73,0,0,0,1.39,9.35c1,4.7,2,9.4.86,14.23a1.92,1.92,0,0,0,.11.94,21.13,21.13,0,0,1,.79,6.76c-.12,4.82-1.1,9.61-.54,14.47a3.19,3.19,0,0,1-1.62,2.9,7.53,7.53,0,0,0-3.46,5.66c-.24,4.09-.37,8.22,1.35,12.11a33.53,33.53,0,0,1,1.25,3.25,2.92,2.92,0,0,1-1.13,3.7,9.39,9.39,0,0,1-3.15,1.68h-3.36a31.85,31.85,0,0,1-6.81-2.94,119.7,119.7,0,0,1-27.18-22.29c-7.85-8.5-14.74-17.79-21.5-27.16a380,380,0,0,1-31.66-51.72,64.28,64.28,0,0,1-6.83-23.82,30.51,30.51,0,0,0-2.9-10.47,10.53,10.53,0,0,0-8-6.37,16.94,16.94,0,0,0-3.33-.33c-3.23.08-6.46.31-9.7.38-9.3.21-18.61.36-27.88,1.41-2.23.26-2.87-.75-1.93-2.8a3.42,3.42,0,0,1,.21-.43,27.54,27.54,0,0,0,2.47-5.72,22.78,22.78,0,0,1,9.84-13.28c.44-.27.85-.6,1.27-.91a136.1,136.1,0,0,1,15.3-9c2.51-1.33,3-3,1.82-5.57a24.26,24.26,0,0,0-4.35-6.59c-8.62-9-14.74-19.58-19.38-31A310.27,310.27,0,0,1,5.93,71.91a249.27,249.27,0,0,1-4.84-27C.71,41.79.36,38.65,0,35.52Z"/></g></g></svg>