<svg xmlns="http://www.w3.org/2000/svg" xmlns:xlink="http://www.w3.org/1999/xlink" viewBox="0 0 490.85 285.89"><defs><style>.cls-1{fill:none;}.cls-2{fill:#fff;}.cls-3{fill:url(#horizantal_stripe);}</style><pattern id="horizantal_stripe" data-name="horizantal stripe" width="24.62" height="223.6" patternUnits="userSpaceOnUse" viewBox="0 0 24.62 223.6"><rect class="cls-1" width="24.62" height="223.6"/><polygon points="2.46 223.6 2.46 0 4.92 0 4.92 223.6 2.46 223.6"/><polygon class="cls-2" points="0 223.6 0 0 2.46 0 2.46 223.6 0 223.6"/><polygon points="7.38 223.6 7.38 0 9.85 0 9.85 223.6 7.38 223.6"/><polygon class="cls-2" points="4.92 223.6 4.92 0 7.38 0 7.38 223.6 4.92 223.6"/><polygon points="12.31 223.6 12.31 0 14.77 0 14.77 223.6 12.31 223.6"/><polygon class="cls-2" points="9.85 223.6 9.85 0 12.31 0 12.31 223.6 9.85 223.6"/><polygon points="17.23 223.6 17.23 0 19.69 0 19.69 223.6 17.23 223.6"/><polygon class="cls-2" points="14.77 223.6 14.77 0 17.23 0 17.23 223.6 14.77 223.6"/><polygon points="22.16 223.6 22.16 0 24.62 0 24.62 223.6 22.16 223.6"/><polygon class="cls-2" points="19.69 223.6 19.69 0 22.16 0 22.16 223.6 19.69 223.6"/></pattern></defs><title>nightingale-image</title><g id="Layer_2" data-name="Layer 2"><g id="nightingale-image"><path class="cls-3" d="M394.64,0a18.26,18.26,0,0,0,4.48.43C417.65,2,433.7,9.29,447.7,21.37c4.12,3.55,8.31,7,11.62,11.4a6.56,6.56,0,0,0,2.77,1.84c6.26,2.83,12.68,5.28,18.8,8.41a48.11,48.11,0,0,1,8.84,5.52c.21.18.43.35.64.54a1.1,1.1,0,0,1,.37,1.39c-.25.51-.74.55-1.24.53L479,50.61l-25.16-.9A14.52,14.52,0,0,0,448,50.93a46.13,46.13,0,0,1-9.37,2.88,11.86,11.86,0,0,1-2.5.3A9.11,9.11,0,0,0,431,55.76c-6.93,4.11-12.84,9.47-18.89,14.72-7.79,6.75-12.39,15.38-16.08,24.75-4.14,10.52-8.67,20.87-13.74,31-6.78,13.54-16.42,24.7-28.11,34.2a145,145,0,0,1-35.79,21.16,27.78,27.78,0,0,0-5.72,3.23,37.69,37.69,0,0,1-14.7,7,17.67,17.67,0,0,1-6.32.21,10.54,10.54,0,0,0-8.33,2.2c-2.51,1.9-2.74,4-.6,6.3,1.43,1.56,3,3,4.5,4.49q12.21,11.78,24.45,23.54c4.57,4.37,9.51,8.3,14.49,12.21,4.38,3.44,9.39,5.15,14.73,6.23a57.19,57.19,0,0,0,11.75,1.33c3.88,0,7.66.88,10.46,3.94a6.1,6.1,0,0,1,2,5c-.13,0-.28,0-.34,0-3-2.69-6.79-3.2-10.63-3.35a36.72,36.72,0,0,1-6.78-.72c-.48-.11-1.05-.36-1.45.18s-.05,1,.16,1.46c1.6,3.41,3,6.86,4.34,10.39a32.69,32.69,0,0,1,1.44,15.6c-.2,1.61-.34,3.22-.53,5.08a8.87,8.87,0,0,1-1.13-4.9,9.76,9.76,0,0,0-1.76-5.6,28.12,28.12,0,0,1-3.14-7A28.9,28.9,0,0,0,339,257.89a10.9,10.9,0,0,0-6.87-3.26,14.38,14.38,0,0,0-3.71-.11c-3.26.45-5.06,2.19-5.49,5.49-.07.53,0,1.11-.74,1.16s-.89-.52-1-1.08a10.56,10.56,0,0,0-2.42-4.62,12.12,12.12,0,0,1-3-8.86,10,10,0,0,0-2.63-7.23,117.64,117.64,0,0,0-11.62-11.26c-7-6.26-14.12-12.41-21.14-18.65a67.56,67.56,0,0,1-10.5-12,7.42,7.42,0,0,1-1.07-2c-1.05-3.4-2.55-4.58-6.16-5-4.69-.53-9.4-.75-14.06-1.54A117.2,117.2,0,0,1,225,182c-5.28-2.08-10.57-4.12-15.85-6.17-.45-.18-.9-.35-1.35-.49a3.78,3.78,0,0,0-5.13,3.58c-.08,4-.09,8.08,0,12.12.12,3.63.07,7.27.09,10.91q0,11.88.06,23.76a10.22,10.22,0,0,0,.93,4.29c2.43,5.3,5,10.55,6.36,16.26a4.94,4.94,0,0,0,2.27,2.7,28.15,28.15,0,0,1,8,8.33,4.6,4.6,0,0,1,.8,2.76c-3.28-2.54-7.17-2.53-10.87-3.26-.78-.15-1.56-.35-2.32-.57-1.52-.46-2-.25-2.43,1.32-.79,2.77-1.55,5.54-2.33,8.3-1.29,4.62-2.5,9.25-3.42,14a16.33,16.33,0,0,1-1.56,4.39c-.21.41-.39.84-1,.67s-.48-.68-.42-1.1c.41-2.77.8-5.54,1.29-8.29a4.35,4.35,0,0,0-1.07-4,7.07,7.07,0,0,1-1.6-7c.75-2.78,1.45-5.57,2.15-8.35.49-2,0-2.46-1.94-2-7.69,1.82-15.52,3-23,5.55-1.25.42-2.47.9-3.7,1.38a10.57,10.57,0,0,1-4.68.8,5.4,5.4,0,0,0-4.16,1.15c-.29.24-.62.41-1,.17s-.32-.64-.25-1a3.65,3.65,0,0,1,2.48-2.7c2.08-.83,4.19-1.57,6.28-2.35,7.45-2.76,14.79-5.81,22.15-8.81,3.64-1.48,5.49-4.15,6.11-8,.84-5.29.53-10.61.71-15.91.24-6.87.79-13.72,1.1-20.59a211.55,211.55,0,0,0-.55-21.21c-.22-3.83-.44-7.66-.48-11.49a7.45,7.45,0,0,0-1.93-5c-3.12-3.64-6.28-7.26-9.3-11-5.66-7-11.34-14-16-21.67a4,4,0,0,0-4.68-2,24.73,24.73,0,0,1-6.93.18c-3.65-.25-7.25.37-10.86.75-4.14.42-8.27.89-12.43.91-5.56,0-11.09.59-16.62,1.05a49.26,49.26,0,0,1-10.65.16c-.46-.07-1,.17-1.29-.4s.24-.89.57-1.22a114.7,114.7,0,0,1,8.73-8.21,44.69,44.69,0,0,1,7.84-5.07,30.09,30.09,0,0,0,10.54-8.9c3.55-4.81,2.9-8.19-2.23-11.29-3.32-2-6.89-3.55-10.35-5.28A95.27,95.27,0,0,1,94.61,75a8.89,8.89,0,0,0-5.22-2.7c-10-1.54-20.06-3-30.07-4.64C43.18,65,26.9,63,10.91,59.48,8.84,59,6.8,58.46,4.74,58S1.53,56.09.3,54.69c-.64-.72-.15-4.37.53-5.1C3,47.23,5.92,46.23,9,45.64a99.46,99.46,0,0,1,24-1.28c8.42.42,16.82,1.22,25.23,1.8,8.85.61,17.69,1.28,26.53,2.08A138.15,138.15,0,0,0,111,47.9c5.77-.57,11.56-.86,17.34-1.3L149.08,45l16.61-1.27,20.08-1.59c5.18-.41,10.35-.94,15.53-1.2,5.81-.28,11.34-1.79,16.9-3.28Q240,31.82,262.05,26.93c9.12-2,18.3-3.79,27.54-5.21,7.85-1.21,15.73-2.32,23.65-3,8.61-.7,16.64-3.39,24.45-6.85a134.28,134.28,0,0,1,28.63-9.33,126.54,126.54,0,0,1,20-2.35c.39,0,.81.09,1.15-.22Z"/></g></g></svg>