<svg xmlns="http://www.w3.org/2000/svg" xmlns:xlink="http://www.w3.org/1999/xlink" viewBox="0 0 688.42 403.06"><defs><style>.cls-1{fill:none;}.cls-2{fill:#fff;}.cls-3{fill:url(#horizantal_stripe);}</style><pattern id="horizantal_stripe" data-name="horizantal stripe" width="24.62" height="223.6" patternUnits="userSpaceOnUse" viewBox="0 0 24.62 223.6"><rect class="cls-1" width="24.62" height="223.6"/><polygon points="2.46 223.6 2.46 0 4.92 0 4.92 223.6 2.46 223.6"/><polygon class="cls-2" points="0 223.6 0 0 2.46 0 2.46 223.6 0 223.6"/><polygon points="7.38 223.6 7.38 0 9.85 0 9.85 223.6 7.38 223.6"/><polygon class="cls-2" points="4.92 223.6 4.92 0 7.38 0 7.38 223.6 4.92 223.6"/><polygon points="12.31 223.6 12.31 0 14.77 0 14.77 223.6 12.31 223.6"/><polygon class="cls-2" points="9.85 223.6 9.85 0 12.31 0 12.31 223.6 9.85 223.6"/><polygon points="17.23 223.6 17.23 0 19.69 0 19.69 223.6 17.23 223.6"/><polygon class="cls-2" points="14.77 223.6 14.77 0 17.23 0 17.23 223.6 14.77 223.6"/><polygon points="22.16 223.6 22.16 0 24.62 0 24.62 223.6 22.16 223.6"/><polygon class="cls-2" points="19.69 223.6 19.69 0 22.16 0 22.16 223.6 19.69 223.6"/></pattern></defs><title>pheasant-image</title><g id="Layer_2" data-name="Layer 2"><g id="pheasant-image"><path class="cls-3" d="M183.26,348.81l4.15-.23,1.3,5.43-4.18-2.71c-4.78,3.57-2.24,7.49-.12,11.75l-5.83,2.24c-3.32,8.67-5.46,18.15-2.1,30.89-11.64-8.82-8.11-18.55-6.93-27.7-13.13-1.53-25.8,19.24-21.1,34.58-10.67-1.47-9.54-18.61,2.08-30.36,3-3.06,6.29-5.88,11.79-11l-14.11,7.52c-.85-4.27,5.67-9.91,14.33-10.9,8.48-1,10.55-6.58,12.23-13.48,1.54-6.37,4.08-12.49,5.84-18.82s3.16-12.9,4.9-20.16c-12.32-12.95-19.62-30.41-33.41-43.18-9.91-9.18-22.69-6.52-33.94-9.95C77,240.2,49.59,214.69,36.4,173.18,29,149.9,29.67,126.41,30,102.74c.11-7.53,1.42-15.07,2.55-22.56,2.69-17.89-6.05-30.31-19.37-40.94C9,41.08,4,41.15.11,45.56c0-1.39-.27-2.24,0-2.6C9.79,31.67,11.07,15,22.72,5.44,36.13-5.61,58.9,1.12,66,17.13,74.26,35.84,80.28,56,91.27,72.94c13.52,20.86,34.51,34,56.75,46.12,22.82,12.47,45.72,21.77,71.17,26.75,20,3.92,39.79,9.76,60.17,10.28,27.8.71,52.5-12.64,78.33-20.44C449.14,108,542.31,89.13,637.12,77.82c16-1.91,31.84-5.91,47.75-8.95,1-.17,1.9-.29,3.55-.55-2.19,5.34-6.73,6.14-10.69,6.81-42.84,7.24-86.24,12-128.45,21.91-53.9,12.61-108.34,25.5-158.54,49.18-31.64,14.93-64.88,25.45-96.27,40.56-2,1-3.8,2.45-7.63,5,10,1.21,13.75,12.33,27.3,6.16-7.55,7.44-14,4.49-19.62,7.24,9.48,5,20.44,6.65,26.37,16.58-10.51-5.49-22.46-6.18-32.94-12.66s-21.28,10-34.57,0c3.88,11.24,17,16.74,9.83,29.39,3.58,2.59,3.92,5.91-1.4,8.95a1.42,1.42,0,0,0-.43.87c-2.28,11.41-2.28,11.42-15.43,7.67-10.59-3-17.77-4-15.35,12,1.77,11.72-1.24,24.17-2.19,36.29-.48,6.14,1,11.52,5.42,16,2.88,2.92,3.82,6.38,2.23,10.31s-4.89,2-7.62,2.52c-9.39,1.92-19.28,3.52-23,14.66-3.38-4.32-1.55-7.42,10.38-18.23C202.84,328.27,182.58,340.19,183.26,348.81Zm35.27-28c1.05-13.81,1.86-27,3.15-40.22.59-6-3.16-9.53-7.43-9.45-5.27.11-13.93.64-14.76,6.11-2,13.06.7,26.84-9.68,41C201.92,312,209.35,318.54,218.53,320.83Zm-7.28,2.46c-11.32-8.84-21.76-5.19-24,8.58Z"/></g></g></svg>