<svg xmlns="http://www.w3.org/2000/svg" xmlns:xlink="http://www.w3.org/1999/xlink" viewBox="0 0 435.59 346.04"><defs><style>.cls-1{fill:none;}.cls-2{fill:#fff;}.cls-3{fill:url(#horizantal_stripe);}</style><pattern id="horizantal_stripe" data-name="horizantal stripe" width="24.62" height="223.6" patternUnits="userSpaceOnUse" viewBox="0 0 24.62 223.6"><rect class="cls-1" width="24.62" height="223.6"/><polygon points="2.46 223.6 2.46 0 4.92 0 4.92 223.6 2.46 223.6"/><polygon class="cls-2" points="0 223.6 0 0 2.46 0 2.46 223.6 0 223.6"/><polygon points="7.38 223.6 7.38 0 9.85 0 9.85 223.6 7.38 223.6"/><polygon class="cls-2" points="4.92 223.6 4.92 0 7.38 0 7.38 223.6 4.92 223.6"/><polygon points="12.31 223.6 12.31 0 14.77 0 14.77 223.6 12.31 223.6"/><polygon class="cls-2" points="9.85 223.6 9.85 0 12.31 0 12.31 223.6 9.85 223.6"/><polygon points="17.23 223.6 17.23 0 19.69 0 19.69 223.6 17.23 223.6"/><polygon class="cls-2" points="14.77 223.6 14.77 0 17.23 0 17.23 223.6 14.77 223.6"/><polygon points="22.16 223.6 22.16 0 24.62 0 24.62 223.6 22.16 223.6"/><polygon class="cls-2" points="19.69 223.6 19.69 0 22.16 0 22.16 223.6 19.69 223.6"/></pattern></defs><title>rook-image</title><g id="Layer_2" data-name="Layer 2"><g id="rook-image"><path class="cls-3" d="M90.13,0c16.29,3.2,29.5,11.58,35.92,24.49,17.26,34.76,52.47,53.12,83,76.23,24.66,18.69,56.94,20,84.08,32.81,14.14,6.66,21.16,16.86,27.22,28.63a1.85,1.85,0,0,1-.67,1.8c-11.91,4.17,1,4.12,1.36,4.33,29,17.23,65.13,16.46,95.74,29.8,6.76,2.95,13.34,6.09,17.64,11.76,1.07,1.4.84,3.57,1.21,5.39-1.79,0-3.6.14-5.38,0-34-2.54-65.74-14.93-99.52-18.6-.64-.07-1.29-.08-1.93-.12a7.85,7.85,0,0,0,1.34,1.36c28.41,18.19,56.59,36.71,88.95,49.34,3.1,1.21,8.14,3.12,6.69,5.92-1.09,2.12-6.82,3-10.59,3.21-3.57.25-7.8-.18-10.78-1.75-7.25-3.82-14.37.76-21.87,0-14.32-1.39-25.35-8.33-38.16-11.19-29.17-6.51-58.83-11.33-88.39-16.39-7.54-1.29-15.19-.55-19.88,6.53-1.48,2.23-3.95,1.14-6.1.31-5.6-2.16-11.18-4.39-16.9-6.26-1.27-.42-3.1.5-4.68.81,2.38,1.42-1.85,3.83,1.69,5.8,5.94,3.32-3.66,4.64-2.07,9,5.9,16-11.28,25.56-15.31,39.07-2.8,9.39-7.56,18.21-5.77,28.26.66,3.7,2.62,5.68,7.27,5.06,11.49-1.53,13.45,5.59,14.79,13.13,0,.27-.61.65-.94,1a13.56,13.56,0,0,1-2.29-2.4c-2.82-5.06-5-11.28-12.76-3.88a4.09,4.09,0,0,1-3.48.27c-12.24-6.71-12.89,4.89-18.71,8.79-5.6,3.75-13.05,5.45-12.92,13.36,0,.06-.46.13-.71.19-.13-.56-.3-1.12-.38-1.69-1.24-8.28,4.54-14.24,8.73-20.73a7.84,7.84,0,0,0,.63-1.8,12.72,12.72,0,0,0-1.54,1.06c-4.4,4.09-13.21-2.24-16.11,5.38-.19-.24-.59-.57-.52-.69,1.4-2.49,2.18-6.37,4.41-7.22,38.56-14.66,35.25-44.28,33.44-73.17-.41-6.65,5.2-15.47-6.66-19.14-.85-.26-1.74-.43-2.61-.64,0,.85-.24,1.83.15,2.52,2.24,4,1.29,6.89-3.31,8.8-.13.05-.32.23-.3.3,5,14.42-2,8.18-8.14,3.8-.7-.5-2.14-.18-3.23-.24a17.74,17.74,0,0,1,.44,2.59,24,24,0,0,1-.28,2.92,18.83,18.83,0,0,1-4.05-.67,16.3,16.3,0,0,1-3.22-2.18c-.07.4-.29.84-.19,1.2,4.94,18-6.3,29.67-19.81,40.7-3.33,2.71-9.59,6.24-6.9,10.09,2.86,4.1,8.72,0,13.11-1.19,4-1.06,7.79-1.71,11,1.38,2.14,2.06,3.25,4.47,2.48,7.34-1.29-1.33-2.53-2.7-3.89-4-1.72-1.62-5.08-2.24-5.55-.49-2.61,9.73-10.81,4.76-16.9,5.8-12.1,2.07-24.13,1-36.19.51-3.45-.13-7.37-2.67-9.58,1.93a4.41,4.41,0,0,1-.85-.27c.37-1.62.77-3.23,1.23-4.82s1.91-4.26,1.35-4.64c-2.35-1.61-4.74-.21-6.93,1.07a20.07,20.07,0,0,1-2.36,1,8,8,0,0,1,.77-2.52c2-2.83,5.36-5,8.57-3.3,17.54,9,28.35-.51,41.1-9.52,19.5-13.78,7.63-29.35,5.09-43.94-5.45-31.35-23.39-57.9-45.83-81.79-9-9.57-21.06-16.92-21.81-30.72-.35-6.31,1.68-13.32-2.59-18.61-10.78-13.35-1.65-27.25-2.61-40.82,0-.58,0-1.17-.06-1.76a5.89,5.89,0,0,1-.82,1.29c-.65.59-1.43,1.08-2.15,1.62a8.57,8.57,0,0,1-.68-2.12c-.27-6.34.23-12.77-.83-19-3.19-18.77-21-13.09-34-15.43-2.48-.45-5.11-.2-7.62-.55C7.43,33.21,3.73,32.46,0,31.8c1.05-4.11,4.19-6.95,7.84-9.2,12.89-8,27.51-11.36,43-13,10.08-1.07,17.51-9,28-9.54Z"/></g></g></svg>