<svg xmlns="http://www.w3.org/2000/svg" xmlns:xlink="http://www.w3.org/1999/xlink" viewBox="0 0 228.28 190.5"><defs><style>.cls-1{fill:none;}.cls-2{fill:#fff;}.cls-3{fill:url(#stripes_2);}</style><pattern id="stripes_2" data-name="stripes 2" width="223.6" height="24.62" patternUnits="userSpaceOnUse" viewBox="0 0 223.6 24.62"><rect class="cls-1" width="223.6" height="24.62"/><rect y="19.69" width="223.6" height="2.46"/><rect class="cls-2" y="22.15" width="223.6" height="2.46"/><rect y="14.77" width="223.6" height="2.46"/><rect class="cls-2" y="17.23" width="223.6" height="2.46"/><rect y="9.85" width="223.6" height="2.46"/><rect class="cls-2" y="12.31" width="223.6" height="2.46"/><rect y="4.92" width="223.6" height="2.46"/><rect class="cls-2" y="7.38" width="223.6" height="2.46"/><rect width="223.6" height="2.46"/><rect class="cls-2" y="2.46" width="223.6" height="2.46"/></pattern></defs><title>skylark-image</title><g id="Layer_2" data-name="Layer 2"><g id="skylark-image"><path class="cls-3" d="M173.64,56.66a4,4,0,0,1-2.16,1.79,5.35,5.35,0,0,0-3.24,4.17c-.51,3.88-3.24,6.07-6,8.21-3,2.34-6.51,4-9.52,6.39-.55.44-1.35.65-1.6,1.64,1.23.49,2.33-.08,3.4-.22a63,63,0,0,1,16.91.15,3.54,3.54,0,0,1,2,.88c1.91,1.85,4.06,3.55,5.59,5.69A173.15,173.15,0,0,1,190.6,104a72.81,72.81,0,0,1,4.75,11.79c.87,2.6,1.75,5.2,2.58,7.82a39.24,39.24,0,0,0,4.64,9.63,30.81,30.81,0,0,1,3.77,7.84c1.94,6.14,4.9,11.83,7.75,17.57,2.71,5.43,5.3,10.91,7.51,16.59,1.19,3.08,3,5.93,4.33,9,.8,1.82,1.2,3.79,2.35,5.28-.6,1-1.22,1.17-2,.78a40,40,0,0,1-9.51-5.83c-3.29-2.89-5.72-6.44-8.53-10-1.54,1.18-2.64.19-3.77-.88-3.47-3.27-6.09-7.23-8.93-11-2.33-3.1-4.42-6.43-7.87-9.07a19.76,19.76,0,0,0,.72,3.73c.57,1.65,1,3.35,1.41,5.05.18.72.31,1.58-.43,2.06s-1.67-.06-2.2-.66a26.66,26.66,0,0,1-5.15-7.9,6.56,6.56,0,0,0-1.4-2.64c-.9.29-.61,1.06-.67,1.64-.1,1.06-.34,2-1.52,2.3s-1.41-.7-1.87-1.36a19.41,19.41,0,0,1-3.3-6.12,3.87,3.87,0,0,0-1.12-2,5.67,5.67,0,0,0-.6.49c-1.29,1.3-1.81,1.33-3,0a9.94,9.94,0,0,1-1.69-2.75c-.86-2.05-2-4-2.4-6.51-1.92,1.37-3.49,1.6-5.1.29-.67-.55-1.6-.33-2.43-.37a5.93,5.93,0,0,1-5.57-3.52,26.48,26.48,0,0,1-1.94-6.17c-.13-.64-.09-1.35-.72-1.79-2.64,3.36-3.43,3.27-6.29-.7-3.38,2.13-3.83,1.92-5.5-2.62-1.28.49-2.21,1.77-3.73,1.77s-1.81-.2-2.66-2.67c-1,0-1.79.79-2.84.69-1.74-.16-2.32-.85-2-2.59a9,9,0,0,0,.52-2.89c-.53-.62-1.07-.28-1.61-.09a10,10,0,0,1-1.66.53c-2.34.36-4-.2-3.21-3.26a18.7,18.7,0,0,0,.33-2.19,4.46,4.46,0,0,0-2-1.23c-1.07.7-2.21,1.39-3.29,2.16A49.28,49.28,0,0,1,102,120.45c-7.26,2.54-13.83,6.2-19,12C79.86,136,77,140,74,143.67a75.34,75.34,0,0,0-7.83,12.15c-2.32,4.22-5.45,7.94-7.74,12.2a28.76,28.76,0,0,0-1.79,3.28,4.38,4.38,0,0,1-1.74,2.25c-1.19-.63-.76-1.47-.55-2.25A61.7,61.7,0,0,1,57.58,163a57.69,57.69,0,0,1,4.26-8.18,5.93,5.93,0,0,0,.38-.94c-1.11-.14-1.32,1.34-2.52,1.07-.77-1.55.57-2.7.94-4.09-.81-.47-1.52.78-2.51-.07-.48-1.95,1.39-2.93,2.31-4.38s2.32-2.54,3.5-4.18c-1.63-.07-2.34,1.56-3.8,1.2-.14-1.52,1.61-2,1.8-3.42-1.47.4-2.49,1.83-4.43,1.51.35-2.59,3.07-3.37,4.09-5.67-2.81.72-4.84,3.58-8.25,2.34,1.63-3.55,4.66-5.44,7.11-7.78-.25-.58-.57-.3-.83-.2-6.16,2.44-12.27,5-18.25,7.88a33.24,33.24,0,0,1-12,3.07,8.64,8.64,0,0,1-4-.8c-.12-.89.46-.95.92-1.06,7.34-1.73,14.13-4.93,20.85-8.21a178.17,178.17,0,0,0,21.27-11.93c4.69-3.14,9.7-5.83,14-9.45,5.62-4.69,10.39-10.09,12.18-17.5a3,3,0,0,0,.08-2.32c-1.42.21-2.88.46-4.34.64-1.88.23-2.59-.61-2.19-2.47.21-.94.93-1.82.3-3-1.38-.47-2.64.41-4,.6-1.89.26-2.85-.91-2.21-2.69.11-.31.3-.6.43-.9a1.09,1.09,0,0,0,.15-.94c-.87-.52-2.28.74-2.81-.78a3.39,3.39,0,0,1,.71-3.72c.23-.23.42-.5.72-.87-.72-.72-1.58-.39-2.34-.45-2.61-.2-3.12-1.14-1.74-3.29.18-.27.48-.47.45-.85C74,69.5,73.47,68.18,77,65.47a27.93,27.93,0,0,0-5.2-.71A10.84,10.84,0,0,1,67.88,64c-2.53-.9-4.3-2.43-4.75-5.23a4.28,4.28,0,0,0-.81-2.33,2.71,2.71,0,0,1-.19-3.33c-2.37-1.17-4.92-1.31-7.22-2.21-.61-.24-1.26-.36-1.87-.67-2.47-1.24-2.58-1.52-1.18-4-1.69-.47-3.33-1-5-1.37-1.87-.36-3.32-1.52-5-2.27A1.38,1.38,0,0,1,41,41a1.42,1.42,0,0,1,1.42-1.17,7.38,7.38,0,0,0,3-.55,68.3,68.3,0,0,1-7.94-2.47,33.59,33.59,0,0,1-4.42-2.29,1.63,1.63,0,0,1-1-2.06c.35-.91,1.24-.65,2-.68,2.62-.09,5.08.81,7.63,1.18.72.11,1.43.5,2.38,0a33.87,33.87,0,0,0-5.41-3.5c-3.35-1.66-6.71-3.31-10.14-4.83a48.59,48.59,0,0,1-8.75-5.28c-.93-.69-1.68-1.52-.52-2.62-1.59-1.4-3.42-1.85-5-2.65a39.52,39.52,0,0,1-12-9.21,26.61,26.61,0,0,1-2-3.16A1.05,1.05,0,0,1,.31.28C.73-.16,1.2,0,1.7.15c5.3,1.41,10.55,3,15.78,4.64,3.95,1.26,8.08,2,12.06,3.16,5.5,1.63,10.94,3.44,16.39,5.24a65.62,65.62,0,0,0,9,2.06,73.08,73.08,0,0,1,15.4,5C73.73,21.66,77.38,22,81,22.72c1.87.38,3.77.64,5.64,1,5.61,1.22,11.19,2.55,16.66,4.29,2.83.9,5.46,2.44,8.27,3.49a115.5,115.5,0,0,1,11.91,5.09A34.86,34.86,0,0,1,128.37,40a4.81,4.81,0,0,1,1.75,2.67,45.64,45.64,0,0,1,1.76,10,24,24,0,0,1-.87,7.16,15.47,15.47,0,0,0-.52,2.19c-.21,1.72.51,2.37,2.18,1.85a37.78,37.78,0,0,0,11.89-5.63,26.72,26.72,0,0,1,14-5.43,12,12,0,0,1,7,1.39A10.43,10.43,0,0,0,171,55.75,3,3,0,0,1,173.64,56.66Z"/></g></g></svg>