<svg xmlns="http://www.w3.org/2000/svg" xmlns:xlink="http://www.w3.org/1999/xlink" viewBox="0 0 197.3 124.53"><defs><style>.cls-1{fill:none;}.cls-2{fill:#fff;}.cls-3{fill:url(#vertical);}</style><pattern id="vertical" data-name="vertical" width="14.19" height="68.28" patternUnits="userSpaceOnUse" viewBox="0 0 14.19 68.28"><rect class="cls-1" width="14.19" height="68.28"/><rect x="11.35" width="1.42" height="68.28"/><rect class="cls-2" x="12.77" width="1.42" height="68.28"/><rect x="8.51" width="1.42" height="68.28"/><rect class="cls-2" x="9.93" width="1.42" height="68.28"/><rect x="5.68" width="1.42" height="68.28"/><rect class="cls-2" x="7.09" width="1.42" height="68.28"/><rect x="2.84" width="1.42" height="68.28"/><rect class="cls-2" x="4.26" width="1.42" height="68.28"/><rect width="1.42" height="68.28"/><rect class="cls-2" x="1.42" width="1.42" height="68.28"/></pattern></defs><title>sparrowhawk-image</title><g id="Layer_2" data-name="Layer 2"><g id="sparrowhawk-image"><path class="cls-3" d="M117.44,88.53c-.8.83-2-.25-2.43.89.15.17.28.47.46.49,6.89,1.1,13.86,1.85,20.66,3.34a121,121,0,0,1,18.71,5.19c2.54,1,5.44.37,7.94,1.34,5.4-1.81,10.33-4.55,15.82-5.78a5.52,5.52,0,0,0,1.84-1.25c3.5-2.65,7.68-4.1,11.39-6.39a9.28,9.28,0,0,1,4.52-1.11c1.5,1.21.93,2.41.23,3.44C194,92.51,191.88,97,188,99.43c-4.2,2.63-8.68,5.2-14,5.2a46.14,46.14,0,0,1-12.56-1.72,11.46,11.46,0,0,0-5.49,0c-7.11,1.31-13.83,4.23-21.07,4.92A170.74,170.74,0,0,0,117,111a15.41,15.41,0,0,1-6.34-.2c-4.14,2.08-8.59,1.41-12.86.89a45.11,45.11,0,0,0-8.85,0c-4.43.36-9,.16-13.34,1.14-1.1.24-2.23.29-3.31.57-3.73,1-7.35,2-11.39,1.45-2.35-.31-4.89.92-6.88,2.57a14.41,14.41,0,0,1-6.34,3,20.53,20.53,0,0,0-5.22,2c-5.6,3-11.3,2.49-16.83,0-1.88-.87-4.05-.19-6.12-1.89-1.17-1.67-2.6-3.85-4.68-5.16a2,2,0,0,1,1.23-2.29,19.6,19.6,0,0,1,5.26-1.94A167.26,167.26,0,0,0,47,102.35l1.69-2.58c-.15-.24-.21-.43-.28-.44-5.45-.58-10.66-1.92-15.35-5-1.28-1.54-2.49-3.29-4.26-3.46-1.42-1.15-1.16-2.45-1.75-3.59-1.7-1-3.58-2.13-3.73-4.57-1.95-1.31-4-2.42-4.69-4.68-2.5-.9-4.7-1.82-6-4.32-.62-1.18-2.29-1.81-3.43-2.65-.71-.9,0-1.74-.05-2.82L7.36,65.77c1.34-2.37-1.47-5.16.84-7.68-1.53-1.43-3.66-1.89-4.49-4s-.1-3.63,1.07-5.24a5,5,0,0,1-.87-5.4C3.4,41.71,2,40.81,1.66,39.28c-.26-1.18.63-2.12.78-3.1C1.64,34.34.21,33,0,31.23c-.09-2,3.06-2.61.94-5A21.51,21.51,0,0,1,7.4,27a30.92,30.92,0,0,0-2.95-9.74C3,14.4,3.7,11.45,3.67,8.53c0-.24.5-.49,1-.92,2.13,2.52,3.25,5.57,5,8.2a44.2,44.2,0,0,0,6.07,7.7C12.52,15.87,8.5,8.34,13,0c1.53,0,1.72.76,1.87,1.51q.76,3.84,1.52,7.7a34.51,34.51,0,0,0,6.53,14.94c-.85-3.76-1.57-6.81-2-9.92-.66-4.67.06-8.93,2.93-12.74A2.33,2.33,0,0,1,25.67.33c1.5.66,1.09,2.06,1.1,3.23,0,4,0,8,0,12A27.69,27.69,0,0,0,30,27.79c-.29-7.55-1.83-15.35,4.48-21.37,1.52.52,1.44,1.48,1.41,2.32a79.12,79.12,0,0,1-.49,9,33.15,33.15,0,0,0,2.06,16.54A11.74,11.74,0,0,0,40,38c-.35-3.42-1.08-6.45-.86-9.42a9.51,9.51,0,0,1,4.4-7.72c1.55.95,1.27,2.25,1,3.45-1,5,0,9.94.56,14.89.55,4.61,3.46,7.58,6.85,10.28,3.9,3.11,8.3,5.75,11.48,9.59,5.65,6.82,13.09,11.49,19.68,17.17,3.16,2.72,6.82,4.1,11.09,2.54,1.29-.47,2.68-.62,4-1.05,5-1.65,9.89-.86,14.72.57,4.2,1.23,6.39,5,4.89,8.66A7.78,7.78,0,0,0,117.44,88.53Z"/></g></g></svg>