<svg xmlns="http://www.w3.org/2000/svg" xmlns:xlink="http://www.w3.org/1999/xlink" viewBox="0 0 170.51 148.04"><defs><style>.cls-1{fill:none;}.cls-2{fill:#fff;}.cls-3{fill:url(#horizantal_stripe);}</style><pattern id="horizantal_stripe" data-name="horizantal stripe" width="24.62" height="223.6" patternUnits="userSpaceOnUse" viewBox="0 0 24.62 223.6"><rect class="cls-1" width="24.62" height="223.6"/><polygon points="2.46 223.6 2.46 0 4.92 0 4.92 223.6 2.46 223.6"/><polygon class="cls-2" points="0 223.6 0 0 2.46 0 2.46 223.6 0 223.6"/><polygon points="7.38 223.6 7.38 0 9.85 0 9.85 223.6 7.38 223.6"/><polygon class="cls-2" points="4.92 223.6 4.92 0 7.38 0 7.38 223.6 4.92 223.6"/><polygon points="12.31 223.6 12.31 0 14.77 0 14.77 223.6 12.31 223.6"/><polygon class="cls-2" points="9.85 223.6 9.85 0 12.31 0 12.31 223.6 9.85 223.6"/><polygon points="17.23 223.6 17.23 0 19.69 0 19.69 223.6 17.23 223.6"/><polygon class="cls-2" points="14.77 223.6 14.77 0 17.23 0 17.23 223.6 14.77 223.6"/><polygon points="22.16 223.6 22.16 0 24.62 0 24.62 223.6 22.16 223.6"/><polygon class="cls-2" points="19.69 223.6 19.69 0 22.16 0 22.16 223.6 19.69 223.6"/></pattern></defs><title>starling-image</title><g id="Layer_2" data-name="Layer 2"><g id="starling-image"><path class="cls-3" d="M170.51,120.89a12.41,12.41,0,0,1-4.2-1.7c-3-1.51-5.81-3.29-9.22-3.72a4.25,4.25,0,0,1-1.61-.82q-4.26-2.78-8.49-5.6a9.76,9.76,0,0,0-4.63-1.73,5.94,5.94,0,0,1-2.06-.59,72.68,72.68,0,0,0-23.3-6.58,5.36,5.36,0,0,0-5.15,2.83c-4.69,7.88-11,14.49-16.51,21.75a2.17,2.17,0,0,0-.21,2.84q2.36,3.65,4.62,7.33c2.27,3.72,2,7.38-.32,11-.27.41-.52,1-1.11.82s-.46-.9-.35-1.43.32-1.18.48-1.76c.46-1.67.39-3.11-1.21-4.28a10.36,10.36,0,0,1-2.91-4c-.92-1.84-1.82-3.69-2.74-5.53-1.45-2.89-4.17-4.33-6.91-5.44-3.45-1.38-8.64,1.78-9.6,5.47-.11.44,0,1.19-.64,1.2s-.49-.75-.63-1.19c-.72-2.08-.08-3.64,1.59-5.1,3.07-2.69,6.75-3.17,10.57-3.33.78,0,1.56-.05,2.33,0a6.27,6.27,0,0,0,6.14-3.15c1.33-2.19,3.39-3.81,5.18-5.63a23,23,0,0,0,3.4-4.1c.7-1.16,1-2.37,0-3.54a1.64,1.64,0,0,1-.38-1.39,2.67,2.67,0,0,0-2.17-3.09c-2.17-.68-4.35-1.33-6.56-1.88-1.44-.37-2.22.5-2.49,1.8-.35,1.68-.57,3.39-.88,5.08a6.38,6.38,0,0,1-3.35,4.72,9.33,9.33,0,0,0-2.32,2.37c-3.42,3.87-7.4,7.24-10.5,11.39-3.83,5.13-3.62,4.38-.42,9.52,2.24,3.6,5.11,6.71,7.77,10,1.39,1.71,1.09,3.75-.59,4.5-.79.35-1.49.3-1.13-.74.57-1.67-.32-2.44-1.48-3.28-2.29-1.65-3.83-4-5.5-6.22a20.75,20.75,0,0,0-4.1-4.57,4,4,0,0,0-3.27-.93c-4.4.93-8.85,1.64-13.19,2.86-4.18,1.17-5.11,2.4-5.36,6.78,0,.54.41,1.46-.39,1.54s-.65-.9-.79-1.47-.3-1.41-.42-2.12q-.9-5.52,4.34-7.63A39.43,39.43,0,0,1,56,130.52a13.69,13.69,0,0,0,7.1-4C68.85,120.56,74.8,114.8,80.73,109a2.14,2.14,0,0,0,.63-2.74c-1.3-3.13-2.37-6.36-4.31-9.18A14,14,0,0,0,71.23,92C64,88.78,58.4,83.57,53.47,77.49,45.61,67.8,40.53,57,39.11,44.49c-.4-3.48-.56-7-.73-10.47a5.47,5.47,0,0,0-.8-2.65c-1.76-3-3.42-6-5.14-9-2.06-3.57-4.72-6.49-8.79-7.73-2.41-.74-5-.59-7.44-.65A105.9,105.9,0,0,1,1.43,13C.9,12.91.15,13,0,12.37s.59-.88,1-1.16C4.93,8.78,9.34,8.13,13.74,7.46c5-.75,10-1.12,14.92-2.59a34.42,34.42,0,0,0,4.95-2c9.75-4.7,19.11-3.54,27.94,2.27,5.72,3.77,11,8.15,14.88,13.93A26.43,26.43,0,0,0,81.25,25a26,26,0,0,0,6,3.95c7.27,3.19,12.79,8.47,17.92,14.34,7.2,8.24,14.77,16.16,21.3,25a261.33,261.33,0,0,1,14.92,21.89c3.62,6.08,8.54,10.89,13.64,15.63,3.59,3.32,7.2,6.61,11.06,9.61A14.11,14.11,0,0,1,170.51,120.89Z"/></g></g></svg>