<svg xmlns="http://www.w3.org/2000/svg" xmlns:xlink="http://www.w3.org/1999/xlink" viewBox="0 0 210.31 189.63"><defs><style>.cls-1{fill:none;}.cls-2{fill:#fff;}.cls-3{fill:url(#stripes_2);}</style><pattern id="stripes_2" data-name="stripes 2" width="223.6" height="24.62" patternUnits="userSpaceOnUse" viewBox="0 0 223.6 24.62"><rect class="cls-1" width="223.6" height="24.62"/><rect y="19.69" width="223.6" height="2.46"/><rect class="cls-2" y="22.15" width="223.6" height="2.46"/><rect y="14.77" width="223.6" height="2.46"/><rect class="cls-2" y="17.23" width="223.6" height="2.46"/><rect y="9.85" width="223.6" height="2.46"/><rect class="cls-2" y="12.31" width="223.6" height="2.46"/><rect y="4.92" width="223.6" height="2.46"/><rect class="cls-2" y="7.38" width="223.6" height="2.46"/><rect width="223.6" height="2.46"/><rect class="cls-2" y="2.46" width="223.6" height="2.46"/></pattern></defs><title>swift-image</title><g id="Layer_2" data-name="Layer 2"><g id="swift-image"><path class="cls-3" d="M202.94,131.37a14.23,14.23,0,0,0-7.64,1.79c-7.54,3.89-15.69,3.89-23.92,3.41-13-.76-13.6-.14-14.44,13a20.66,20.66,0,0,0-.24,4c1.36,9.94-4.14,14.48-12.74,17.19s-17,6-25.42,9c-11.63,4.18-24,3.76-36,5.06-19,2.06-38,5.21-57.23,4.81-1.49,0-3,0-4.49-.1-1.78-.16-4.05.26-4.94-1.67-1.11-2.43,2-2.63,2.69-4,1.86-3.57,6.66-4.54,7.55-8.84a1.09,1.09,0,0,1,.66-.71c5.7-1.15,8.25-6.58,12.11-9.87,7.82-6.69,17.24-9.2,26-13.38,2.56-1.21,4.52-3.19,7.08-4.5,6.5-3.32,12.67-7.13,20.17-8,2.35-.28,2.86-2.26,1.89-4.65-2.29-5.66-5.09-11.25-3.81-17.68.37-1.89-1-2.16-2.25-2.71-2.11-1-4.55-1.57-6.27-3-10.1-8.53-22.49-10.22-34.86-12.11-12.68-1.93-25.35-4-38-6C6.92,92,5,91.56,3,91.06c-1.26-.33-2.87-.62-3-2.21C-.15,87.09,1.59,87,2.76,86.49c8-3.6,16-7.2,24.89-8.27,2.06-.25,1.76-1.3,1.35-2.79-1.16-4.13-3.09-8-3.53-12.38-.14-1.38-2.12-2.83-.68-4s2.74.48,4,1.2C37,65,45.57,69.25,53.18,74.85c14.57,10.73,30.83,12.44,48,11a2.81,2.81,0,0,1,.5,0c8.67.92,15.29-1.4,19.35-10.08,1.53-3.28,3.4-4.36,1.09-9-4.83-9.72-10.62-19-15-28.84-2.24-5-3.53-10.49-5.88-15.57-2-4.34-3.45-8.94-5.07-13.45-.88-2.45.28-5-.46-7.63C95.17-.5,97.52,0,98.68.46a48.57,48.57,0,0,1,10.53,6.67c15.33,12,30.35,24.49,46.05,36A79.81,79.81,0,0,1,173.14,61c4.41,6.14,7,12.21,2.89,19.85-2.93,5.45-3.37,11.77-3.66,18-.2,4.15,1.38,6.15,5.59,6.47a41.3,41.3,0,0,1,8.81,1.68c6.82,2.08,12.25,6,15,12.89,1.15,2.92,3.34,4.89,5.75,6.76,1.36,1.05,3.58,2.19,2.58,4.27-.86,1.77-3,.54-4.6.64C205,131.54,204.46,131.46,202.94,131.37Z"/></g></g></svg>