<svg xmlns="http://www.w3.org/2000/svg" xmlns:xlink="http://www.w3.org/1999/xlink" viewBox="0 0 215.52 210.24"><defs><style>.cls-1{fill:none;}.cls-2{fill:#fff;}.cls-3{fill:url(#horizantal_stripe);}</style><pattern id="horizantal_stripe" data-name="horizantal stripe" width="24.62" height="223.6" patternUnits="userSpaceOnUse" viewBox="0 0 24.62 223.6"><rect class="cls-1" width="24.62" height="223.6"/><polygon points="2.46 223.6 2.46 0 4.92 0 4.92 223.6 2.46 223.6"/><polygon class="cls-2" points="0 223.6 0 0 2.46 0 2.46 223.6 0 223.6"/><polygon points="7.38 223.6 7.38 0 9.85 0 9.85 223.6 7.38 223.6"/><polygon class="cls-2" points="4.92 223.6 4.92 0 7.38 0 7.38 223.6 4.92 223.6"/><polygon points="12.31 223.6 12.31 0 14.77 0 14.77 223.6 12.31 223.6"/><polygon class="cls-2" points="9.85 223.6 9.85 0 12.31 0 12.31 223.6 9.85 223.6"/><polygon points="17.23 223.6 17.23 0 19.69 0 19.69 223.6 17.23 223.6"/><polygon class="cls-2" points="14.77 223.6 14.77 0 17.23 0 17.23 223.6 14.77 223.6"/><polygon points="22.16 223.6 22.16 0 24.62 0 24.62 223.6 22.16 223.6"/><polygon class="cls-2" points="19.69 223.6 19.69 0 22.16 0 22.16 223.6 19.69 223.6"/></pattern></defs><title>tawny-owl-image (2)</title><g id="Layer_2" data-name="Layer 2"><g id="tawny-owl-image"><path class="cls-3" d="M215.52,36.24v7.2a1.24,1.24,0,0,0-.18.8c-.1,1-.16,2.07-.31,3.1-.52,3.39-1.06,6.78-1.83,10.13A95.55,95.55,0,0,1,208,73.64c-1.52,3.57-3.15,7.09-4.69,10.64a91.9,91.9,0,0,0-4.62,13,55.73,55.73,0,0,0-1.91,11.19,13.47,13.47,0,0,1-.45,3.67,15.45,15.45,0,0,1-2.73,4.76,23,23,0,0,0-4,6c-.17.44-.55.52-1,.56a7.52,7.52,0,0,0-5.19,2.88,18.88,18.88,0,0,0-2.19,3.15,19.7,19.7,0,0,1-6.13,6.77c-3.8,2.65-7.52,5.43-11.28,8.14a20,20,0,0,0-4.45,4.32c-1,1.35-2,2.71-3,4a17.62,17.62,0,0,1-6,5.58.81.81,0,0,0-.52.7,33.62,33.62,0,0,1,1.48,3.32,6.33,6.33,0,0,1,0,3.53,6.53,6.53,0,0,1-2,3.17c-.47-2.11-.31-4.11-.76-6.18-.48.48-.85.89-1.26,1.27a5.83,5.83,0,0,1-3.5,1.67,7.89,7.89,0,0,1-3-.53c-2.36-.7-3-.41-4,1.87-.38.85-.79,1.09-1.7.88a10.78,10.78,0,0,1-1.35-.47,11.58,11.58,0,0,1-3.06-2.08,7.65,7.65,0,0,0-3.34-1.51,11.44,11.44,0,0,0-4.17.14,29.88,29.88,0,0,1-5.81.64,1.45,1.45,0,0,0-.36,0c-.83.11-1.1.42-1.13,1.26a5.63,5.63,0,0,0,.75,2.62c1.08,2.3,2.7,3.95,5.36,4.27,1.07.13,2.14.27,3.21.37,2.07.18,4.14.3,6.2.53a10.84,10.84,0,0,1,3.24.8,4.38,4.38,0,0,1,2.58,4.59,14.44,14.44,0,0,1-.91,4.08c-.07.21-.11.48-.49.45-.24-.61-.44-1.25-.72-1.86a1.76,1.76,0,0,0-2-1.08,6.53,6.53,0,0,0-1.83.54,7.06,7.06,0,0,1-3.73.52,26.38,26.38,0,0,0-5.25-.34,5.19,5.19,0,0,0-1.75.4,1.37,1.37,0,0,0-.84,1.93,6.71,6.71,0,0,0,.46,1.1c.66,1.15,1.33,2.29,2,3.41,1.75,2.81,3.6,5.57,5.13,8.52a11.16,11.16,0,0,1,1.52,7.12,6.31,6.31,0,0,1-1.39,3.25c-.27-.81-.52-1.6-.79-2.38a6.87,6.87,0,0,0-4.55-4.58,5,5,0,0,1-2.71-2.07,25.87,25.87,0,0,1-1.54-2.71,11,11,0,0,0-4.4-4.93,35.6,35.6,0,0,1-3.24-2.27c-1.86-1.38-3.69-2.81-5.65-4.05a14.64,14.64,0,0,0-4.54-2.13,3.88,3.88,0,0,0-5,3.13,6.71,6.71,0,0,0-.25,1.78c0,.3.08.65-.23.88a5.13,5.13,0,0,1-3.87-5.44,25.19,25.19,0,0,1,.67-3.65,4.4,4.4,0,0,1,1.1-2,19.52,19.52,0,0,1,2.12-1.95,11.29,11.29,0,0,0,1.91-1.81,4.33,4.33,0,0,0,1.16-2.36,6.78,6.78,0,0,0-3.71,1.7,63.94,63.94,0,0,1-6.25,4.22,14,14,0,0,1-1.9,1,8,8,0,0,1-8.08-.88,2.44,2.44,0,0,1-1.06-3.13c.2-.69.48-1.35.66-2a2.38,2.38,0,0,0,.22-1.52,3.43,3.43,0,0,0-1.19-.13,36.63,36.63,0,0,0-4.9.24A24.19,24.19,0,0,0,63,173.05a30.84,30.84,0,0,0-9.49,8.67c-3.2,4.29-6.49,8.52-10,12.55-1.84,2.11-3.65,4.25-5.48,6.36a59.55,59.55,0,0,1-4.94,5.23,17.26,17.26,0,0,1-7.14,4,3.25,3.25,0,0,0-1.25.35H19a.61.61,0,0,0-.21-.11,28,28,0,0,1-6.84-2c-3.24-1.38-6.5-2.59-10.08-2.65A1.94,1.94,0,0,1,0,204v-.24A13.84,13.84,0,0,1,1.23,201c3.35-5.82,6.66-11.66,10.06-17.45,4.8-8.16,9.6-16.33,14.07-24.68a13,13,0,0,0,1-2.08,2.75,2.75,0,0,0-1.2.58A134.93,134.93,0,0,0,13,166.93a83.71,83.71,0,0,1-8.15,6.12c-.32.2-.6.55-1.15.39a3.85,3.85,0,0,1,.11-3.92c.24-.5.57-1,.79-1.48A82.72,82.72,0,0,1,11.86,155q3-4.54,6.05-9.09a53.71,53.71,0,0,0,5.91-11.35,24.7,24.7,0,0,1,2.51-5.17Q29.09,125.14,32,121a31.81,31.81,0,0,1,6.49-7,19.37,19.37,0,0,0,4.65-5.11c1.17-1.87,2.14-3.84,3.17-5.78a25.51,25.51,0,0,1,5-6.8A46.21,46.21,0,0,0,62.92,79.16a16.55,16.55,0,0,1,1.55-3,28.06,28.06,0,0,1,6.62-6.87c3.26-2.52,6.57-5,9.84-7.46,3.81-2.92,7.53-5.94,11.11-9.13a42.32,42.32,0,0,1,11.62-7.32,56.8,56.8,0,0,1,17.17-4.12,7.08,7.08,0,0,0,6.08-4c.67-1.28,1.34-2.55,2.05-3.8q4.57-8.16,9.19-16.29a35,35,0,0,1,4.41-6.26,30.32,30.32,0,0,1,15.09-9.09A60.22,60.22,0,0,1,169.6.18c.43,0,.89.11,1.28-.18h6.72a.92.92,0,0,0,.68.17,39.47,39.47,0,0,1,8.51,1.24,36.06,36.06,0,0,1,10.93,4.45,33.22,33.22,0,0,1,8.53,8,45.2,45.2,0,0,1,8.91,20.3A6.26,6.26,0,0,0,215.52,36.24Zm-51.44-7.43c-1.92.08-3.67.55-4.67,2.37a6.6,6.6,0,0,0,0,6.31,3.56,3.56,0,0,0,1.26,1.41,5.69,5.69,0,0,0,6,.21,5.36,5.36,0,0,0,3-4.85C169.8,31.68,167.15,28.73,164.08,28.81Zm36.8,9.36a9.48,9.48,0,0,0,0-1.19,4.45,4.45,0,0,0-3-3.74,6.42,6.42,0,0,0-3.19-.26,4.39,4.39,0,0,0-3.91,3.79,6.16,6.16,0,0,0,.06,2.6,5.06,5.06,0,0,0,7.72,3.35A4.78,4.78,0,0,0,200.88,38.17Z"/></g></g></svg>