<svg xmlns="http://www.w3.org/2000/svg" xmlns:xlink="http://www.w3.org/1999/xlink" viewBox="0 0 233.84 299.33"><defs><style>.cls-1{fill:none;}.cls-2{fill:#fff;}.cls-3{fill:url(#horizantal_stripe);}.cls-4{fill:url(#horizantal_stripe-3);}</style><pattern id="horizantal_stripe" data-name="horizantal stripe" width="24.62" height="223.6" patternTransform="translate(0.13 1.52) scale(0.54 0.53)" patternUnits="userSpaceOnUse" viewBox="0 0 24.62 223.6"><rect class="cls-1" width="24.62" height="223.6"/><polygon points="2.46 223.6 2.46 0 4.92 0 4.92 223.6 2.46 223.6"/><polygon class="cls-2" points="0 223.6 0 0 2.46 0 2.46 223.6 0 223.6"/><polygon points="7.38 223.6 7.38 0 9.85 0 9.85 223.6 7.38 223.6"/><polygon class="cls-2" points="4.92 223.6 4.92 0 7.38 0 7.38 223.6 4.92 223.6"/><polygon points="12.31 223.6 12.31 0 14.77 0 14.77 223.6 12.31 223.6"/><polygon class="cls-2" points="9.85 223.6 9.85 0 12.31 0 12.31 223.6 9.85 223.6"/><polygon points="17.23 223.6 17.23 0 19.69 0 19.69 223.6 17.23 223.6"/><polygon class="cls-2" points="14.77 223.6 14.77 0 17.23 0 17.23 223.6 14.77 223.6"/><polygon points="22.16 223.6 22.16 0 24.62 0 24.62 223.6 22.16 223.6"/><polygon class="cls-2" points="19.69 223.6 19.69 0 22.16 0 22.16 223.6 19.69 223.6"/></pattern><pattern id="horizantal_stripe-3" data-name="horizantal stripe" width="24.62" height="223.6" patternUnits="userSpaceOnUse" viewBox="0 0 24.62 223.6"><rect class="cls-1" width="24.62" height="223.6"/><polygon points="2.46 223.6 2.46 0 4.92 0 4.92 223.6 2.46 223.6"/><polygon class="cls-2" points="0 223.6 0 0 2.46 0 2.46 223.6 0 223.6"/><polygon points="7.38 223.6 7.38 0 9.85 0 9.85 223.6 7.38 223.6"/><polygon class="cls-2" points="4.92 223.6 4.92 0 7.38 0 7.38 223.6 4.92 223.6"/><polygon points="12.31 223.6 12.31 0 14.77 0 14.77 223.6 12.31 223.6"/><polygon class="cls-2" points="9.85 223.6 9.85 0 12.31 0 12.31 223.6 9.85 223.6"/><polygon points="17.23 223.6 17.23 0 19.69 0 19.69 223.6 17.23 223.6"/><polygon class="cls-2" points="14.77 223.6 14.77 0 17.23 0 17.23 223.6 14.77 223.6"/><polygon points="22.16 223.6 22.16 0 24.62 0 24.62 223.6 22.16 223.6"/><polygon class="cls-2" points="19.69 223.6 19.69 0 22.16 0 22.16 223.6 19.69 223.6"/></pattern></defs><title>woodpigeon-image</title><g id="Layer_2" data-name="Layer 2"><g id="woodpigeon-image"><path class="cls-3" d="M158.94,159.86c-4.45,2.75-8.84,5.6-13.37,8.24-5.35,3.11-10.22,7-16.35,8.91-3.1,1-3.86,3.88-6.22,5.33-2.76,1.7-2.86,3.34-.62,5.34a42.53,42.53,0,0,0,5.5,4.73c5.89,3.68,8.06,11.13,4.62,16.77-2,3.2-11.47,3.08-14.19-.17-4.68-5.6-3.75-8.22,3.78-10.59,1.09-.34,2.54-.59,2.53-1.75,0-.66-1.11-1.35-1.78-2-2.72-2.52-5.62-4.91-8.08-7.61-.68-.75-.14-2.42-.09-3.66.08-1.64-.75-2-2.4-1.57-4.48,1-8.63,3.06-13.43,3.16-2.18.05-1.89,1.9-1.87,3.24q.36,17.7.77,35.39c0,2-.06,4.25-2.4,5.14-2.61,1-5.38,2.55-8.36.34-1.28-1-2.57-.82-2.61,1.12-.08,4.74-2.48,7.18-8.11,6.76-2.63-.2-4.07,2.84-6.73,2.54-5.28-.59-10,3.4-15.08,1.85-3.54-1.08-5.31.87-8,1.72-2.84.92-5.94-1-7.66-2.93s-3.05-1.56-4.74-.87c-4.9,2-13.77.28-17.19-3.34A11.52,11.52,0,0,0,14,233.78c-4.09-2.2-5.73-5.28-4.9-9.52.38-1.95-.59-3.45-2.53-4.72-4.3-2.81-5.46-7-3.45-11.33.55-1.19.07-1.89-1-2.61-2.07-1.45-2.78-3.17-.47-4.91,1.33-1,1.5-1.75.39-3.05-1.33-1.57-3.44-3.25-.86-5.41a.5.5,0,0,0,.12-.51c-2.73-4.05,1-5.5,3.67-7.43.38-.28.76-1.1.58-1.37-2.16-3.26-.28-4.84,2.93-6,.87-.31,1.74-.79,1.86-1.76.7-5.94,5.49-8.38,11.09-9.34,11.31-2,22.73-3.43,34.12-5.06,3.43-.49,5.18-3.2,7.92-4.61.2-.11.27-.78.25-.79-3.33-1-3.53-5.8-7.69-5.5s-6.55-1.14-8-4.52c-1.23-2.81-4.57-4.13-6.3-6.89a53.94,53.94,0,0,0-9.6-11c-5.2-4.72-9.48-9.58-9-16.69.06-1.06-.91-2.23-1.58-3.26a7.22,7.22,0,0,1-1.29-5.4c.42-2.72-3.85-3.38-4.29-6s-1.67-5.39,2.56-6.46c1.91-.49,2.18-1.47,1.15-2.83a45.65,45.65,0,0,1-3.88-5c-1.19-2.13.22-3.57,2.53-4.1,3.05-.7,3.37-1.76,1.32-3.89a9.5,9.5,0,0,1-1.84-3.74c-.48-1.44-.19-2.57,2-2.51a3,3,0,0,0,2-.93c.57-.68-.35-1.14-.81-1.63-3.46-3.61-2.9-5.42,2.06-7.06,2.71-.89.89-2.22.15-3.22-1.74-2.34-3.82-4.34-.39-7.16,1.56-1.28-.92-3.8-.16-5.31,2.37-4.67-1.2-9-.69-12.92.41-3.13-1.18-6.22.19-9.17a2.38,2.38,0,0,1,2.4-1.36c.74,0,1.52.36,1.92-.48s-.32-1.31-.92-1.8c-2.07-1.71-1.91-3.76-1-5.83.6-1.33,2.1-1.4,3.44-1.42,1.6,0,2.54,1.16,3.74,1.86s2.58,1.65,4.08,1c1.68-.74.29-2,.26-3.06,0-1.75-.91-3.81-.15-5.17.88-1.59,3.26-.88,4.86-.14,1.13.52,2,2,3.43,1.06s.09-2.26.18-3.41A5.56,5.56,0,0,0,44.17,0,43.62,43.62,0,0,1,61.52,9.24c7.48,6.17,14.32,13,21.41,19.5a133.26,133.26,0,0,1,19,21.57c3.64,5.23,8,10.19,10.65,15.79,3.17,6.65,3,14,1.58,21.1-1.32,6.47-4,12.81-1.82,19.56,1.07,3.3,2,7.56,5.5,8.44,5,1.25,9.83-.83,13.92-4.19,9.29-7.63,15.41-17.55,24-25.67a322.23,322.23,0,0,0,25.23-27,84.51,84.51,0,0,1,14.69-14.2,7.14,7.14,0,0,1,3.15-1c4.23-.52,10.14-6.12,11-9.93.62-2.58,2.15-5,3.36-7.67,1.12,1.19-.93,2.82.64,3.12s2.06-1.64,3-2.6c2.5-2.69,2.74-6.33,5.14-10-.36,4.19,1.24,7.91-2.66,10.9,2.79-.31,6.33-3.47,8.83-7.83,1.83-3.17,3.53-6.4,5.72-10.4-.35,6-1.24,10.86-4.33,15.49a63.21,63.21,0,0,1-17,17c-6.06,4.13-12.25,8.07-17.11,13.27a291.37,291.37,0,0,0-23.27,27.93c-4.55,6.26-7.41,12.87-10.52,19.59-1.37,3-3,5.87-4.49,8.83-.23.47-.51,1.1-.33,1.5.32.7,1,.18,1.58.1,10.47-1.45,21.06-4.07,31.46-.65,7.19,2.37,13,6.68,15.51,13.6,1,2.92-1.54,5-2.75,7.3-2.57,4.87-1,9.63,4.28,12.47a4,4,0,0,1,1.51,3.24,3.31,3.31,0,0,1-2.72,3.07c-1.53.28-2.55-.92-3.42-1.89-2.42-2.73-4.37-5.84-7.54-8C186,135.8,175.54,140,170.46,147a72.27,72.27,0,0,1-11.08,12.54Z"/><path class="cls-4" d="M96.33,299.33l.8-.64Z"/></g></g></svg>