<svg xmlns="http://www.w3.org/2000/svg" xmlns:xlink="http://www.w3.org/1999/xlink" viewBox="0 0 494.49 272"><defs><style>.cls-1{fill:none;}.cls-2{fill:#fff;}.cls-3{fill:url(#stripes_thin);}</style><pattern id="stripes_thin" data-name="stripes thin" width="223.6" height="24.62" patternUnits="userSpaceOnUse" viewBox="0 0 223.6 24.62"><rect class="cls-1" width="223.6" height="24.62"/><rect width="223.6" height="2.46"/><rect class="cls-2" y="2.46" width="223.6" height="2.46"/><rect y="4.92" width="223.6" height="2.46"/><rect class="cls-2" y="7.38" width="223.6" height="2.46"/><rect y="9.85" width="223.6" height="2.46"/><rect class="cls-2" y="12.31" width="223.6" height="2.46"/><rect y="14.77" width="223.6" height="2.46"/><rect class="cls-2" y="17.23" width="223.6" height="2.46"/><rect y="19.69" width="223.6" height="2.46"/><rect class="cls-2" y="22.15" width="223.6" height="2.46"/></pattern></defs><title>wren-image</title><g id="Layer_2" data-name="Layer 2"><g id="wren-image"><path class="cls-3" d="M494.49,155.52a43.32,43.32,0,0,1-7.7-1c-15.63-2.71-30.83-7.14-46.05-11.45-12.27-3.48-24.56-6.88-37.12-9.17a163.69,163.69,0,0,0-17.81-2.33,127.4,127.4,0,0,0-12.81-.42,113.36,113.36,0,0,0-35.11,6.43c-.94.34-.91.7-.45,1.46,2.75,4.51,5.46,9,8.17,13.57.21.35.71.79.36,1.15s-1,0-1.39-.27c-4-2.75-8-5.58-12.25-8a28.16,28.16,0,0,0-5.92-2.6,10.34,10.34,0,0,0-8.93,1.42,39.42,39.42,0,0,0-7.8,7.24c-9.85,11.13-18.56,23.14-27.18,35.23-9.66,13.54-19.83,26.71-29.76,40.06-2.77,3.73-5.51,7.47-8.28,11.19-1.35,1.8-1.87,4-2.58,6-.27.8.31.87.85.91a10,10,0,0,0,5.1-1.07,40.09,40.09,0,0,0,7.32-5,40.12,40.12,0,0,1,6.21-4.29c4.11-2.1,7.66-1.54,11,1.65a35.56,35.56,0,0,1,5.25,7.25,36.38,36.38,0,0,1-4.8-3.06,23.76,23.76,0,0,0-3.83-2.46c-2.28-1.1-3.62-.5-4.41,1.9a14.65,14.65,0,0,0-.64,5.69,3.87,3.87,0,0,1-2.18,3.91,74,74,0,0,1-10.48,4.72c-12.18,5-24.41,9.82-37,13.78-3.09,1-6.06,2.29-9,3.56A5.61,5.61,0,0,1,203,272H162c-1.62,0-1.66-.1-1.19-1.62a7.32,7.32,0,0,1,4.72-5.12c4.7-1.74,8.81-4.69,13.17-7.13s8.71-4.37,13.68-4.86a27.45,27.45,0,0,1,10.88,1.25,34.15,34.15,0,0,0,4.74,1.26c5.47.85,10-1.21,13.92-4.73a53.24,53.24,0,0,0,7.78-9.1c3-4.26,6-8.55,9.38-12.61,3.88-4.72,6.75-10.09,9.6-15.47,2.46-4.62,4.89-9.26,7.38-13.87.42-.78.32-1.07-.55-1.1s-1.83-.08-2.75-.1c-5.51-.15-11-.13-16.54-.5a59.37,59.37,0,0,1-11.29-2.07,69.73,69.73,0,0,0-21.12-2.43,73.48,73.48,0,0,0-27.21,6.61,122.49,122.49,0,0,0-25.86,16.2c-2,1.56-2.47,4-3.41,6.1-.23.5.3.54.63.65a12.26,12.26,0,0,0,7.74.12c8.35-2.5,16.62-5.24,25.06-7.45,2.93-.77,5.88-1.52,8.86-2.08a19.71,19.71,0,0,1,10,1.14c.73.24,2,.24,2,.93s-1.15.9-1.83,1.27c-3,1.66-6.06,3.24-9.09,4.88a43.63,43.63,0,0,1-18.81,5.14c-5.07.26-10.1.89-15.14,1.49-6.7.8-13.4,1.59-20.06,2.75A167.41,167.41,0,0,0,112.79,238l-.34.12c-1.3.52-3,.44-3.31,2.59,0-1.8-1-1.27-1.89-1.21-4.1.28-8.21.52-12.32.8-5.37.36-10.75.75-16.13,1.12a36.75,36.75,0,0,1-4.3.26,7.37,7.37,0,0,0-5.5,1.9c-.32.28-.76.85-1.23.42a4.17,4.17,0,0,1-1.29-2c-.06-.24.19-.43.39-.57,3.44-2.41,6.39-5.45,9.84-7.86,1.88-1.32,3.85-2.5,6.25-2.42,1.56.05,3.11.25,4.66.4a53.58,53.58,0,0,0,14.9-.9c8.83-1.63,17-5.15,24.8-9.4,8.65-4.69,16.77-10.29,25.34-15.12,9.57-5.4,19.11-10.88,28.52-16.57.4-.24.79-.5,1.34-.84-3.58-1.4-7-2.68-10.41-4.08-11.05-4.55-22.49-8.09-33.59-12.53a143.53,143.53,0,0,1-46.23-29.52,157.76,157.76,0,0,1-27-34.32c-2.4-4.07-5-8-8.69-11.08-5.5-4.55-11.1-5-17.32-1.42-3.12,1.79-5.7,4.26-8.42,6.55A199,199,0,0,1,1.71,122.92a4.62,4.62,0,0,1-1.66.78c-.18-.51.19-.83.4-1.17,4.89-8.26,10-16.37,14.7-24.76C19.43,90.05,24,82.46,27.47,74.31a57.42,57.42,0,0,0,3-9.86A84.75,84.75,0,0,1,48,28.09,76.56,76.56,0,0,1,92.51,1.62a69.28,69.28,0,0,1,12-1.47,4.15,4.15,0,0,0,.7-.15h7.44a2.47,2.47,0,0,0,1.17.16A68.32,68.32,0,0,1,122.4,1,185.55,185.55,0,0,1,142,5.49c27.54,7.22,54.23,16.69,79.6,29.71A289.63,289.63,0,0,1,260,58.76c6.11,4.45,12,9.24,18.21,13.49,17.25,11.75,35.86,20.82,55.34,28.2,18.33,6.94,37.14,12.38,56,17.57,14.29,3.92,28.64,7.67,42.71,12.37,17.9,6,35.54,12.67,53.37,18.84a16.15,16.15,0,0,1,5.76,3.54,19.87,19.87,0,0,0,3.05,2.51ZM188.77,261.19c-2.83,0-5.67,0-8.5,0-1,0-1.12.45-1.08,1.26s.18,1.29,1.16,1.23c4-.27,8-.47,11.94-.72,1.79-.11,3.58-.24,5.37-.38.35,0,.78,0,.71-.58s-.22-.77-.74-.78h-8.86Z"/></g></g></svg>