<svg xmlns="http://www.w3.org/2000/svg" xmlns:xlink="http://www.w3.org/1999/xlink" viewBox="0 0 561.6 456.48"><defs><style>.cls-1{fill:none;}.cls-2{fill:#fff;}.cls-3{fill:url(#stripes_2);}</style><pattern id="stripes_2" data-name="stripes 2" width="223.6" height="24.62" patternUnits="userSpaceOnUse" viewBox="0 0 223.6 24.62"><rect class="cls-1" width="223.6" height="24.62"/><rect y="19.69" width="223.6" height="2.46"/><rect class="cls-2" y="22.15" width="223.6" height="2.46"/><rect y="14.77" width="223.6" height="2.46"/><rect class="cls-2" y="17.23" width="223.6" height="2.46"/><rect y="9.85" width="223.6" height="2.46"/><rect class="cls-2" y="12.31" width="223.6" height="2.46"/><rect y="4.92" width="223.6" height="2.46"/><rect class="cls-2" y="7.38" width="223.6" height="2.46"/><rect width="223.6" height="2.46"/><rect class="cls-2" y="2.46" width="223.6" height="2.46"/></pattern></defs><title>yellowhammer-image</title><g id="Layer_2" data-name="Layer 2"><g id="yellowhammer-image"><path class="cls-3" d="M0,453.12a3.08,3.08,0,0,0,.92-3.07,7.43,7.43,0,0,1,2.84-6.74c2.32-2.08,4.44-4.38,6.64-6.59,5.19-5.22,10.71-10.06,16.2-15,3.69-3.29,7.48-6.48,11.09-9.88,4.31-4,8.88-7.8,13.32-11.69,3.25-2.84,6.47-5.71,9.71-8.55L73.19,380.8l9.59-8.32c5-4.34,9.93-8.78,15.08-13a56.73,56.73,0,0,0,6-5.2,15.08,15.08,0,0,1,2.9-2.5c3.69-2.3,6.36-5.83,9.86-8.35a68.68,68.68,0,0,0,7.43-6.42c2.36-2.26,4.9-4.34,7.39-6.46q6-5.13,12.08-10.21a26.37,26.37,0,0,1,3-2.36c3.91-2.42,7-5.75,10.5-8.69a121.87,121.87,0,0,0,10.61-9.7,130.93,130.93,0,0,0,14.48-18.46,18.91,18.91,0,0,0,2.28-4.75c.41-1.35.15-1.61-1.18-1.3l-.23.08c-3.69.9-6.44-1.71-5.7-5.52a25,25,0,0,1,3.13-7.75c3.59-6.17,8-11.72,12.43-17.31,5.19-6.6,10.9-12.74,16.52-19,4.45-4.93,8.8-9.94,13.66-14.45,3-2.78,5.88-5.64,8.84-8.44,4.13-3.91,7.75-8.29,11.79-12.28,5.4-5.34,11.12-10.33,16.75-15.41,1.9-1.71,3.68-3.56,5.48-5.37,4.73-4.78,10-8.94,15.05-13.35,3.25-2.84,6.47-5.71,9.71-8.56,5.41-4.73,10.91-9.34,16.57-13.78,6-4.73,11.93-9.64,17.9-14.45,6.48-5.2,13.07-10.27,19.33-15.73,4.89-4.26,10.2-8,15.12-12.17,3.28-2.79,6.18-6,9.25-9.06a124.4,124.4,0,0,0,12.76-14.29c2.41-3.28,4.52-6.78,7.26-9.83,6.61-7.36,12.1-15.7,19.38-22.5,4.32-4,8.78-7.92,13.31-11.7a136.85,136.85,0,0,1,16.27-11.85A95,95,0,0,1,461.31,1.83a24.91,24.91,0,0,1,7.83-.92A6.47,6.47,0,0,0,473.28,0H479a7.1,7.1,0,0,0,3.45.9c4.46,0,8.72,1.19,12.95,2.31,11.64,3.1,21.29,9.7,29.62,18.19A27.65,27.65,0,0,1,533,36.69c1.23,7.69,5.58,13.49,12.18,17.56,2.11,1.3,4.15,2.71,6.15,4.16a52.82,52.82,0,0,1,10.31,9.27v1a13.87,13.87,0,0,1-5.42,3.4c-4.12,1.53-8.18,3.15-12.61,3.7-2.69.34-3.48,1.44-3.9,4.12a12.17,12.17,0,0,0-.11,1.91c0,5.52-.06,11,0,16.56,0,3.75,1.46,7.38,1.09,11.17,1,1.91.92,4,1.08,6,.18,2.24.94,4.4,1,6.62.18,3.58,1.32,7,1.26,10.65,0,2.7.58,5.4.71,8.1a48.2,48.2,0,0,1-.09,8.15c-.25,2.09-.83,2.59-2.75,2.3-1.22-.19-1.4.35-1.39,1.28a48.89,48.89,0,0,0,.13,7.66c.58,3.56.1,7-.34,10.5-1.31,10.36-4.24,20.36-7.62,30.19-5.28,15.31-13.34,29.23-22.74,42.33-4.75,6.62-9.49,13.25-15.11,19.23-4,4.3-7.83,8.84-11.91,13.12-4.63,4.87-9.63,9.35-14.66,13.8-5.39,4.77-10.84,9.46-16.55,13.83a288.77,288.77,0,0,1-37.37,24.29c-2.82,1.54-5.42,3.48-8.29,5.35,2.28,1.29,4.25,2.35,6.16,3.5a50.51,50.51,0,0,0,11.19,5.42,9,9,0,0,1,1.95.93,12.88,12.88,0,0,0,13.24.43c4.81-2.44,9-5.79,13.2-9.12a20.85,20.85,0,0,1,9.75-4.29c5.23-.87,8.71,1.79,11.67,5.54.75.93.72,2.85.06,3.38-1,.78-1.85,0-2.62-.47a2.84,2.84,0,0,0-3.87.51,4.22,4.22,0,0,1-2.91,1.52c-2.2,0-4.23.82-6.35,1.19-2.75.48-3.87,2.43-4.81,4.74,2.16.38,2.17.41,3.63-.24a23.7,23.7,0,0,1,6.89-1.91c2.06-.24,4.08-.61,6.11-1,4-.75,8.13-.31,12.2-.28a2.77,2.77,0,0,1,1.14.33,32.29,32.29,0,0,0,7.95,2.64c5.13,1.06,9,3.87,12.39,7.71,2.42,2.78,2.73,6,2.28,9.47-.16,1.17-.91,1.35-1.89.53-.67-.57-1.24-1.25-1.89-1.84-3.07-2.83-6.22-5.52-10.33-6.78-1.34-.41-2.78-1-3.94-.17-2.83,2-5.66,1.54-8.6.53a.93.93,0,0,0-.24,0c-4-.84-8-.28-12-.51a7.66,7.66,0,0,0-5.54,1.83,4.69,4.69,0,0,1-3.05,1.12c-2,.06-2.37.54-1.34,2.27,1.43,2.42.85,5,.84,7.49,0,.85-.74,1.05-1.33.43a8.77,8.77,0,0,1-.93-1.38c-.68-1.09-1.29-2.22-2-3.26s-1.74-1.88-3.25-1.11a4,4,0,0,1-2.59.26,6.42,6.42,0,0,0-2.82.24c-2.87.69-5.59,1.88-8.56,2.25a13,13,0,0,1-9.45-2.46c-1.66-1.17-2.72-1.26-4.29.1-4,3.48-8.73,5.91-13.24,8.63-4.24,2.56-8.91,4.36-12.82,7.51a12.48,12.48,0,0,1-3.42,1.72c-3.55,1.33-6.9,1.2-9.83-1.56a2.85,2.85,0,0,0-1.65-.9c-3.39-.3-6.74-.21-9.88,1.28-2.41,1.14-2.72,2.5-.81,4.43a39.79,39.79,0,0,1,4.79,6.28,15,15,0,0,0,3,3.43,11.78,11.78,0,0,1,2.77,3.28,8.24,8.24,0,0,0,4.52,3.75,63,63,0,0,0,6.13,2.06,11.39,11.39,0,0,0,6.86-.17,51.78,51.78,0,0,0,10-4.69,23,23,0,0,1,6.11-3.23,5.06,5.06,0,0,0,2.13-1.52c.73-.74,1.44-1.5,2.22-2.19a8.64,8.64,0,0,1,9.45-.82c.57.35,1.1.7,1,1.47s-.59.89-1.12,1.12l-4,1.73c-2.64,1.17-2.19,2.77-1.41,4.73a1.15,1.15,0,0,0,1.74.68c.95-.44,1.83-1,2.79-1.4a54.26,54.26,0,0,0,11.65-6.61,6.26,6.26,0,0,1,2.3-1.26,21.07,21.07,0,0,0,4.83-2.07c1.28-.65,2.59-1.26,3.92-1.81,4.91-2,10.06-1.46,15.16-1.28a5.19,5.19,0,0,1,3.2,1.51,2.52,2.52,0,0,1,.79,2.82,2,2,0,0,1-2.11,1.27c-1.84.06-3.68.11-5.52,0a17.48,17.48,0,0,0-7.6,1.84c1.19,1.21.65,2.4.15,3.58a9.13,9.13,0,0,1-4.11,4.52,16.52,16.52,0,0,1-7.1,2,7.05,7.05,0,0,0-4.14,1.64A60.48,60.48,0,0,1,424,413c-.69.29-1.53.41-2.07,1.28,1.07.69,2,1.41,3.06,2,2.82,1.53,3.94,4.3,5.19,7A1.49,1.49,0,0,1,430,425a1.56,1.56,0,0,1-2,.34,7.65,7.65,0,0,1-1.55-1.1c-.77-.7-1.5-1.45-2.22-2.19s-1.25-.83-2,0a7.79,7.79,0,0,1-4.17,2.23,30.41,30.41,0,0,1-7.11,1,34.56,34.56,0,0,0-5.75.19,23.49,23.49,0,0,1-13.17-1.59,59.32,59.32,0,0,1-12.82-7c-2-1.44-2.42-1.37-3.75.78-1.18,1.9-2.28,3.86-3.32,5.84a9.34,9.34,0,0,1-5.71,4.79,17.83,17.83,0,0,1-2.53.75,10,10,0,0,0-5.62,3,10.56,10.56,0,0,1-4.27,2.59c-5.47,1.72-7,.75-9.42-2.91a2.26,2.26,0,0,1-.13-.2c-.68-1.68-2-2-3.69-2-3.67,0-6.86,1.43-9.94,3.18-2.36,1.35-4.63,2.84-7,4.27-.41.25-.88.56-1.33.24s-.24-.87-.17-1.33a12.91,12.91,0,0,1,1.79-5.18,18.23,18.23,0,0,1,8.93-7.32,21.05,21.05,0,0,1,12.71-1.12,2.65,2.65,0,0,0,2.81-.78,7.83,7.83,0,0,1,1.48-1.21c4.38-2.92,8.45-6.36,13.58-8a8.87,8.87,0,0,0,1.72-.85c2.36-1.36,2.87-3,1.58-5.41a37.61,37.61,0,0,0-2.14-3.47q-8.52-12.47-17.1-24.92c-5.6-8.09-11.28-16.11-16.89-24.19a2.72,2.72,0,0,0-3.24-1.27c-4.25,1-7.69-.6-10-4.27a46.71,46.71,0,0,0-3.86-6.06c-2-2.33-4.71-3.52-7.21-5.08a8.59,8.59,0,0,0-4.76-1.3c-5.2.05-10.4,0-15.6,0a12.26,12.26,0,0,1-3.1-.2,24.31,24.31,0,0,0-10.22-.44,5.77,5.77,0,0,1-2.14-.19c-5.32-1.31-10.82-.85-16.2-1.56a48.18,48.18,0,0,0-5.49-.45,191.4,191.4,0,0,1-19.58-1.47,40.36,40.36,0,0,0-6.68-.5,45.77,45.77,0,0,1-11.67-1.11,4.65,4.65,0,0,0-2.61-.1c-3.84,1.43-8,1.23-11.89,2.61-5.12,1.81-10.42,3.12-15.56,4.9-9.67,3.35-19.33,6.75-28.89,10.39a40.85,40.85,0,0,0-9.55,4.95c-7.89,5.74-15.65,11.65-23.42,17.55-6.43,4.89-13,9.58-19.47,14.41-7,5.21-13.59,10.89-20.7,15.95-9,6.4-17.43,13.52-26.31,20.07-6.1,4.51-11.91,9.41-18.08,13.85-10.18,7.35-20.25,14.85-30.36,22.28H0Zm366.25-75.65a8.56,8.56,0,0,1,1-2.13c2.87-2.92,5.91-5.62,10.07-6.61a36.19,36.19,0,0,1,8.54-1.07,8.35,8.35,0,0,0,3.75-.63,64.56,64.56,0,0,0,14.5-8.84,56,56,0,0,0,4.8-4.7c1.38-1.48,1.22-2.77-.35-4.09a6.17,6.17,0,0,0-1-.69A155.77,155.77,0,0,0,392.93,341a6.88,6.88,0,0,0-5.82-.11,23.45,23.45,0,0,1-5.08,1.39,75.48,75.48,0,0,0-9.61,2.08,5.19,5.19,0,0,1-4-.2,2.83,2.83,0,0,0-2.31-.31c-2.79,1.06-5.69.66-8.55.78a16.36,16.36,0,0,1-9.25-2,7.48,7.48,0,0,0-1.8-.67c-1.74-.47-2.19-.29-3.22,1.18-1.15,1.64-1.19,1.67.05,3.34q8.2,11.07,16.45,22.14C361.9,371.51,364,374.34,366.25,377.47ZM212.19,254a3.67,3.67,0,0,0-2.35,1.58,63.58,63.58,0,0,1-12.13,10.11c-1.74,1.13-3.32,2.5-5.08,3.61-2.22,1.4-4.24,2.87-4.31,5.84a.51.51,0,0,1-.09.22c-2,4.17-3.88,8.46-6.68,12.19A123.22,123.22,0,0,1,165.22,306q-5.82,5.18-11.88,10.07c-5.34,4.33-10.64,8.7-15.81,13.22-4,3.53-8.13,7-12.2,10.44q-7.11,6.07-14.2,12.15c-2.85,2.45-5.68,4.91-8.48,7.41-3.88,3.45-8.14,6.47-11.67,10.31a6.3,6.3,0,0,1-1.84,1.51,10.21,10.21,0,0,0-4.33,3.66,5.29,5.29,0,0,1-1.35,1.36c-2.27,1.52-4.18,3.46-6.28,5.18-1.92,1.57-3.56,3.43-5.52,5-2.71,2.12-5.24,4.44-7.85,6.68-3.14,2.71-6.29,5.42-9.42,8.15s-6,5.34-9,7.87c-2.79,2.29-5.15,5-7.91,7.33a142.5,142.5,0,0,0-13.17,11.88,19.82,19.82,0,0,1-3.84,3.23,22.34,22.34,0,0,0-4.28,4c.5,0,.69,0,.78-.08q9.42-7.41,18.82-14.86Q49.29,409.75,62.84,399q12.42-9.8,24.89-19.56c8.78-6.92,17.54-13.89,26.34-20.8q11.31-8.9,22.67-17.72a4.54,4.54,0,0,0,2-3.12,8.61,8.61,0,0,1,1.44-3.25c3.43-5.93,8.54-10.33,13.59-14.74,2.1-1.84,4.13-3.77,6.19-5.65,3.35-3.07,7-5.87,10.18-9.05,4.16-4.1,9.05-7.38,12.91-11.79a5.06,5.06,0,0,1,.57-.44,86.34,86.34,0,0,0,8.92-7.63,11.6,11.6,0,0,1,2.47-1.88,20.08,20.08,0,0,0,8.36-10.2c1.15-2.8,2.44-5.56,3.75-8.3C208.86,261.31,210.34,257.6,212.19,254ZM555.66,69.17c-.17-.2-.24-.37-.36-.42-4.53-1.91-9.38-2.53-14.16-3.41-4.94-.92-10-1-14.95-1.88a15.71,15.71,0,0,0-4.54,0c-2.93.36-5.84.87-8.76,1.34a4,4,0,0,0-1.14.31c-.86.4-.92,1.06-.19,1.65a4.24,4.24,0,0,0,.82.49c5.21,2.66,10.5,5.09,16.45,5.56a10.74,10.74,0,0,1,2.6.38c4.9,1.67,9.67,0,14.41-.74a65.88,65.88,0,0,0,6.91-1.91A5.36,5.36,0,0,0,555.66,69.17Zm-1.87-4.58c-.17-1.05-.82-1.28-1.29-1.67C545.83,57.42,538.38,53,531.37,48c-.56-.4-1.16-1.16-1.88-.81s-.57,1.43-.5,2.16c.42,3.91-1.47,6.74-4.16,9.21-.57.52-1.19,1-2.15,1.76C533.48,60.48,543.61,62.33,553.79,64.59Z"/></g></g></svg>