<svg id="bittern-image" xmlns="http://www.w3.org/2000/svg" xmlns:xlink="http://www.w3.org/1999/xlink" viewBox="0 0 161.76 447.64"><defs><style>.cls-1{fill:none;}.cls-2{fill:#fff;}.cls-3{fill:url(#vertical);}</style><pattern id="vertical" data-name="vertical" width="14.19" height="68.28" patternUnits="userSpaceOnUse" viewBox="0 0 14.19 68.28"><rect class="cls-1" width="14.19" height="68.28"/><rect x="11.35" width="1.42" height="68.28"/><rect class="cls-2" x="12.77" width="1.42" height="68.28"/><rect x="8.51" width="1.42" height="68.28"/><rect class="cls-2" x="9.93" width="1.42" height="68.28"/><rect x="5.68" width="1.42" height="68.28"/><rect class="cls-2" x="7.09" width="1.42" height="68.28"/><rect x="2.84" width="1.42" height="68.28"/><rect class="cls-2" x="4.26" width="1.42" height="68.28"/><rect width="1.42" height="68.28"/><rect class="cls-2" x="1.42" width="1.42" height="68.28"/></pattern></defs><title>bittern</title><path class="cls-3" d="M416.91,392.14c2.15,3.27,3.23,6.78.78,10.5-.4.61-.42,1.65-.94,2-.88.54-1.05,2.93-2.9,1.33,1.49-.92,1.19-2.67,1.87-3.95a4.54,4.54,0,0,0,.23-4.11c-.65-1.5-1.71-.45-2.68-.33-2.87.34-4.31-2.42-6.74-3.36-5.28-2-12.92,2-14.59,7.27s-1.82,9.72,1.16,14.37a14.13,14.13,0,0,0,4.21,4,4.89,4.89,0,0,1,1.75,2,1.37,1.37,0,0,1-1.09,2c-.15,0-.25.34-.37.52a12.7,12.7,0,0,0,2.23,1.26,21.87,21.87,0,0,0,3.05.56c-.09.12-.16.29-.28.34-1.69.77-3.34,1.71-5.27.6-6.36-3.66-7.3-10.95-10.94-16.42-2.5-3.77,1.5-6.94,2.22-10.45.32-1.53,1.5-3.24.19-4.24-1.71-1.32-3.33.32-4.08,1.74-3.5,6.69-9,12.78-7.38,21.2.84,4.49,1.05,9.28,4.4,12.89,1.25,1.33-1.73,4,1.57,4.47a6.74,6.74,0,0,0,2.14.37c1.18-.27,2.21-1.57,3.54-.37-1.39.77-2.7,2-4.17,2.22-6.11,1-8.77-2.63-9.51-8.05a166.26,166.26,0,0,0-2.69-16.65c-.82-3.4,2.77-5.92,4.21-8.91,2-4.09,4.93-7.8,6.36-12,1.65-4.9-4-5.46-6.23-8.12-3.94-4.76-10.5-7.65-10.68-15.09,0-.18-.55-.53-.6-.53a9.86,9.86,0,0,0-2.4,2.62c-.42.94-.08,2.2-.14,3.32,0,.73-.19,1.46-.29,2.19a6.78,6.78,0,0,1-1.1-1.63c-1-3.11-.79-6.32,1.7-8.43,2.3-1.95,5.43-2.46,7.41.68s1.72,7.52,5.13,10.38,6.63,5.65,10.7,7.15c3.67,1.37,4.49-3.59,7.5-4.06.33-.06.63-.39,1-.42,5.43-.44,10.88-.81,16.31-1.28,1.85-.16,4.57,1,5.21-1.25.34-1.22-1.58-3.19-2.68-4.67a111.71,111.71,0,0,1-12.57-20.94c-4.33-9.69-6.91-19.88-9.42-30.18-2.17-8.9-4.36-17.87-8.23-26.42-4-8.86-7.87-17.89-9.73-27.68a72.37,72.37,0,0,1-.45-26.91c2.1-11.16,5.4-22.12,8.79-33,2.78-8.89,6.87-17.37,9.6-26.27,2.41-7.86.93-15.55-3.27-22.77-2.12-3.65-2.71-8.56-5.53-11.33-4.06-4-2.95-9.86-6.6-13.6-2.48-2.55-2.18-6.26-2.85-9.13-1.9-8.1-4.72-15.33-9.86-21.93-7.48-9.6-14-19.93-22.13-29.05A8.74,8.74,0,0,1,340.66,72c1.22.12,2.59-.09,3.63.41,8.34,4,14.32,10.91,21.07,16.9,6.91,6.13,13.74,12.42,21.09,18,4.58,3.46,10.45,5.2,15.06,8.63,5.93,4.4,11.59,9.2,15.75,15.67,3.71,5.78,6.21,12,8.56,18.29a46.3,46.3,0,0,1,2.3,9.06c.84,5.58.65,11.41,2.2,16.76,2,6.81,0,13.53,1,18.94,0,6.08.28,10.9-.07,15.67-.55,7.46-2.37,14.77-2.15,22.35.26,9.2,5.42,15.05,13.91,18.36,7.54,2.95,13.76,8.46,18.47,15.35,3.87,5.66,8.15,11.06,11.75,16.87,4.22,6.81,8.22,13.79,10.94,21.4,2.21,6.22,4.74,12.32,6.86,18.56a93.83,93.83,0,0,1,3.11,12c1.79,9,3.81,18.07,4.87,27.2,1,8.49.47,17.14,1.28,25.66,1.05,11.13.24,22.3,1.13,33.37.39,4.9.3,9.79.7,14.67.15,1.81,1.18,4.7-1.65,4.35-1.89-.23-3.48-3-5.19-4.59-.6-.58-1.13-1.22-1.69-1.84a26.77,26.77,0,0,0,.06,2.69c.21,2-1,3.27-2.28,4.45s-2.05-.27-2.76-.71c-6.54-4-11.71-9.68-17.18-15-1.94-1.88-4.1-3.55-6.18-5.29-.85-.7-1.75-1.34-2.62-2a34.77,34.77,0,0,0-.16,4.2c.1,1.34.67,2.65.74,4,.38,7.69-.15,15.53,1.28,23,1.06,5.55.43,11.06,1.21,16.58.71,5-1.7,10.41-2.93,15.6-.61,2.6-1.07,5,.85,7.27,2.16,2.54,4.43,4,7.95,2.35a13.54,13.54,0,0,1,5.69-1.22c3.35,0,4.92-1.45,5.1-4.72,0-.44.67-.83,1-1.25.23.61.75,1.28.64,1.82-1.17,5.65-4.49,8.58-10.45,9.17-3.16.31-6.42,1.85-9.2-.24a29.88,29.88,0,0,1-7.6-7.74c-.8-1.29.86-4.21,1.62-6.31.6-1.64,1.89-3.86.2-4.69s-3.4,1.8-3.93,3c-2.73,6.31-7.13,12.26-7.27,19.24-.1,5,1.85,10,3.16,15,.19.71,2,1.57,2.87,1.41,2-.35,2.37-2.47,2.88-4.1a26.42,26.42,0,0,0,.63-4.48c2,1.59,1.49,3.89,1.13,5.78a9.42,9.42,0,0,1-5.31,7.16c-3.67,1.76-5.41-.25-6.3-3.16a48.45,48.45,0,0,1-1.95-10c-.28-3.3-1.77-6.55-1.67-9.54.12-3.54,2.14-7.21,4-10.44,2.39-4.15,3-9.07,6.19-12.91,1.23-1.47-.83-4-2.5-4.09-3.77-.24-7.7-1.16-11.38.77-1,.52-2.42,10.46-1.55,10.49,1.34,0,2.74-.72,4.06-1.28a19.22,19.22,0,0,0,2.45-1.48c-.36,1-.44,2.39-1.15,3-1.72,1.34-3.66,3.07-5.64,3.25-6.41.61-3.67-4.44-3.72-7.27,0-2.56,1.44-5.13,1.54-7.72.11-3.16,1.55-4,4.29-3.68,4.28.44,8.54-.33,12.91.71,3.29.79,4.79-2.82,4.89-5.5.32-8.27.37-16.56,0-24.83-.27-6.86-.37-13.94-2.17-20.47-1.27-4.58-7-6.5-10.49-9.93-2.25-2.22-4.36-4.83-7.06-6.27-6.12-3.25-8.46-10.34-14.44-13.53-2.63-1.41-5.32.43-7.95.43-5.42,0-10.73.27-15.83,2.25-.42.16-.69.72-1,1.1.45.3.92.89,1.35.86,3.53-.23,7.05-.59,10.57-.9A7,7,0,0,1,416.91,392.14Z" transform="translate(-340.66 -72.03)"/></svg>