<svg id="Layer_1" data-name="Layer 1" xmlns="http://www.w3.org/2000/svg" viewBox="0 0 401.73 536.71"><title>green-woodpecker</title><g id="RdfBw3.tif"><path d="M383.86,46.41h8.69c3.48,3.48,1.58,5.68-1.38,8.46-10.94,10.28-24.77,16.26-36.62,25.39-35.13,27.08-52.58,61.71-51,106.05.11,3.18.89,5.06,3.92,5.58,10.29,1.76,18,8.68,26.64,13.57,13,7.36,23,18.64,31.64,30.3C386.11,263,403,292.44,418.22,322.87c18.4,36.79,32.84,74.94,41.45,115.22a61.69,61.69,0,0,0,19,33.11c14.47,13.53,28.78,27.35,41.78,42.26,7.47,8.56,14.93,17.33,21.37,27,6.29,9.42,11.26,20.2,21,27.07V571c-8.63,1.28-15.43-7.25-25.16-4.67,2.17,2.94,3.86,5.55,5.89,7.87,2.36,2.71,4.55,5.27,1.9,9h-3.48c-16.62-7.58-34.73-9.53-52.21-13.89-11.37-2.83-22.17-6.58-32-14-9.17-6.93-10.09-20.46-21.82-24.54a.86.86,0,0,1-.31-.76c2.35-7.44-3.37-6.72-7.64-7.89a18.75,18.75,0,0,1-8.48-5.36c-11-11.11-20.84-23.73-37.66-27.52-7.44-1.67-13.54-7-18.39-13.66-3.88-5.35-9.39-10.06-16.94-8.5-13.58,2.81-26.92,3.1-40.2-1.52a9.47,9.47,0,0,0-6,.05c-11.6,4.39-20.67.44-29.28-9.88,1.1,8.11-5.3,8.11-8.66,10.31-1.37.9-5-4.58-6-8.43-.71-2.67-2.14-5.15-3.46-8.21-2.15,7.12-2.15,7.12-10,3.84,1.26,6.47-5.63,18.07,10.17,13.87,1.33-.35,3.55,1.12,3.63,3,.09,2.38-2.31,2.26-3.84,2.49-11,1.66-21.66,4.82-32.34,8.3,1.69,3.61,4.92,3.38,7.55,4,5.95,1.38,11.28-1.75,16.9-2.79,4.31-.8,8.12,0,10.43,4.18,1.41,2.57,3.05,5.53,1.25,8.16-2.72,4-6.81,1.53-10.36,1.17-8-.79-15.9-3.55-24.43-2.56,4.36,8.71,10.67,10.21,19.1,8.79,9.55-1.62,13.71,3.25,11,12.12-3.51-4-7.15-5.68-11.66-1.5-2.41,2.23-5.41,1.05-8.19,0a41.81,41.81,0,0,1-18.62-13.7c-4.11-5.47-8.94-10.17-14.89-12.87-11.8-5.37-18.27-15.62-25-25.59-2.7-4-4.66-8.72-8.24-12-4.75-4.4-2.92-8.28.37-11.92,2-2.22,5.93-3.11,3.85-7.39s-5.54-.2-8.49-1.19c.78-6,4.66-7.37,9.28-5.86,6,1.95,9.89,5.95,8.89,13a39.51,39.51,0,0,0,4.06,24.39c2.59,4.9,6.8,10.26,12.15,10.14,4.71-.11,4.45-7,5.72-11.06,2-6.5,3.87-13.62,10.47-16.13,9.55-3.63,8-6.77-.31-11.17,7.13-2.79,10.68.22,12.69,5.13,3.19,7.8-.52,12.59-7.72,15.6-6.14,2.57-9.5,9.17-8.21,13.85,1.2,4.33,8.51,2.59,13.3,1.63,2.83-.57,5.59-1.6,8.44-1.94,6.15-.73,7.8-4.26,8.07-10.08,1.13-24.64-4.79-47.47-16.36-69.09-10.75-20.08-20.82-40.52-28.68-61.93-9.45-25.76-12.16-51.88-5.92-79.16s9.13-55.32,6.14-83.59a141.94,141.94,0,0,1-.36-26C195.18,103.84,219,73.58,247.17,68c20.74-4.14,41.81-6,63-3.25a73.07,73.07,0,0,0,17.29-.32C347.52,62.23,364.51,50.63,383.86,46.41Z" transform="translate(-161.04 -46.41)"/></g></svg>